%TF.GenerationSoftware,KiCad,Pcbnew,5.1.6-c6e7f7d~87~ubuntu18.04.1*%
%TF.CreationDate,2020-07-24T23:53:58+09:00*%
%TF.ProjectId,001,3030312e-6b69-4636-9164-5f7063625858,001*%
%TF.SameCoordinates,Original*%
%TF.FileFunction,Copper,L2,Bot*%
%TF.FilePolarity,Positive*%
%FSLAX46Y46*%
G04 Gerber Fmt 4.6, Leading zero omitted, Abs format (unit mm)*
G04 Created by KiCad (PCBNEW 5.1.6-c6e7f7d~87~ubuntu18.04.1) date 2020-07-24 23:53:58*
%MOMM*%
%LPD*%
G01*
G04 APERTURE LIST*
%TA.AperFunction,ComponentPad*%
%ADD10C,1.600000*%
%TD*%
%TA.AperFunction,ComponentPad*%
%ADD11R,1.600000X1.600000*%
%TD*%
%TA.AperFunction,ComponentPad*%
%ADD12C,3.000000*%
%TD*%
%TA.AperFunction,ComponentPad*%
%ADD13O,2.500000X2.500000*%
%TD*%
%TA.AperFunction,ComponentPad*%
%ADD14R,2.500000X2.500000*%
%TD*%
%TA.AperFunction,ComponentPad*%
%ADD15C,1.524000*%
%TD*%
%TA.AperFunction,ComponentPad*%
%ADD16O,1.600000X1.600000*%
%TD*%
%TA.AperFunction,ComponentPad*%
%ADD17C,1.800000*%
%TD*%
%TA.AperFunction,ComponentPad*%
%ADD18R,1.800000X1.800000*%
%TD*%
%TA.AperFunction,ComponentPad*%
%ADD19O,1.700000X2.000000*%
%TD*%
%TA.AperFunction,ComponentPad*%
%ADD20O,2.000000X1.700000*%
%TD*%
%TA.AperFunction,ComponentPad*%
%ADD21C,2.400000*%
%TD*%
%TA.AperFunction,ComponentPad*%
%ADD22R,2.400000X2.400000*%
%TD*%
%TA.AperFunction,ComponentPad*%
%ADD23R,2.200000X2.200000*%
%TD*%
%TA.AperFunction,ComponentPad*%
%ADD24O,2.200000X2.200000*%
%TD*%
%TA.AperFunction,ComponentPad*%
%ADD25C,1.400000*%
%TD*%
%TA.AperFunction,ViaPad*%
%ADD26C,0.800000*%
%TD*%
%TA.AperFunction,Conductor*%
%ADD27C,0.250000*%
%TD*%
%TA.AperFunction,Conductor*%
%ADD28C,3.000000*%
%TD*%
%TA.AperFunction,Conductor*%
%ADD29C,1.750000*%
%TD*%
%TA.AperFunction,Conductor*%
%ADD30C,0.500000*%
%TD*%
%TA.AperFunction,Conductor*%
%ADD31C,2.000000*%
%TD*%
%TA.AperFunction,Conductor*%
%ADD32C,0.254000*%
%TD*%
G04 APERTURE END LIST*
D10*
%TO.P,J22,8*%
%TO.N,Net-(J22-Pad8)*%
X182880000Y-92190000D03*
%TO.P,J22,7*%
%TO.N,Net-(J22-Pad7)*%
X185420000Y-93210000D03*
%TO.P,J22,6*%
%TO.N,/PD4*%
X182880000Y-94230000D03*
%TO.P,J22,5*%
%TO.N,Net-(J22-Pad5)*%
X185420000Y-95250000D03*
%TO.P,J22,4*%
%TO.N,Net-(J22-Pad4)*%
X182880000Y-96270000D03*
%TO.P,J22,3*%
%TO.N,/PD3*%
X185420000Y-97290000D03*
%TO.P,J22,2*%
%TO.N,/PD2*%
X182880000Y-98310000D03*
D11*
%TO.P,J22,1*%
%TO.N,/PD1*%
X185420000Y-99330000D03*
D12*
%TO.P,J22,*%
%TO.N,*%
X185420000Y-103375000D03*
X185420000Y-87125000D03*
%TD*%
D10*
%TO.P,J21,8*%
%TO.N,/PD_GND*%
X182880000Y-71870000D03*
%TO.P,J21,7*%
X185420000Y-72890000D03*
%TO.P,J21,6*%
%TO.N,/PD4*%
X182880000Y-73910000D03*
%TO.P,J21,5*%
%TO.N,/PD_PWR*%
X185420000Y-74930000D03*
%TO.P,J21,4*%
X182880000Y-75950000D03*
%TO.P,J21,3*%
%TO.N,/PD3*%
X185420000Y-76970000D03*
%TO.P,J21,2*%
%TO.N,/PD2*%
X182880000Y-77990000D03*
D11*
%TO.P,J21,1*%
%TO.N,/PD1*%
X185420000Y-79010000D03*
D12*
%TO.P,J21,*%
%TO.N,*%
X185420000Y-83055000D03*
X185420000Y-66805000D03*
%TD*%
D13*
%TO.P,K21,5*%
%TO.N,Net-(D22-Pad1)*%
X194786000Y-95600000D03*
%TO.P,K21,4*%
%TO.N,Net-(D23-Pad2)*%
X206986000Y-95600000D03*
%TO.P,K21,3*%
%TO.N,Net-(K21-Pad3)*%
X206986000Y-107600000D03*
%TO.P,K21,2*%
%TO.N,/PD_GND*%
X194786000Y-107600000D03*
D14*
%TO.P,K21,1*%
%TO.N,Net-(F21-Pad2)*%
X192786000Y-101600000D03*
%TD*%
D15*
%TO.P,FL21,1*%
%TO.N,Net-(D23-Pad2)*%
X219710000Y-93980000D03*
%TO.P,FL21,2*%
%TO.N,/PD_GND*%
X219710000Y-96520000D03*
%TO.P,FL21,3*%
%TO.N,Net-(CN22-Pad1)*%
X219710000Y-99060000D03*
%TD*%
D16*
%TO.P,R22,2*%
%TO.N,/PD_GND*%
X226060000Y-90170000D03*
D10*
%TO.P,R22,1*%
%TO.N,Net-(D23-Pad1)*%
X226060000Y-80010000D03*
%TD*%
D17*
%TO.P,D23,2*%
%TO.N,Net-(D23-Pad2)*%
X228600000Y-95250000D03*
D18*
%TO.P,D23,1*%
%TO.N,Net-(D23-Pad1)*%
X226060000Y-95250000D03*
%TD*%
D19*
%TO.P,CN22,2*%
%TO.N,/PD_GND*%
X217210000Y-107188000D03*
%TO.P,CN22,1*%
%TO.N,Net-(CN22-Pad1)*%
%TA.AperFunction,ComponentPad*%
G36*
G01*
X220560000Y-106438000D02*
X220560000Y-107938000D01*
G75*
G02*
X220310000Y-108188000I-250000J0D01*
G01*
X219110000Y-108188000D01*
G75*
G02*
X218860000Y-107938000I0J250000D01*
G01*
X218860000Y-106438000D01*
G75*
G02*
X219110000Y-106188000I250000J0D01*
G01*
X220310000Y-106188000D01*
G75*
G02*
X220560000Y-106438000I0J-250000D01*
G01*
G37*
%TD.AperFunction*%
%TD*%
D20*
%TO.P,CN21,2*%
%TO.N,Net-(C21-Pad2)*%
X225806000Y-72366500D03*
%TO.P,CN21,1*%
%TO.N,Net-(CN21-Pad1)*%
%TA.AperFunction,ComponentPad*%
G36*
G01*
X226556000Y-75716500D02*
X225056000Y-75716500D01*
G75*
G02*
X224806000Y-75466500I0J250000D01*
G01*
X224806000Y-74266500D01*
G75*
G02*
X225056000Y-74016500I250000J0D01*
G01*
X226556000Y-74016500D01*
G75*
G02*
X226806000Y-74266500I0J-250000D01*
G01*
X226806000Y-75466500D01*
G75*
G02*
X226556000Y-75716500I-250000J0D01*
G01*
G37*
%TD.AperFunction*%
%TD*%
D17*
%TO.P,RV21,2*%
%TO.N,/PD_PWR*%
X194430000Y-63370000D03*
%TO.P,RV21,1*%
%TO.N,/PD_GND*%
X201930000Y-64770000D03*
%TD*%
D16*
%TO.P,R21,2*%
%TO.N,Net-(R21-Pad2)*%
X212090000Y-80010000D03*
D10*
%TO.P,R21,1*%
%TO.N,Net-(C21-Pad1)*%
X212090000Y-90170000D03*
%TD*%
D21*
%TO.P,C21,2*%
%TO.N,Net-(C21-Pad2)*%
X213868000Y-64890000D03*
D22*
%TO.P,C21,1*%
%TO.N,Net-(C21-Pad1)*%
X213868000Y-72390000D03*
%TD*%
D23*
%TO.P,D21,1*%
%TO.N,Net-(C21-Pad1)*%
X219710000Y-90170000D03*
D24*
%TO.P,D21,2*%
%TO.N,Net-(CN21-Pad1)*%
X219710000Y-80010000D03*
%TD*%
%TO.P,D22,2*%
%TO.N,/PD_GND*%
X207010000Y-80010000D03*
D23*
%TO.P,D22,1*%
%TO.N,Net-(D22-Pad1)*%
X207010000Y-90170000D03*
%TD*%
D25*
%TO.P,F21,1*%
%TO.N,/PD_PWR*%
X195580000Y-70662800D03*
%TO.P,F21,2*%
%TO.N,Net-(F21-Pad2)*%
X200680000Y-72462800D03*
%TD*%
D11*
%TO.P,U21,1*%
%TO.N,Net-(R21-Pad2)*%
X200660000Y-80010000D03*
D16*
%TO.P,U21,3*%
%TO.N,Net-(D22-Pad1)*%
X198120000Y-87630000D03*
%TO.P,U21,2*%
%TO.N,Net-(C21-Pad2)*%
X198120000Y-80010000D03*
%TO.P,U21,4*%
%TO.N,/PD_PWR*%
X200660000Y-87630000D03*
%TD*%
D26*
%TO.N,Net-(F21-Pad2)*%
X192024000Y-91186000D03*
X192024000Y-91186000D03*
X192024000Y-98044000D03*
X191008000Y-92456000D03*
X191008000Y-93726000D03*
X191008000Y-97028000D03*
X191008000Y-95504000D03*
X194310000Y-74930000D03*
X192087500Y-77152500D03*
X199136000Y-74930000D03*
X192024000Y-80391000D03*
X192024000Y-83566000D03*
X192024000Y-87376000D03*
%TO.N,/PD3*%
X188976000Y-97282000D03*
%TO.N,/PD2*%
X177546000Y-77978000D03*
%TO.N,Net-(D23-Pad2)*%
X211740000Y-95600000D03*
X213018698Y-95591302D03*
X214630000Y-95250000D03*
X215900000Y-93980000D03*
X217170000Y-93980000D03*
X209895804Y-95595804D03*
%TO.N,/PD_PWR*%
X194310000Y-66040000D03*
X194310000Y-67310000D03*
X194310000Y-68580000D03*
X193040000Y-69850000D03*
X191770000Y-69850000D03*
X190500000Y-69850000D03*
X189230000Y-69850000D03*
X189230000Y-71120000D03*
X189230000Y-72390000D03*
X189230000Y-73660000D03*
X187960000Y-74930000D03*
%TD*%
D27*
%TO.N,Net-(D22-Pad1)*%
X198337720Y-87839579D02*
X198337720Y-89109579D01*
X199644000Y-90424000D02*
X207264000Y-90424000D01*
X198351683Y-89133495D02*
X199621683Y-90403495D01*
X198120000Y-93980000D02*
X194786000Y-95600000D01*
X198120000Y-87884000D02*
X198120000Y-93980000D01*
D28*
%TO.N,Net-(F21-Pad2)*%
X200660000Y-72462800D02*
X200660000Y-73640000D01*
X200572628Y-73704587D02*
X199282628Y-74994587D01*
X199136000Y-74930000D02*
X199136000Y-74930000D01*
X194686827Y-74978574D02*
X193887701Y-75777701D01*
X192024000Y-77470000D02*
X192024000Y-77470000D01*
X193887701Y-75777701D02*
X192617701Y-77047701D01*
D29*
X192617701Y-77047701D02*
X192146827Y-77518574D01*
D28*
X192024000Y-77470000D02*
X192024000Y-80391000D01*
D29*
X192024000Y-98044000D02*
X192786000Y-101600000D01*
X191008000Y-97028000D02*
X191008000Y-95504000D01*
X191008000Y-95504000D02*
X191008000Y-93726000D01*
X191008000Y-93726000D02*
X191008000Y-92456000D01*
D28*
X199136000Y-74930000D02*
X195326000Y-74930000D01*
X192024000Y-80391000D02*
X192024000Y-83566000D01*
X192024000Y-83566000D02*
X192024000Y-87376000D01*
X192024000Y-87376000D02*
X192024000Y-91186000D01*
D27*
%TO.N,/PD1*%
X186572400Y-99330000D02*
X185420000Y-99330000D01*
X187426600Y-98475800D02*
X186572400Y-99330000D01*
X187426600Y-80391000D02*
X187426600Y-98475800D01*
X185420000Y-79010000D02*
X186045600Y-79010000D01*
X186045600Y-79010000D02*
X187426600Y-80391000D01*
%TO.N,/PD3*%
X188798200Y-97282000D02*
X188798200Y-97282000D01*
X188798200Y-78968600D02*
X188798200Y-97282000D01*
X185420000Y-76970000D02*
X186690000Y-76970000D01*
X186690000Y-76970000D02*
X188798200Y-78968600D01*
%TO.N,/PD2*%
X182626000Y-98298000D02*
X177292000Y-92964000D01*
X177292000Y-92976000D02*
X177292000Y-78740000D01*
X177546000Y-78486000D02*
X177292000Y-78740000D01*
X177546000Y-77978000D02*
X177546000Y-78486000D01*
%TO.N,/PD4*%
X182757000Y-94230000D02*
X180340000Y-94230000D01*
X180340000Y-94230000D02*
X178439000Y-92329000D01*
X180725000Y-73910000D02*
X182880000Y-73910000D01*
X178492521Y-76059881D02*
X180655521Y-73896881D01*
X178480616Y-92306702D02*
X178480616Y-76029580D01*
D29*
%TO.N,Net-(CN22-Pad1)*%
X219710000Y-99060000D02*
X219710000Y-107188000D01*
%TO.N,Net-(D23-Pad2)*%
X215900000Y-93980000D02*
X219710000Y-93980000D01*
X214280000Y-95600000D02*
X215900000Y-93980000D01*
X213018698Y-95591302D02*
X214342088Y-95591302D01*
X206986000Y-95600000D02*
X209895804Y-95595804D01*
X209895804Y-95595804D02*
X213018698Y-95591302D01*
D30*
%TO.N,/PD_PWR*%
X182880000Y-75950000D02*
X185420000Y-74930000D01*
D28*
X194310000Y-69799200D02*
X195580000Y-70612000D01*
X189230000Y-69850000D02*
X190500000Y-69850000D01*
X194356440Y-68833585D02*
X194356440Y-67563585D01*
X192786000Y-69850000D02*
X194056000Y-69850000D01*
X191262000Y-69850000D02*
X192532000Y-69850000D01*
D29*
X189230000Y-69850000D02*
X190500000Y-69850000D01*
D28*
X188976000Y-69850000D02*
X188976000Y-71120000D01*
X188976000Y-71120000D02*
X188976000Y-72390000D01*
X188976000Y-72390000D02*
X188976000Y-73660000D01*
D31*
X188976000Y-73660000D02*
X187706000Y-74930000D01*
D29*
X187960000Y-74930000D02*
X185420000Y-74930000D01*
D27*
X195122800Y-69850000D02*
X194310000Y-70662800D01*
X202438000Y-69850000D02*
X195122800Y-69850000D01*
X203708000Y-72136000D02*
X202438000Y-69850000D01*
X200660000Y-87630000D02*
X203708000Y-85090000D01*
X203708000Y-85090000D02*
X203708000Y-72136000D01*
D28*
X194310000Y-67310000D02*
X194294813Y-63657778D01*
%TD*%
D32*
%TO.N,/PD_GND*%
G36*
X231725000Y-112345000D02*
G01*
X177215000Y-112345000D01*
X177215000Y-108739872D01*
X178105000Y-108739872D01*
X178105000Y-109180128D01*
X178190890Y-109611925D01*
X178359369Y-110018669D01*
X178603962Y-110384729D01*
X178915271Y-110696038D01*
X179281331Y-110940631D01*
X179688075Y-111109110D01*
X180119872Y-111195000D01*
X180560128Y-111195000D01*
X180991925Y-111109110D01*
X181398669Y-110940631D01*
X181764729Y-110696038D01*
X182076038Y-110384729D01*
X182320631Y-110018669D01*
X182489110Y-109611925D01*
X182575000Y-109180128D01*
X182575000Y-108739872D01*
X182489110Y-108308075D01*
X182369639Y-108019646D01*
X192948301Y-108019646D01*
X193065481Y-108370100D01*
X193248779Y-108690959D01*
X193491152Y-108969893D01*
X193783285Y-109196183D01*
X194113952Y-109361133D01*
X194366355Y-109437695D01*
X194659000Y-109321572D01*
X194659000Y-107727000D01*
X194913000Y-107727000D01*
X194913000Y-109321572D01*
X195205645Y-109437695D01*
X195458048Y-109361133D01*
X195788715Y-109196183D01*
X196080848Y-108969893D01*
X196323221Y-108690959D01*
X196506519Y-108370100D01*
X196623699Y-108019646D01*
X196507971Y-107727000D01*
X194913000Y-107727000D01*
X194659000Y-107727000D01*
X193064029Y-107727000D01*
X192948301Y-108019646D01*
X182369639Y-108019646D01*
X182320631Y-107901331D01*
X182076038Y-107535271D01*
X181764729Y-107223962D01*
X181699465Y-107180354D01*
X192948301Y-107180354D01*
X193064029Y-107473000D01*
X194659000Y-107473000D01*
X194659000Y-105878428D01*
X194913000Y-105878428D01*
X194913000Y-107473000D01*
X196507971Y-107473000D01*
X196531166Y-107414344D01*
X205101000Y-107414344D01*
X205101000Y-107785656D01*
X205173439Y-108149834D01*
X205315534Y-108492882D01*
X205521825Y-108801618D01*
X205784382Y-109064175D01*
X206093118Y-109270466D01*
X206436166Y-109412561D01*
X206800344Y-109485000D01*
X207171656Y-109485000D01*
X207535834Y-109412561D01*
X207878882Y-109270466D01*
X208187618Y-109064175D01*
X208450175Y-108801618D01*
X208656466Y-108492882D01*
X208798561Y-108149834D01*
X208871000Y-107785656D01*
X208871000Y-107547742D01*
X215738715Y-107547742D01*
X215807904Y-107830745D01*
X215930975Y-108094812D01*
X216103198Y-108329795D01*
X216317954Y-108526664D01*
X216566991Y-108677854D01*
X216840739Y-108777554D01*
X216853110Y-108779476D01*
X217083000Y-108658155D01*
X217083000Y-107315000D01*
X215882768Y-107315000D01*
X215738715Y-107547742D01*
X208871000Y-107547742D01*
X208871000Y-107414344D01*
X208798561Y-107050166D01*
X208706644Y-106828258D01*
X215738715Y-106828258D01*
X215882768Y-107061000D01*
X217083000Y-107061000D01*
X217083000Y-105717845D01*
X217337000Y-105717845D01*
X217337000Y-107061000D01*
X217357000Y-107061000D01*
X217357000Y-107315000D01*
X217337000Y-107315000D01*
X217337000Y-108658155D01*
X217566890Y-108779476D01*
X217579261Y-108777554D01*
X217853009Y-108677854D01*
X218102046Y-108526664D01*
X218316802Y-108329795D01*
X218317086Y-108329407D01*
X218371595Y-108431386D01*
X218482038Y-108565962D01*
X218616614Y-108676405D01*
X218770150Y-108758472D01*
X218936746Y-108809008D01*
X219110000Y-108826072D01*
X220310000Y-108826072D01*
X220483254Y-108809008D01*
X220649850Y-108758472D01*
X220684648Y-108739872D01*
X226105000Y-108739872D01*
X226105000Y-109180128D01*
X226190890Y-109611925D01*
X226359369Y-110018669D01*
X226603962Y-110384729D01*
X226915271Y-110696038D01*
X227281331Y-110940631D01*
X227688075Y-111109110D01*
X228119872Y-111195000D01*
X228560128Y-111195000D01*
X228991925Y-111109110D01*
X229398669Y-110940631D01*
X229764729Y-110696038D01*
X230076038Y-110384729D01*
X230320631Y-110018669D01*
X230489110Y-109611925D01*
X230575000Y-109180128D01*
X230575000Y-108739872D01*
X230489110Y-108308075D01*
X230320631Y-107901331D01*
X230076038Y-107535271D01*
X229764729Y-107223962D01*
X229398669Y-106979369D01*
X228991925Y-106810890D01*
X228560128Y-106725000D01*
X228119872Y-106725000D01*
X227688075Y-106810890D01*
X227281331Y-106979369D01*
X226915271Y-107223962D01*
X226603962Y-107535271D01*
X226359369Y-107901331D01*
X226190890Y-108308075D01*
X226105000Y-108739872D01*
X220684648Y-108739872D01*
X220803386Y-108676405D01*
X220937962Y-108565962D01*
X221048405Y-108431386D01*
X221130472Y-108277850D01*
X221181008Y-108111254D01*
X221198072Y-107938000D01*
X221198072Y-107484272D01*
X221198151Y-107484012D01*
X221220000Y-107262178D01*
X221220000Y-98985822D01*
X221198151Y-98763988D01*
X221111808Y-98479352D01*
X220971594Y-98217030D01*
X220782897Y-97987103D01*
X220552969Y-97798406D01*
X220422922Y-97728894D01*
X220428980Y-97725656D01*
X220495960Y-97485565D01*
X219710000Y-96699605D01*
X218924040Y-97485565D01*
X218991020Y-97725656D01*
X218997465Y-97728687D01*
X218867030Y-97798406D01*
X218637103Y-97987103D01*
X218448406Y-98217031D01*
X218308192Y-98479353D01*
X218221849Y-98763989D01*
X218200000Y-98985823D01*
X218200001Y-105939132D01*
X218102046Y-105849336D01*
X217853009Y-105698146D01*
X217579261Y-105598446D01*
X217566890Y-105596524D01*
X217337000Y-105717845D01*
X217083000Y-105717845D01*
X216853110Y-105596524D01*
X216840739Y-105598446D01*
X216566991Y-105698146D01*
X216317954Y-105849336D01*
X216103198Y-106046205D01*
X215930975Y-106281188D01*
X215807904Y-106545255D01*
X215738715Y-106828258D01*
X208706644Y-106828258D01*
X208656466Y-106707118D01*
X208450175Y-106398382D01*
X208187618Y-106135825D01*
X207878882Y-105929534D01*
X207535834Y-105787439D01*
X207171656Y-105715000D01*
X206800344Y-105715000D01*
X206436166Y-105787439D01*
X206093118Y-105929534D01*
X205784382Y-106135825D01*
X205521825Y-106398382D01*
X205315534Y-106707118D01*
X205173439Y-107050166D01*
X205101000Y-107414344D01*
X196531166Y-107414344D01*
X196623699Y-107180354D01*
X196506519Y-106829900D01*
X196323221Y-106509041D01*
X196080848Y-106230107D01*
X195788715Y-106003817D01*
X195458048Y-105838867D01*
X195205645Y-105762305D01*
X194913000Y-105878428D01*
X194659000Y-105878428D01*
X194366355Y-105762305D01*
X194113952Y-105838867D01*
X193783285Y-106003817D01*
X193491152Y-106230107D01*
X193248779Y-106509041D01*
X193065481Y-106829900D01*
X192948301Y-107180354D01*
X181699465Y-107180354D01*
X181398669Y-106979369D01*
X180991925Y-106810890D01*
X180560128Y-106725000D01*
X180119872Y-106725000D01*
X179688075Y-106810890D01*
X179281331Y-106979369D01*
X178915271Y-107223962D01*
X178603962Y-107535271D01*
X178359369Y-107901331D01*
X178190890Y-108308075D01*
X178105000Y-108739872D01*
X177215000Y-108739872D01*
X177215000Y-102469268D01*
X178745000Y-102469268D01*
X178745000Y-102830732D01*
X178815518Y-103185250D01*
X178953844Y-103519199D01*
X179154662Y-103819744D01*
X179410256Y-104075338D01*
X179710801Y-104276156D01*
X180044750Y-104414482D01*
X180399268Y-104485000D01*
X180760732Y-104485000D01*
X181115250Y-104414482D01*
X181449199Y-104276156D01*
X181749744Y-104075338D01*
X182005338Y-103819744D01*
X182206156Y-103519199D01*
X182344482Y-103185250D01*
X182348565Y-103164721D01*
X183285000Y-103164721D01*
X183285000Y-103585279D01*
X183367047Y-103997756D01*
X183527988Y-104386302D01*
X183761637Y-104735983D01*
X184059017Y-105033363D01*
X184408698Y-105267012D01*
X184797244Y-105427953D01*
X185209721Y-105510000D01*
X185630279Y-105510000D01*
X186042756Y-105427953D01*
X186431302Y-105267012D01*
X186780983Y-105033363D01*
X187078363Y-104735983D01*
X187312012Y-104386302D01*
X187472953Y-103997756D01*
X187555000Y-103585279D01*
X187555000Y-103164721D01*
X187472953Y-102752244D01*
X187312012Y-102363698D01*
X187078363Y-102014017D01*
X186780983Y-101716637D01*
X186431302Y-101482988D01*
X186042756Y-101322047D01*
X185630279Y-101240000D01*
X185209721Y-101240000D01*
X184797244Y-101322047D01*
X184408698Y-101482988D01*
X184059017Y-101716637D01*
X183761637Y-102014017D01*
X183527988Y-102363698D01*
X183367047Y-102752244D01*
X183285000Y-103164721D01*
X182348565Y-103164721D01*
X182415000Y-102830732D01*
X182415000Y-102469268D01*
X182344482Y-102114750D01*
X182206156Y-101780801D01*
X182005338Y-101480256D01*
X181749744Y-101224662D01*
X181449199Y-101023844D01*
X181115250Y-100885518D01*
X180760732Y-100815000D01*
X180399268Y-100815000D01*
X180044750Y-100885518D01*
X179710801Y-101023844D01*
X179410256Y-101224662D01*
X179154662Y-101480256D01*
X178953844Y-101780801D01*
X178815518Y-102114750D01*
X178745000Y-102469268D01*
X177215000Y-102469268D01*
X177215000Y-93961801D01*
X181445000Y-98191802D01*
X181445000Y-98451335D01*
X181500147Y-98728574D01*
X181608320Y-98989727D01*
X181765363Y-99224759D01*
X181965241Y-99424637D01*
X182200273Y-99581680D01*
X182461426Y-99689853D01*
X182738665Y-99745000D01*
X183021335Y-99745000D01*
X183298574Y-99689853D01*
X183559727Y-99581680D01*
X183794759Y-99424637D01*
X183981928Y-99237468D01*
X183981928Y-100130000D01*
X183994188Y-100254482D01*
X184030498Y-100374180D01*
X184089463Y-100484494D01*
X184168815Y-100581185D01*
X184265506Y-100660537D01*
X184375820Y-100719502D01*
X184495518Y-100755812D01*
X184620000Y-100768072D01*
X186220000Y-100768072D01*
X186344482Y-100755812D01*
X186464180Y-100719502D01*
X186574494Y-100660537D01*
X186671185Y-100581185D01*
X186750537Y-100484494D01*
X186809502Y-100374180D01*
X186845812Y-100254482D01*
X186858072Y-100130000D01*
X186858072Y-100037540D01*
X186864647Y-100035546D01*
X186996676Y-99964974D01*
X187112401Y-99870001D01*
X187136203Y-99840998D01*
X187937603Y-99039599D01*
X187966601Y-99015801D01*
X188061574Y-98900076D01*
X188132146Y-98768047D01*
X188175603Y-98624786D01*
X188186600Y-98513133D01*
X188186600Y-98513124D01*
X188190276Y-98475801D01*
X188186600Y-98438478D01*
X188186600Y-97956311D01*
X188316226Y-98085937D01*
X188485744Y-98199205D01*
X188674102Y-98277226D01*
X188874061Y-98317000D01*
X189077939Y-98317000D01*
X189277898Y-98277226D01*
X189466256Y-98199205D01*
X189635774Y-98085937D01*
X189779937Y-97941774D01*
X189790967Y-97925267D01*
X189935103Y-98100897D01*
X190165030Y-98289594D01*
X190427352Y-98429808D01*
X190571782Y-98473620D01*
X190931872Y-100154037D01*
X190910188Y-100225518D01*
X190897928Y-100350000D01*
X190897928Y-102850000D01*
X190910188Y-102974482D01*
X190946498Y-103094180D01*
X191005463Y-103204494D01*
X191084815Y-103301185D01*
X191181506Y-103380537D01*
X191291820Y-103439502D01*
X191411518Y-103475812D01*
X191536000Y-103488072D01*
X194036000Y-103488072D01*
X194160482Y-103475812D01*
X194280180Y-103439502D01*
X194390494Y-103380537D01*
X194487185Y-103301185D01*
X194566537Y-103204494D01*
X194625502Y-103094180D01*
X194661812Y-102974482D01*
X194674072Y-102850000D01*
X194674072Y-100350000D01*
X194661812Y-100225518D01*
X194625502Y-100105820D01*
X194566537Y-99995506D01*
X194487185Y-99898815D01*
X194390494Y-99819463D01*
X194280180Y-99760498D01*
X194160482Y-99724188D01*
X194036000Y-99711928D01*
X193925692Y-99711928D01*
X193484939Y-97655080D01*
X193417094Y-97442748D01*
X193273028Y-97182522D01*
X193080962Y-96955402D01*
X192848278Y-96770116D01*
X192583917Y-96633784D01*
X192518000Y-96614845D01*
X192518000Y-93267215D01*
X192844982Y-93168026D01*
X193215881Y-92969777D01*
X193540977Y-92702977D01*
X193807777Y-92377881D01*
X194006026Y-92006982D01*
X194128108Y-91604533D01*
X194159000Y-91290882D01*
X194159000Y-79868665D01*
X196685000Y-79868665D01*
X196685000Y-80151335D01*
X196740147Y-80428574D01*
X196848320Y-80689727D01*
X197005363Y-80924759D01*
X197205241Y-81124637D01*
X197440273Y-81281680D01*
X197701426Y-81389853D01*
X197978665Y-81445000D01*
X198261335Y-81445000D01*
X198538574Y-81389853D01*
X198799727Y-81281680D01*
X199034759Y-81124637D01*
X199233357Y-80926039D01*
X199234188Y-80934482D01*
X199270498Y-81054180D01*
X199329463Y-81164494D01*
X199408815Y-81261185D01*
X199505506Y-81340537D01*
X199615820Y-81399502D01*
X199735518Y-81435812D01*
X199860000Y-81448072D01*
X201460000Y-81448072D01*
X201584482Y-81435812D01*
X201704180Y-81399502D01*
X201814494Y-81340537D01*
X201911185Y-81261185D01*
X201990537Y-81164494D01*
X202049502Y-81054180D01*
X202085812Y-80934482D01*
X202098072Y-80810000D01*
X202098072Y-79210000D01*
X202085812Y-79085518D01*
X202049502Y-78965820D01*
X201990537Y-78855506D01*
X201911185Y-78758815D01*
X201814494Y-78679463D01*
X201704180Y-78620498D01*
X201584482Y-78584188D01*
X201460000Y-78571928D01*
X199860000Y-78571928D01*
X199735518Y-78584188D01*
X199615820Y-78620498D01*
X199505506Y-78679463D01*
X199408815Y-78758815D01*
X199329463Y-78855506D01*
X199270498Y-78965820D01*
X199234188Y-79085518D01*
X199233357Y-79093961D01*
X199034759Y-78895363D01*
X198799727Y-78738320D01*
X198538574Y-78630147D01*
X198261335Y-78575000D01*
X197978665Y-78575000D01*
X197701426Y-78630147D01*
X197440273Y-78738320D01*
X197205241Y-78895363D01*
X197005363Y-79095241D01*
X196848320Y-79330273D01*
X196740147Y-79591426D01*
X196685000Y-79868665D01*
X194159000Y-79868665D01*
X194159000Y-78525747D01*
X195471536Y-77213211D01*
X195471537Y-77213209D01*
X195619746Y-77065000D01*
X198753021Y-77065000D01*
X198864095Y-77098694D01*
X199282628Y-77139916D01*
X199701161Y-77098694D01*
X200103610Y-76976612D01*
X200474509Y-76778363D01*
X200718138Y-76578422D01*
X201968444Y-75328116D01*
X202176977Y-75156977D01*
X202443777Y-74831881D01*
X202642026Y-74460981D01*
X202764108Y-74058532D01*
X202795000Y-73744881D01*
X202795000Y-72357918D01*
X202764108Y-72044267D01*
X202735819Y-71951010D01*
X202948001Y-72332939D01*
X202948000Y-84734035D01*
X201112034Y-86264007D01*
X201078574Y-86250147D01*
X200801335Y-86195000D01*
X200518665Y-86195000D01*
X200241426Y-86250147D01*
X199980273Y-86358320D01*
X199745241Y-86515363D01*
X199545363Y-86715241D01*
X199390000Y-86947759D01*
X199234637Y-86715241D01*
X199034759Y-86515363D01*
X198799727Y-86358320D01*
X198538574Y-86250147D01*
X198261335Y-86195000D01*
X197978665Y-86195000D01*
X197701426Y-86250147D01*
X197440273Y-86358320D01*
X197205241Y-86515363D01*
X197005363Y-86715241D01*
X196848320Y-86950273D01*
X196740147Y-87211426D01*
X196685000Y-87488665D01*
X196685000Y-87771335D01*
X196740147Y-88048574D01*
X196848320Y-88309727D01*
X197005363Y-88544759D01*
X197205241Y-88744637D01*
X197360000Y-88848044D01*
X197360001Y-93504317D01*
X196011400Y-94159607D01*
X195987618Y-94135825D01*
X195678882Y-93929534D01*
X195335834Y-93787439D01*
X194971656Y-93715000D01*
X194600344Y-93715000D01*
X194236166Y-93787439D01*
X193893118Y-93929534D01*
X193584382Y-94135825D01*
X193321825Y-94398382D01*
X193115534Y-94707118D01*
X192973439Y-95050166D01*
X192901000Y-95414344D01*
X192901000Y-95785656D01*
X192973439Y-96149834D01*
X193115534Y-96492882D01*
X193321825Y-96801618D01*
X193584382Y-97064175D01*
X193893118Y-97270466D01*
X194236166Y-97412561D01*
X194600344Y-97485000D01*
X194971656Y-97485000D01*
X195335834Y-97412561D01*
X195678882Y-97270466D01*
X195987618Y-97064175D01*
X196250175Y-96801618D01*
X196456466Y-96492882D01*
X196598561Y-96149834D01*
X196671000Y-95785656D01*
X196671000Y-95529042D01*
X196907051Y-95414344D01*
X205101000Y-95414344D01*
X205101000Y-95785656D01*
X205173439Y-96149834D01*
X205315534Y-96492882D01*
X205521825Y-96801618D01*
X205784382Y-97064175D01*
X206093118Y-97270466D01*
X206436166Y-97412561D01*
X206800344Y-97485000D01*
X207171656Y-97485000D01*
X207535834Y-97412561D01*
X207878882Y-97270466D01*
X208121485Y-97108364D01*
X209823802Y-97105909D01*
X209823803Y-97105909D01*
X213019444Y-97101302D01*
X214117516Y-97101302D01*
X214280000Y-97117305D01*
X214576011Y-97088151D01*
X214588619Y-97084327D01*
X214638100Y-97079453D01*
X214922736Y-96993110D01*
X215185058Y-96852896D01*
X215414985Y-96664199D01*
X215474223Y-96592017D01*
X218308090Y-96592017D01*
X218349078Y-96864133D01*
X218442364Y-97123023D01*
X218504344Y-97238980D01*
X218744435Y-97305960D01*
X219530395Y-96520000D01*
X219889605Y-96520000D01*
X220675565Y-97305960D01*
X220915656Y-97238980D01*
X221032756Y-96989952D01*
X221099023Y-96722865D01*
X221111910Y-96447983D01*
X221070922Y-96175867D01*
X220977636Y-95916977D01*
X220915656Y-95801020D01*
X220675565Y-95734040D01*
X219889605Y-96520000D01*
X219530395Y-96520000D01*
X218744435Y-95734040D01*
X218504344Y-95801020D01*
X218387244Y-96050048D01*
X218320977Y-96317135D01*
X218308090Y-96592017D01*
X215474223Y-96592017D01*
X215603682Y-96434272D01*
X215629509Y-96385953D01*
X216525463Y-95490000D01*
X218942016Y-95490000D01*
X218924040Y-95554435D01*
X219710000Y-96340395D01*
X220495960Y-95554435D01*
X220428980Y-95314344D01*
X220422535Y-95311313D01*
X220552970Y-95241594D01*
X220782897Y-95052897D01*
X220971594Y-94822970D01*
X221111808Y-94560648D01*
X221175707Y-94350000D01*
X224521928Y-94350000D01*
X224521928Y-96150000D01*
X224534188Y-96274482D01*
X224570498Y-96394180D01*
X224629463Y-96504494D01*
X224708815Y-96601185D01*
X224805506Y-96680537D01*
X224915820Y-96739502D01*
X225035518Y-96775812D01*
X225160000Y-96788072D01*
X226960000Y-96788072D01*
X227084482Y-96775812D01*
X227204180Y-96739502D01*
X227314494Y-96680537D01*
X227411185Y-96601185D01*
X227490537Y-96504494D01*
X227549502Y-96394180D01*
X227555056Y-96375873D01*
X227621495Y-96442312D01*
X227872905Y-96610299D01*
X228152257Y-96726011D01*
X228448816Y-96785000D01*
X228751184Y-96785000D01*
X229047743Y-96726011D01*
X229327095Y-96610299D01*
X229578505Y-96442312D01*
X229792312Y-96228505D01*
X229960299Y-95977095D01*
X230076011Y-95697743D01*
X230135000Y-95401184D01*
X230135000Y-95098816D01*
X230076011Y-94802257D01*
X229960299Y-94522905D01*
X229792312Y-94271495D01*
X229578505Y-94057688D01*
X229327095Y-93889701D01*
X229047743Y-93773989D01*
X228751184Y-93715000D01*
X228448816Y-93715000D01*
X228152257Y-93773989D01*
X227872905Y-93889701D01*
X227621495Y-94057688D01*
X227555056Y-94124127D01*
X227549502Y-94105820D01*
X227490537Y-93995506D01*
X227411185Y-93898815D01*
X227314494Y-93819463D01*
X227204180Y-93760498D01*
X227084482Y-93724188D01*
X226960000Y-93711928D01*
X225160000Y-93711928D01*
X225035518Y-93724188D01*
X224915820Y-93760498D01*
X224805506Y-93819463D01*
X224708815Y-93898815D01*
X224629463Y-93995506D01*
X224570498Y-94105820D01*
X224534188Y-94225518D01*
X224521928Y-94350000D01*
X221175707Y-94350000D01*
X221198151Y-94276012D01*
X221227306Y-93980000D01*
X221198151Y-93683988D01*
X221111808Y-93399352D01*
X220971594Y-93137030D01*
X220782897Y-92907103D01*
X220552970Y-92718406D01*
X220290648Y-92578192D01*
X220006012Y-92491849D01*
X219784178Y-92470000D01*
X215974170Y-92470000D01*
X215900000Y-92462695D01*
X215825829Y-92470000D01*
X215825822Y-92470000D01*
X215603988Y-92491849D01*
X215319352Y-92578192D01*
X215057030Y-92718406D01*
X214968055Y-92791426D01*
X214884720Y-92859817D01*
X214884716Y-92859821D01*
X214827103Y-92907103D01*
X214779821Y-92964716D01*
X213663236Y-94081302D01*
X213091780Y-94081302D01*
X213090698Y-94081197D01*
X213017865Y-94081302D01*
X212944520Y-94081302D01*
X212943430Y-94081409D01*
X209967805Y-94085699D01*
X209967804Y-94085699D01*
X208116594Y-94088369D01*
X207878882Y-93929534D01*
X207535834Y-93787439D01*
X207171656Y-93715000D01*
X206800344Y-93715000D01*
X206436166Y-93787439D01*
X206093118Y-93929534D01*
X205784382Y-94135825D01*
X205521825Y-94398382D01*
X205315534Y-94707118D01*
X205173439Y-95050166D01*
X205101000Y-95414344D01*
X196907051Y-95414344D01*
X198398112Y-94689834D01*
X198412247Y-94685546D01*
X198465324Y-94657175D01*
X198485730Y-94647260D01*
X198498248Y-94639577D01*
X198544276Y-94614974D01*
X198561906Y-94600506D01*
X198581349Y-94588572D01*
X198619663Y-94553106D01*
X198660001Y-94520001D01*
X198674466Y-94502376D01*
X198691212Y-94486874D01*
X198721871Y-94444612D01*
X198754974Y-94404276D01*
X198765727Y-94384159D01*
X198779121Y-94365696D01*
X198800936Y-94318289D01*
X198825546Y-94272247D01*
X198832169Y-94250414D01*
X198841702Y-94229697D01*
X198853850Y-94178939D01*
X198869003Y-94128986D01*
X198871239Y-94106285D01*
X198876548Y-94084102D01*
X198878561Y-94031946D01*
X198880000Y-94017333D01*
X198880000Y-93994651D01*
X198882321Y-93934507D01*
X198880000Y-93919920D01*
X198880000Y-90736614D01*
X199088494Y-90945107D01*
X199103999Y-90964001D01*
X199219724Y-91058974D01*
X199351753Y-91129546D01*
X199495014Y-91173003D01*
X199606667Y-91184000D01*
X205271928Y-91184000D01*
X205271928Y-91270000D01*
X205284188Y-91394482D01*
X205320498Y-91514180D01*
X205379463Y-91624494D01*
X205458815Y-91721185D01*
X205555506Y-91800537D01*
X205665820Y-91859502D01*
X205785518Y-91895812D01*
X205910000Y-91908072D01*
X208110000Y-91908072D01*
X208234482Y-91895812D01*
X208354180Y-91859502D01*
X208464494Y-91800537D01*
X208561185Y-91721185D01*
X208640537Y-91624494D01*
X208699502Y-91514180D01*
X208735812Y-91394482D01*
X208748072Y-91270000D01*
X208748072Y-90028665D01*
X210655000Y-90028665D01*
X210655000Y-90311335D01*
X210710147Y-90588574D01*
X210818320Y-90849727D01*
X210975363Y-91084759D01*
X211175241Y-91284637D01*
X211410273Y-91441680D01*
X211671426Y-91549853D01*
X211948665Y-91605000D01*
X212231335Y-91605000D01*
X212508574Y-91549853D01*
X212769727Y-91441680D01*
X213004759Y-91284637D01*
X213204637Y-91084759D01*
X213361680Y-90849727D01*
X213469853Y-90588574D01*
X213525000Y-90311335D01*
X213525000Y-90028665D01*
X213469853Y-89751426D01*
X213361680Y-89490273D01*
X213204637Y-89255241D01*
X213019396Y-89070000D01*
X217971928Y-89070000D01*
X217971928Y-91270000D01*
X217984188Y-91394482D01*
X218020498Y-91514180D01*
X218079463Y-91624494D01*
X218158815Y-91721185D01*
X218255506Y-91800537D01*
X218365820Y-91859502D01*
X218485518Y-91895812D01*
X218610000Y-91908072D01*
X220810000Y-91908072D01*
X220934482Y-91895812D01*
X221054180Y-91859502D01*
X221164494Y-91800537D01*
X221261185Y-91721185D01*
X221340537Y-91624494D01*
X221399502Y-91514180D01*
X221435812Y-91394482D01*
X221448072Y-91270000D01*
X221448072Y-90519040D01*
X224668091Y-90519040D01*
X224762930Y-90783881D01*
X224907615Y-91025131D01*
X225096586Y-91233519D01*
X225322580Y-91401037D01*
X225576913Y-91521246D01*
X225710961Y-91561904D01*
X225933000Y-91439915D01*
X225933000Y-90297000D01*
X226187000Y-90297000D01*
X226187000Y-91439915D01*
X226409039Y-91561904D01*
X226543087Y-91521246D01*
X226797420Y-91401037D01*
X227023414Y-91233519D01*
X227212385Y-91025131D01*
X227357070Y-90783881D01*
X227451909Y-90519040D01*
X227330624Y-90297000D01*
X226187000Y-90297000D01*
X225933000Y-90297000D01*
X224789376Y-90297000D01*
X224668091Y-90519040D01*
X221448072Y-90519040D01*
X221448072Y-89820960D01*
X224668091Y-89820960D01*
X224789376Y-90043000D01*
X225933000Y-90043000D01*
X225933000Y-88900085D01*
X226187000Y-88900085D01*
X226187000Y-90043000D01*
X227330624Y-90043000D01*
X227451909Y-89820960D01*
X227357070Y-89556119D01*
X227212385Y-89314869D01*
X227023414Y-89106481D01*
X226797420Y-88938963D01*
X226543087Y-88818754D01*
X226409039Y-88778096D01*
X226187000Y-88900085D01*
X225933000Y-88900085D01*
X225710961Y-88778096D01*
X225576913Y-88818754D01*
X225322580Y-88938963D01*
X225096586Y-89106481D01*
X224907615Y-89314869D01*
X224762930Y-89556119D01*
X224668091Y-89820960D01*
X221448072Y-89820960D01*
X221448072Y-89070000D01*
X221435812Y-88945518D01*
X221399502Y-88825820D01*
X221340537Y-88715506D01*
X221261185Y-88618815D01*
X221164494Y-88539463D01*
X221054180Y-88480498D01*
X220934482Y-88444188D01*
X220810000Y-88431928D01*
X218610000Y-88431928D01*
X218485518Y-88444188D01*
X218365820Y-88480498D01*
X218255506Y-88539463D01*
X218158815Y-88618815D01*
X218079463Y-88715506D01*
X218020498Y-88825820D01*
X217984188Y-88945518D01*
X217971928Y-89070000D01*
X213019396Y-89070000D01*
X213004759Y-89055363D01*
X212769727Y-88898320D01*
X212508574Y-88790147D01*
X212231335Y-88735000D01*
X211948665Y-88735000D01*
X211671426Y-88790147D01*
X211410273Y-88898320D01*
X211175241Y-89055363D01*
X210975363Y-89255241D01*
X210818320Y-89490273D01*
X210710147Y-89751426D01*
X210655000Y-90028665D01*
X208748072Y-90028665D01*
X208748072Y-89070000D01*
X208735812Y-88945518D01*
X208699502Y-88825820D01*
X208640537Y-88715506D01*
X208561185Y-88618815D01*
X208464494Y-88539463D01*
X208354180Y-88480498D01*
X208234482Y-88444188D01*
X208110000Y-88431928D01*
X205910000Y-88431928D01*
X205785518Y-88444188D01*
X205665820Y-88480498D01*
X205555506Y-88539463D01*
X205458815Y-88618815D01*
X205379463Y-88715506D01*
X205320498Y-88825820D01*
X205284188Y-88945518D01*
X205271928Y-89070000D01*
X205271928Y-89664000D01*
X199956990Y-89664000D01*
X199097720Y-88804731D01*
X199097720Y-88681676D01*
X199234637Y-88544759D01*
X199390000Y-88312241D01*
X199545363Y-88544759D01*
X199745241Y-88744637D01*
X199980273Y-88901680D01*
X200241426Y-89009853D01*
X200518665Y-89065000D01*
X200801335Y-89065000D01*
X201078574Y-89009853D01*
X201339727Y-88901680D01*
X201574759Y-88744637D01*
X201774637Y-88544759D01*
X201931680Y-88309727D01*
X202039853Y-88048574D01*
X202095000Y-87771335D01*
X202095000Y-87488665D01*
X202083875Y-87432736D01*
X204192493Y-85675555D01*
X204248001Y-85630001D01*
X204273614Y-85598791D01*
X204301954Y-85570022D01*
X204320992Y-85541061D01*
X204342974Y-85514276D01*
X204362005Y-85478672D01*
X204384190Y-85444924D01*
X204397211Y-85412807D01*
X204413546Y-85382247D01*
X204425269Y-85343601D01*
X204440438Y-85306186D01*
X204446942Y-85272153D01*
X204457003Y-85238986D01*
X204460962Y-85198795D01*
X204468540Y-85159140D01*
X204468000Y-85087283D01*
X204468000Y-80406123D01*
X205320821Y-80406123D01*
X205430558Y-80728054D01*
X205600992Y-81022391D01*
X205825573Y-81277822D01*
X206095671Y-81484531D01*
X206400906Y-81634575D01*
X206613878Y-81699175D01*
X206883000Y-81581125D01*
X206883000Y-80137000D01*
X207137000Y-80137000D01*
X207137000Y-81581125D01*
X207406122Y-81699175D01*
X207619094Y-81634575D01*
X207924329Y-81484531D01*
X208194427Y-81277822D01*
X208419008Y-81022391D01*
X208589442Y-80728054D01*
X208699179Y-80406123D01*
X208581600Y-80137000D01*
X207137000Y-80137000D01*
X206883000Y-80137000D01*
X205438400Y-80137000D01*
X205320821Y-80406123D01*
X204468000Y-80406123D01*
X204468000Y-79613877D01*
X205320821Y-79613877D01*
X205438400Y-79883000D01*
X206883000Y-79883000D01*
X206883000Y-78438875D01*
X207137000Y-78438875D01*
X207137000Y-79883000D01*
X208581600Y-79883000D01*
X208587862Y-79868665D01*
X210655000Y-79868665D01*
X210655000Y-80151335D01*
X210710147Y-80428574D01*
X210818320Y-80689727D01*
X210975363Y-80924759D01*
X211175241Y-81124637D01*
X211410273Y-81281680D01*
X211671426Y-81389853D01*
X211948665Y-81445000D01*
X212231335Y-81445000D01*
X212508574Y-81389853D01*
X212769727Y-81281680D01*
X213004759Y-81124637D01*
X213204637Y-80924759D01*
X213361680Y-80689727D01*
X213469853Y-80428574D01*
X213525000Y-80151335D01*
X213525000Y-79868665D01*
X213519123Y-79839117D01*
X217975000Y-79839117D01*
X217975000Y-80180883D01*
X218041675Y-80516081D01*
X218172463Y-80831831D01*
X218362337Y-81115998D01*
X218604002Y-81357663D01*
X218888169Y-81547537D01*
X219203919Y-81678325D01*
X219539117Y-81745000D01*
X219880883Y-81745000D01*
X220216081Y-81678325D01*
X220531831Y-81547537D01*
X220815998Y-81357663D01*
X221057663Y-81115998D01*
X221247537Y-80831831D01*
X221378325Y-80516081D01*
X221445000Y-80180883D01*
X221445000Y-79868665D01*
X224625000Y-79868665D01*
X224625000Y-80151335D01*
X224680147Y-80428574D01*
X224788320Y-80689727D01*
X224945363Y-80924759D01*
X225145241Y-81124637D01*
X225380273Y-81281680D01*
X225641426Y-81389853D01*
X225918665Y-81445000D01*
X226201335Y-81445000D01*
X226478574Y-81389853D01*
X226739727Y-81281680D01*
X226974759Y-81124637D01*
X227174637Y-80924759D01*
X227331680Y-80689727D01*
X227439853Y-80428574D01*
X227495000Y-80151335D01*
X227495000Y-79868665D01*
X227439853Y-79591426D01*
X227331680Y-79330273D01*
X227174637Y-79095241D01*
X226974759Y-78895363D01*
X226739727Y-78738320D01*
X226478574Y-78630147D01*
X226201335Y-78575000D01*
X225918665Y-78575000D01*
X225641426Y-78630147D01*
X225380273Y-78738320D01*
X225145241Y-78895363D01*
X224945363Y-79095241D01*
X224788320Y-79330273D01*
X224680147Y-79591426D01*
X224625000Y-79868665D01*
X221445000Y-79868665D01*
X221445000Y-79839117D01*
X221378325Y-79503919D01*
X221247537Y-79188169D01*
X221057663Y-78904002D01*
X220815998Y-78662337D01*
X220531831Y-78472463D01*
X220216081Y-78341675D01*
X219880883Y-78275000D01*
X219539117Y-78275000D01*
X219203919Y-78341675D01*
X218888169Y-78472463D01*
X218604002Y-78662337D01*
X218362337Y-78904002D01*
X218172463Y-79188169D01*
X218041675Y-79503919D01*
X217975000Y-79839117D01*
X213519123Y-79839117D01*
X213469853Y-79591426D01*
X213361680Y-79330273D01*
X213204637Y-79095241D01*
X213004759Y-78895363D01*
X212769727Y-78738320D01*
X212508574Y-78630147D01*
X212231335Y-78575000D01*
X211948665Y-78575000D01*
X211671426Y-78630147D01*
X211410273Y-78738320D01*
X211175241Y-78895363D01*
X210975363Y-79095241D01*
X210818320Y-79330273D01*
X210710147Y-79591426D01*
X210655000Y-79868665D01*
X208587862Y-79868665D01*
X208699179Y-79613877D01*
X208589442Y-79291946D01*
X208419008Y-78997609D01*
X208194427Y-78742178D01*
X207924329Y-78535469D01*
X207619094Y-78385425D01*
X207406122Y-78320825D01*
X207137000Y-78438875D01*
X206883000Y-78438875D01*
X206613878Y-78320825D01*
X206400906Y-78385425D01*
X206095671Y-78535469D01*
X205825573Y-78742178D01*
X205600992Y-78997609D01*
X205430558Y-79291946D01*
X205320821Y-79613877D01*
X204468000Y-79613877D01*
X204468000Y-72204625D01*
X204469113Y-72198513D01*
X204468000Y-72129896D01*
X204468000Y-72098667D01*
X204467394Y-72092510D01*
X204466685Y-72048826D01*
X204460074Y-72018199D01*
X204457003Y-71987014D01*
X204444318Y-71945195D01*
X204435100Y-71902489D01*
X204422644Y-71873744D01*
X204413546Y-71843753D01*
X204392946Y-71805214D01*
X204390490Y-71799546D01*
X204375345Y-71772285D01*
X204342974Y-71711724D01*
X204339030Y-71706919D01*
X204051853Y-71190000D01*
X212029928Y-71190000D01*
X212029928Y-73590000D01*
X212042188Y-73714482D01*
X212078498Y-73834180D01*
X212137463Y-73944494D01*
X212216815Y-74041185D01*
X212313506Y-74120537D01*
X212423820Y-74179502D01*
X212543518Y-74215812D01*
X212668000Y-74228072D01*
X215068000Y-74228072D01*
X215192482Y-74215812D01*
X215312180Y-74179502D01*
X215422494Y-74120537D01*
X215519185Y-74041185D01*
X215598537Y-73944494D01*
X215657502Y-73834180D01*
X215693812Y-73714482D01*
X215706072Y-73590000D01*
X215706072Y-72366500D01*
X224163815Y-72366500D01*
X224192487Y-72657611D01*
X224277401Y-72937534D01*
X224415294Y-73195514D01*
X224600866Y-73421634D01*
X224664337Y-73473723D01*
X224562614Y-73528095D01*
X224428038Y-73638538D01*
X224317595Y-73773114D01*
X224235528Y-73926650D01*
X224184992Y-74093246D01*
X224167928Y-74266500D01*
X224167928Y-75466500D01*
X224184992Y-75639754D01*
X224235528Y-75806350D01*
X224317595Y-75959886D01*
X224428038Y-76094462D01*
X224562614Y-76204905D01*
X224716150Y-76286972D01*
X224882746Y-76337508D01*
X225056000Y-76354572D01*
X226556000Y-76354572D01*
X226729254Y-76337508D01*
X226895850Y-76286972D01*
X227049386Y-76204905D01*
X227183962Y-76094462D01*
X227294405Y-75959886D01*
X227376472Y-75806350D01*
X227427008Y-75639754D01*
X227444072Y-75466500D01*
X227444072Y-74266500D01*
X227427008Y-74093246D01*
X227376472Y-73926650D01*
X227294405Y-73773114D01*
X227183962Y-73638538D01*
X227049386Y-73528095D01*
X226947663Y-73473723D01*
X227011134Y-73421634D01*
X227196706Y-73195514D01*
X227334599Y-72937534D01*
X227419513Y-72657611D01*
X227448185Y-72366500D01*
X227419513Y-72075389D01*
X227334599Y-71795466D01*
X227196706Y-71537486D01*
X227011134Y-71311366D01*
X226785014Y-71125794D01*
X226527034Y-70987901D01*
X226247111Y-70902987D01*
X226028950Y-70881500D01*
X225583050Y-70881500D01*
X225364889Y-70902987D01*
X225084966Y-70987901D01*
X224826986Y-71125794D01*
X224600866Y-71311366D01*
X224415294Y-71537486D01*
X224277401Y-71795466D01*
X224192487Y-72075389D01*
X224163815Y-72366500D01*
X215706072Y-72366500D01*
X215706072Y-71190000D01*
X215693812Y-71065518D01*
X215657502Y-70945820D01*
X215598537Y-70835506D01*
X215519185Y-70738815D01*
X215422494Y-70659463D01*
X215312180Y-70600498D01*
X215192482Y-70564188D01*
X215068000Y-70551928D01*
X212668000Y-70551928D01*
X212543518Y-70564188D01*
X212423820Y-70600498D01*
X212313506Y-70659463D01*
X212216815Y-70738815D01*
X212137463Y-70835506D01*
X212078498Y-70945820D01*
X212042188Y-71065518D01*
X212029928Y-71190000D01*
X204051853Y-71190000D01*
X203105356Y-69486306D01*
X203072974Y-69425724D01*
X203045252Y-69391945D01*
X203020392Y-69356015D01*
X202997880Y-69334222D01*
X202978001Y-69309999D01*
X202944226Y-69282280D01*
X202912830Y-69251887D01*
X202886497Y-69234903D01*
X202862276Y-69215026D01*
X202823733Y-69194424D01*
X202787020Y-69170746D01*
X202757892Y-69159231D01*
X202730247Y-69144454D01*
X202688419Y-69131766D01*
X202647798Y-69115707D01*
X202616978Y-69110095D01*
X202586986Y-69100997D01*
X202543490Y-69096713D01*
X202500513Y-69088887D01*
X202431897Y-69090000D01*
X197087774Y-69090000D01*
X197066745Y-69065383D01*
X196819219Y-68870288D01*
X196491440Y-68660510D01*
X196491440Y-67458704D01*
X196460548Y-67145053D01*
X196444107Y-67090853D01*
X196438881Y-65834080D01*
X201045525Y-65834080D01*
X201129208Y-66088261D01*
X201401775Y-66219158D01*
X201694642Y-66294365D01*
X201996553Y-66310991D01*
X202295907Y-66268397D01*
X202581199Y-66168222D01*
X202730792Y-66088261D01*
X202814475Y-65834080D01*
X201930000Y-64949605D01*
X201045525Y-65834080D01*
X196438881Y-65834080D01*
X196434733Y-64836553D01*
X200389009Y-64836553D01*
X200431603Y-65135907D01*
X200531778Y-65421199D01*
X200611739Y-65570792D01*
X200865920Y-65654475D01*
X201750395Y-64770000D01*
X202109605Y-64770000D01*
X202994080Y-65654475D01*
X203248261Y-65570792D01*
X203379158Y-65298225D01*
X203454365Y-65005358D01*
X203470670Y-64709268D01*
X212033000Y-64709268D01*
X212033000Y-65070732D01*
X212103518Y-65425250D01*
X212241844Y-65759199D01*
X212442662Y-66059744D01*
X212698256Y-66315338D01*
X212998801Y-66516156D01*
X213332750Y-66654482D01*
X213687268Y-66725000D01*
X214048732Y-66725000D01*
X214403250Y-66654482D01*
X214737199Y-66516156D01*
X215037744Y-66315338D01*
X215293338Y-66059744D01*
X215494156Y-65759199D01*
X215632482Y-65425250D01*
X215703000Y-65070732D01*
X215703000Y-64709268D01*
X215632482Y-64354750D01*
X215494156Y-64020801D01*
X215293338Y-63720256D01*
X215037744Y-63464662D01*
X214737199Y-63263844D01*
X214403250Y-63125518D01*
X214048732Y-63055000D01*
X213687268Y-63055000D01*
X213332750Y-63125518D01*
X212998801Y-63263844D01*
X212698256Y-63464662D01*
X212442662Y-63720256D01*
X212241844Y-64020801D01*
X212103518Y-64354750D01*
X212033000Y-64709268D01*
X203470670Y-64709268D01*
X203470991Y-64703447D01*
X203428397Y-64404093D01*
X203328222Y-64118801D01*
X203248261Y-63969208D01*
X202994080Y-63885525D01*
X202109605Y-64770000D01*
X201750395Y-64770000D01*
X200865920Y-63885525D01*
X200611739Y-63969208D01*
X200480842Y-64241775D01*
X200405635Y-64534642D01*
X200389009Y-64836553D01*
X196434733Y-64836553D01*
X196430032Y-63705920D01*
X201045525Y-63705920D01*
X201930000Y-64590395D01*
X202814475Y-63705920D01*
X202730792Y-63451739D01*
X202458225Y-63320842D01*
X202165358Y-63245635D01*
X201863447Y-63229009D01*
X201564093Y-63271603D01*
X201278801Y-63371778D01*
X201129208Y-63451739D01*
X201045525Y-63705920D01*
X196430032Y-63705920D01*
X196429358Y-63544020D01*
X196397162Y-63230500D01*
X196273408Y-62828562D01*
X196073618Y-62458490D01*
X195805468Y-62134507D01*
X195479266Y-61869061D01*
X195107546Y-61672356D01*
X194704592Y-61551948D01*
X194285893Y-61512467D01*
X193867535Y-61555429D01*
X193465597Y-61679183D01*
X193095525Y-61878973D01*
X192771542Y-62147123D01*
X192506096Y-62473325D01*
X192309391Y-62845045D01*
X192188983Y-63247999D01*
X192159396Y-63561775D01*
X192175455Y-67423759D01*
X192205363Y-67715000D01*
X191157118Y-67715000D01*
X190881000Y-67742195D01*
X190604882Y-67715000D01*
X189125118Y-67715000D01*
X189103000Y-67717178D01*
X188976000Y-67704670D01*
X188557467Y-67745892D01*
X188155018Y-67867974D01*
X187784119Y-68066223D01*
X187459023Y-68333023D01*
X187192223Y-68658119D01*
X186993974Y-69029019D01*
X186871892Y-69431468D01*
X186841000Y-69745119D01*
X186841000Y-72689789D01*
X186818787Y-72539870D01*
X186723603Y-72273708D01*
X186656671Y-72148486D01*
X186412702Y-72076903D01*
X185599605Y-72890000D01*
X185613748Y-72904143D01*
X185434143Y-73083748D01*
X185420000Y-73069605D01*
X185405858Y-73083748D01*
X185226253Y-72904143D01*
X185240395Y-72890000D01*
X184427298Y-72076903D01*
X184298024Y-72114833D01*
X184306300Y-72081816D01*
X184315395Y-71897298D01*
X184606903Y-71897298D01*
X185420000Y-72710395D01*
X186233097Y-71897298D01*
X186161514Y-71653329D01*
X185906004Y-71532429D01*
X185631816Y-71463700D01*
X185349488Y-71449783D01*
X185069870Y-71491213D01*
X184803708Y-71586397D01*
X184678486Y-71653329D01*
X184606903Y-71897298D01*
X184315395Y-71897298D01*
X184320217Y-71799488D01*
X184278787Y-71519870D01*
X184183603Y-71253708D01*
X184116671Y-71128486D01*
X183872702Y-71056903D01*
X183059605Y-71870000D01*
X183872702Y-72683097D01*
X184001976Y-72645167D01*
X183993700Y-72678184D01*
X183979783Y-72960512D01*
X183983240Y-72983844D01*
X183794759Y-72795363D01*
X183559727Y-72638320D01*
X183404360Y-72573965D01*
X182880000Y-72049605D01*
X182355640Y-72573965D01*
X182200273Y-72638320D01*
X181965241Y-72795363D01*
X181765363Y-72995241D01*
X181661957Y-73150000D01*
X180811499Y-73150000D01*
X180804507Y-73147879D01*
X180655521Y-73133205D01*
X180506535Y-73147879D01*
X180363274Y-73191335D01*
X180231244Y-73261907D01*
X180144518Y-73333082D01*
X178113602Y-75363999D01*
X178056341Y-75394606D01*
X177940616Y-75489579D01*
X177845643Y-75605304D01*
X177775071Y-75737333D01*
X177731614Y-75880594D01*
X177720617Y-75992247D01*
X177720617Y-76957456D01*
X177647939Y-76943000D01*
X177444061Y-76943000D01*
X177244102Y-76982774D01*
X177215000Y-76994829D01*
X177215000Y-71940512D01*
X181439783Y-71940512D01*
X181481213Y-72220130D01*
X181576397Y-72486292D01*
X181643329Y-72611514D01*
X181887298Y-72683097D01*
X182700395Y-71870000D01*
X181887298Y-71056903D01*
X181643329Y-71128486D01*
X181522429Y-71383996D01*
X181453700Y-71658184D01*
X181439783Y-71940512D01*
X177215000Y-71940512D01*
X177215000Y-70877298D01*
X182066903Y-70877298D01*
X182880000Y-71690395D01*
X183693097Y-70877298D01*
X183621514Y-70633329D01*
X183366004Y-70512429D01*
X183091816Y-70443700D01*
X182809488Y-70429783D01*
X182529870Y-70471213D01*
X182263708Y-70566397D01*
X182138486Y-70633329D01*
X182066903Y-70877298D01*
X177215000Y-70877298D01*
X177215000Y-67349268D01*
X178745000Y-67349268D01*
X178745000Y-67710732D01*
X178815518Y-68065250D01*
X178953844Y-68399199D01*
X179154662Y-68699744D01*
X179410256Y-68955338D01*
X179710801Y-69156156D01*
X180044750Y-69294482D01*
X180399268Y-69365000D01*
X180760732Y-69365000D01*
X181115250Y-69294482D01*
X181449199Y-69156156D01*
X181749744Y-68955338D01*
X182005338Y-68699744D01*
X182206156Y-68399199D01*
X182344482Y-68065250D01*
X182415000Y-67710732D01*
X182415000Y-67349268D01*
X182344482Y-66994750D01*
X182206156Y-66660801D01*
X182162003Y-66594721D01*
X183285000Y-66594721D01*
X183285000Y-67015279D01*
X183367047Y-67427756D01*
X183527988Y-67816302D01*
X183761637Y-68165983D01*
X184059017Y-68463363D01*
X184408698Y-68697012D01*
X184797244Y-68857953D01*
X185209721Y-68940000D01*
X185630279Y-68940000D01*
X186042756Y-68857953D01*
X186431302Y-68697012D01*
X186780983Y-68463363D01*
X187078363Y-68165983D01*
X187312012Y-67816302D01*
X187472953Y-67427756D01*
X187555000Y-67015279D01*
X187555000Y-66594721D01*
X187472953Y-66182244D01*
X187312012Y-65793698D01*
X187078363Y-65444017D01*
X186780983Y-65146637D01*
X186431302Y-64912988D01*
X186042756Y-64752047D01*
X185630279Y-64670000D01*
X185209721Y-64670000D01*
X184797244Y-64752047D01*
X184408698Y-64912988D01*
X184059017Y-65146637D01*
X183761637Y-65444017D01*
X183527988Y-65793698D01*
X183367047Y-66182244D01*
X183285000Y-66594721D01*
X182162003Y-66594721D01*
X182005338Y-66360256D01*
X181749744Y-66104662D01*
X181449199Y-65903844D01*
X181115250Y-65765518D01*
X180760732Y-65695000D01*
X180399268Y-65695000D01*
X180044750Y-65765518D01*
X179710801Y-65903844D01*
X179410256Y-66104662D01*
X179154662Y-66360256D01*
X178953844Y-66660801D01*
X178815518Y-66994750D01*
X178745000Y-67349268D01*
X177215000Y-67349268D01*
X177215000Y-60739872D01*
X178105000Y-60739872D01*
X178105000Y-61180128D01*
X178190890Y-61611925D01*
X178359369Y-62018669D01*
X178603962Y-62384729D01*
X178915271Y-62696038D01*
X179281331Y-62940631D01*
X179688075Y-63109110D01*
X180119872Y-63195000D01*
X180560128Y-63195000D01*
X180991925Y-63109110D01*
X181398669Y-62940631D01*
X181764729Y-62696038D01*
X182076038Y-62384729D01*
X182320631Y-62018669D01*
X182489110Y-61611925D01*
X182575000Y-61180128D01*
X182575000Y-60739872D01*
X226105000Y-60739872D01*
X226105000Y-61180128D01*
X226190890Y-61611925D01*
X226359369Y-62018669D01*
X226603962Y-62384729D01*
X226915271Y-62696038D01*
X227281331Y-62940631D01*
X227688075Y-63109110D01*
X228119872Y-63195000D01*
X228560128Y-63195000D01*
X228991925Y-63109110D01*
X229398669Y-62940631D01*
X229764729Y-62696038D01*
X230076038Y-62384729D01*
X230320631Y-62018669D01*
X230489110Y-61611925D01*
X230575000Y-61180128D01*
X230575000Y-60739872D01*
X230489110Y-60308075D01*
X230320631Y-59901331D01*
X230076038Y-59535271D01*
X229764729Y-59223962D01*
X229398669Y-58979369D01*
X228991925Y-58810890D01*
X228560128Y-58725000D01*
X228119872Y-58725000D01*
X227688075Y-58810890D01*
X227281331Y-58979369D01*
X226915271Y-59223962D01*
X226603962Y-59535271D01*
X226359369Y-59901331D01*
X226190890Y-60308075D01*
X226105000Y-60739872D01*
X182575000Y-60739872D01*
X182489110Y-60308075D01*
X182320631Y-59901331D01*
X182076038Y-59535271D01*
X181764729Y-59223962D01*
X181398669Y-58979369D01*
X180991925Y-58810890D01*
X180560128Y-58725000D01*
X180119872Y-58725000D01*
X179688075Y-58810890D01*
X179281331Y-58979369D01*
X178915271Y-59223962D01*
X178603962Y-59535271D01*
X178359369Y-59901331D01*
X178190890Y-60308075D01*
X178105000Y-60739872D01*
X177215000Y-60739872D01*
X177215000Y-57835000D01*
X231725001Y-57835000D01*
X231725000Y-112345000D01*
G37*
X231725000Y-112345000D02*
X177215000Y-112345000D01*
X177215000Y-108739872D01*
X178105000Y-108739872D01*
X178105000Y-109180128D01*
X178190890Y-109611925D01*
X178359369Y-110018669D01*
X178603962Y-110384729D01*
X178915271Y-110696038D01*
X179281331Y-110940631D01*
X179688075Y-111109110D01*
X180119872Y-111195000D01*
X180560128Y-111195000D01*
X180991925Y-111109110D01*
X181398669Y-110940631D01*
X181764729Y-110696038D01*
X182076038Y-110384729D01*
X182320631Y-110018669D01*
X182489110Y-109611925D01*
X182575000Y-109180128D01*
X182575000Y-108739872D01*
X182489110Y-108308075D01*
X182369639Y-108019646D01*
X192948301Y-108019646D01*
X193065481Y-108370100D01*
X193248779Y-108690959D01*
X193491152Y-108969893D01*
X193783285Y-109196183D01*
X194113952Y-109361133D01*
X194366355Y-109437695D01*
X194659000Y-109321572D01*
X194659000Y-107727000D01*
X194913000Y-107727000D01*
X194913000Y-109321572D01*
X195205645Y-109437695D01*
X195458048Y-109361133D01*
X195788715Y-109196183D01*
X196080848Y-108969893D01*
X196323221Y-108690959D01*
X196506519Y-108370100D01*
X196623699Y-108019646D01*
X196507971Y-107727000D01*
X194913000Y-107727000D01*
X194659000Y-107727000D01*
X193064029Y-107727000D01*
X192948301Y-108019646D01*
X182369639Y-108019646D01*
X182320631Y-107901331D01*
X182076038Y-107535271D01*
X181764729Y-107223962D01*
X181699465Y-107180354D01*
X192948301Y-107180354D01*
X193064029Y-107473000D01*
X194659000Y-107473000D01*
X194659000Y-105878428D01*
X194913000Y-105878428D01*
X194913000Y-107473000D01*
X196507971Y-107473000D01*
X196531166Y-107414344D01*
X205101000Y-107414344D01*
X205101000Y-107785656D01*
X205173439Y-108149834D01*
X205315534Y-108492882D01*
X205521825Y-108801618D01*
X205784382Y-109064175D01*
X206093118Y-109270466D01*
X206436166Y-109412561D01*
X206800344Y-109485000D01*
X207171656Y-109485000D01*
X207535834Y-109412561D01*
X207878882Y-109270466D01*
X208187618Y-109064175D01*
X208450175Y-108801618D01*
X208656466Y-108492882D01*
X208798561Y-108149834D01*
X208871000Y-107785656D01*
X208871000Y-107547742D01*
X215738715Y-107547742D01*
X215807904Y-107830745D01*
X215930975Y-108094812D01*
X216103198Y-108329795D01*
X216317954Y-108526664D01*
X216566991Y-108677854D01*
X216840739Y-108777554D01*
X216853110Y-108779476D01*
X217083000Y-108658155D01*
X217083000Y-107315000D01*
X215882768Y-107315000D01*
X215738715Y-107547742D01*
X208871000Y-107547742D01*
X208871000Y-107414344D01*
X208798561Y-107050166D01*
X208706644Y-106828258D01*
X215738715Y-106828258D01*
X215882768Y-107061000D01*
X217083000Y-107061000D01*
X217083000Y-105717845D01*
X217337000Y-105717845D01*
X217337000Y-107061000D01*
X217357000Y-107061000D01*
X217357000Y-107315000D01*
X217337000Y-107315000D01*
X217337000Y-108658155D01*
X217566890Y-108779476D01*
X217579261Y-108777554D01*
X217853009Y-108677854D01*
X218102046Y-108526664D01*
X218316802Y-108329795D01*
X218317086Y-108329407D01*
X218371595Y-108431386D01*
X218482038Y-108565962D01*
X218616614Y-108676405D01*
X218770150Y-108758472D01*
X218936746Y-108809008D01*
X219110000Y-108826072D01*
X220310000Y-108826072D01*
X220483254Y-108809008D01*
X220649850Y-108758472D01*
X220684648Y-108739872D01*
X226105000Y-108739872D01*
X226105000Y-109180128D01*
X226190890Y-109611925D01*
X226359369Y-110018669D01*
X226603962Y-110384729D01*
X226915271Y-110696038D01*
X227281331Y-110940631D01*
X227688075Y-111109110D01*
X228119872Y-111195000D01*
X228560128Y-111195000D01*
X228991925Y-111109110D01*
X229398669Y-110940631D01*
X229764729Y-110696038D01*
X230076038Y-110384729D01*
X230320631Y-110018669D01*
X230489110Y-109611925D01*
X230575000Y-109180128D01*
X230575000Y-108739872D01*
X230489110Y-108308075D01*
X230320631Y-107901331D01*
X230076038Y-107535271D01*
X229764729Y-107223962D01*
X229398669Y-106979369D01*
X228991925Y-106810890D01*
X228560128Y-106725000D01*
X228119872Y-106725000D01*
X227688075Y-106810890D01*
X227281331Y-106979369D01*
X226915271Y-107223962D01*
X226603962Y-107535271D01*
X226359369Y-107901331D01*
X226190890Y-108308075D01*
X226105000Y-108739872D01*
X220684648Y-108739872D01*
X220803386Y-108676405D01*
X220937962Y-108565962D01*
X221048405Y-108431386D01*
X221130472Y-108277850D01*
X221181008Y-108111254D01*
X221198072Y-107938000D01*
X221198072Y-107484272D01*
X221198151Y-107484012D01*
X221220000Y-107262178D01*
X221220000Y-98985822D01*
X221198151Y-98763988D01*
X221111808Y-98479352D01*
X220971594Y-98217030D01*
X220782897Y-97987103D01*
X220552969Y-97798406D01*
X220422922Y-97728894D01*
X220428980Y-97725656D01*
X220495960Y-97485565D01*
X219710000Y-96699605D01*
X218924040Y-97485565D01*
X218991020Y-97725656D01*
X218997465Y-97728687D01*
X218867030Y-97798406D01*
X218637103Y-97987103D01*
X218448406Y-98217031D01*
X218308192Y-98479353D01*
X218221849Y-98763989D01*
X218200000Y-98985823D01*
X218200001Y-105939132D01*
X218102046Y-105849336D01*
X217853009Y-105698146D01*
X217579261Y-105598446D01*
X217566890Y-105596524D01*
X217337000Y-105717845D01*
X217083000Y-105717845D01*
X216853110Y-105596524D01*
X216840739Y-105598446D01*
X216566991Y-105698146D01*
X216317954Y-105849336D01*
X216103198Y-106046205D01*
X215930975Y-106281188D01*
X215807904Y-106545255D01*
X215738715Y-106828258D01*
X208706644Y-106828258D01*
X208656466Y-106707118D01*
X208450175Y-106398382D01*
X208187618Y-106135825D01*
X207878882Y-105929534D01*
X207535834Y-105787439D01*
X207171656Y-105715000D01*
X206800344Y-105715000D01*
X206436166Y-105787439D01*
X206093118Y-105929534D01*
X205784382Y-106135825D01*
X205521825Y-106398382D01*
X205315534Y-106707118D01*
X205173439Y-107050166D01*
X205101000Y-107414344D01*
X196531166Y-107414344D01*
X196623699Y-107180354D01*
X196506519Y-106829900D01*
X196323221Y-106509041D01*
X196080848Y-106230107D01*
X195788715Y-106003817D01*
X195458048Y-105838867D01*
X195205645Y-105762305D01*
X194913000Y-105878428D01*
X194659000Y-105878428D01*
X194366355Y-105762305D01*
X194113952Y-105838867D01*
X193783285Y-106003817D01*
X193491152Y-106230107D01*
X193248779Y-106509041D01*
X193065481Y-106829900D01*
X192948301Y-107180354D01*
X181699465Y-107180354D01*
X181398669Y-106979369D01*
X180991925Y-106810890D01*
X180560128Y-106725000D01*
X180119872Y-106725000D01*
X179688075Y-106810890D01*
X179281331Y-106979369D01*
X178915271Y-107223962D01*
X178603962Y-107535271D01*
X178359369Y-107901331D01*
X178190890Y-108308075D01*
X178105000Y-108739872D01*
X177215000Y-108739872D01*
X177215000Y-102469268D01*
X178745000Y-102469268D01*
X178745000Y-102830732D01*
X178815518Y-103185250D01*
X178953844Y-103519199D01*
X179154662Y-103819744D01*
X179410256Y-104075338D01*
X179710801Y-104276156D01*
X180044750Y-104414482D01*
X180399268Y-104485000D01*
X180760732Y-104485000D01*
X181115250Y-104414482D01*
X181449199Y-104276156D01*
X181749744Y-104075338D01*
X182005338Y-103819744D01*
X182206156Y-103519199D01*
X182344482Y-103185250D01*
X182348565Y-103164721D01*
X183285000Y-103164721D01*
X183285000Y-103585279D01*
X183367047Y-103997756D01*
X183527988Y-104386302D01*
X183761637Y-104735983D01*
X184059017Y-105033363D01*
X184408698Y-105267012D01*
X184797244Y-105427953D01*
X185209721Y-105510000D01*
X185630279Y-105510000D01*
X186042756Y-105427953D01*
X186431302Y-105267012D01*
X186780983Y-105033363D01*
X187078363Y-104735983D01*
X187312012Y-104386302D01*
X187472953Y-103997756D01*
X187555000Y-103585279D01*
X187555000Y-103164721D01*
X187472953Y-102752244D01*
X187312012Y-102363698D01*
X187078363Y-102014017D01*
X186780983Y-101716637D01*
X186431302Y-101482988D01*
X186042756Y-101322047D01*
X185630279Y-101240000D01*
X185209721Y-101240000D01*
X184797244Y-101322047D01*
X184408698Y-101482988D01*
X184059017Y-101716637D01*
X183761637Y-102014017D01*
X183527988Y-102363698D01*
X183367047Y-102752244D01*
X183285000Y-103164721D01*
X182348565Y-103164721D01*
X182415000Y-102830732D01*
X182415000Y-102469268D01*
X182344482Y-102114750D01*
X182206156Y-101780801D01*
X182005338Y-101480256D01*
X181749744Y-101224662D01*
X181449199Y-101023844D01*
X181115250Y-100885518D01*
X180760732Y-100815000D01*
X180399268Y-100815000D01*
X180044750Y-100885518D01*
X179710801Y-101023844D01*
X179410256Y-101224662D01*
X179154662Y-101480256D01*
X178953844Y-101780801D01*
X178815518Y-102114750D01*
X178745000Y-102469268D01*
X177215000Y-102469268D01*
X177215000Y-93961801D01*
X181445000Y-98191802D01*
X181445000Y-98451335D01*
X181500147Y-98728574D01*
X181608320Y-98989727D01*
X181765363Y-99224759D01*
X181965241Y-99424637D01*
X182200273Y-99581680D01*
X182461426Y-99689853D01*
X182738665Y-99745000D01*
X183021335Y-99745000D01*
X183298574Y-99689853D01*
X183559727Y-99581680D01*
X183794759Y-99424637D01*
X183981928Y-99237468D01*
X183981928Y-100130000D01*
X183994188Y-100254482D01*
X184030498Y-100374180D01*
X184089463Y-100484494D01*
X184168815Y-100581185D01*
X184265506Y-100660537D01*
X184375820Y-100719502D01*
X184495518Y-100755812D01*
X184620000Y-100768072D01*
X186220000Y-100768072D01*
X186344482Y-100755812D01*
X186464180Y-100719502D01*
X186574494Y-100660537D01*
X186671185Y-100581185D01*
X186750537Y-100484494D01*
X186809502Y-100374180D01*
X186845812Y-100254482D01*
X186858072Y-100130000D01*
X186858072Y-100037540D01*
X186864647Y-100035546D01*
X186996676Y-99964974D01*
X187112401Y-99870001D01*
X187136203Y-99840998D01*
X187937603Y-99039599D01*
X187966601Y-99015801D01*
X188061574Y-98900076D01*
X188132146Y-98768047D01*
X188175603Y-98624786D01*
X188186600Y-98513133D01*
X188186600Y-98513124D01*
X188190276Y-98475801D01*
X188186600Y-98438478D01*
X188186600Y-97956311D01*
X188316226Y-98085937D01*
X188485744Y-98199205D01*
X188674102Y-98277226D01*
X188874061Y-98317000D01*
X189077939Y-98317000D01*
X189277898Y-98277226D01*
X189466256Y-98199205D01*
X189635774Y-98085937D01*
X189779937Y-97941774D01*
X189790967Y-97925267D01*
X189935103Y-98100897D01*
X190165030Y-98289594D01*
X190427352Y-98429808D01*
X190571782Y-98473620D01*
X190931872Y-100154037D01*
X190910188Y-100225518D01*
X190897928Y-100350000D01*
X190897928Y-102850000D01*
X190910188Y-102974482D01*
X190946498Y-103094180D01*
X191005463Y-103204494D01*
X191084815Y-103301185D01*
X191181506Y-103380537D01*
X191291820Y-103439502D01*
X191411518Y-103475812D01*
X191536000Y-103488072D01*
X194036000Y-103488072D01*
X194160482Y-103475812D01*
X194280180Y-103439502D01*
X194390494Y-103380537D01*
X194487185Y-103301185D01*
X194566537Y-103204494D01*
X194625502Y-103094180D01*
X194661812Y-102974482D01*
X194674072Y-102850000D01*
X194674072Y-100350000D01*
X194661812Y-100225518D01*
X194625502Y-100105820D01*
X194566537Y-99995506D01*
X194487185Y-99898815D01*
X194390494Y-99819463D01*
X194280180Y-99760498D01*
X194160482Y-99724188D01*
X194036000Y-99711928D01*
X193925692Y-99711928D01*
X193484939Y-97655080D01*
X193417094Y-97442748D01*
X193273028Y-97182522D01*
X193080962Y-96955402D01*
X192848278Y-96770116D01*
X192583917Y-96633784D01*
X192518000Y-96614845D01*
X192518000Y-93267215D01*
X192844982Y-93168026D01*
X193215881Y-92969777D01*
X193540977Y-92702977D01*
X193807777Y-92377881D01*
X194006026Y-92006982D01*
X194128108Y-91604533D01*
X194159000Y-91290882D01*
X194159000Y-79868665D01*
X196685000Y-79868665D01*
X196685000Y-80151335D01*
X196740147Y-80428574D01*
X196848320Y-80689727D01*
X197005363Y-80924759D01*
X197205241Y-81124637D01*
X197440273Y-81281680D01*
X197701426Y-81389853D01*
X197978665Y-81445000D01*
X198261335Y-81445000D01*
X198538574Y-81389853D01*
X198799727Y-81281680D01*
X199034759Y-81124637D01*
X199233357Y-80926039D01*
X199234188Y-80934482D01*
X199270498Y-81054180D01*
X199329463Y-81164494D01*
X199408815Y-81261185D01*
X199505506Y-81340537D01*
X199615820Y-81399502D01*
X199735518Y-81435812D01*
X199860000Y-81448072D01*
X201460000Y-81448072D01*
X201584482Y-81435812D01*
X201704180Y-81399502D01*
X201814494Y-81340537D01*
X201911185Y-81261185D01*
X201990537Y-81164494D01*
X202049502Y-81054180D01*
X202085812Y-80934482D01*
X202098072Y-80810000D01*
X202098072Y-79210000D01*
X202085812Y-79085518D01*
X202049502Y-78965820D01*
X201990537Y-78855506D01*
X201911185Y-78758815D01*
X201814494Y-78679463D01*
X201704180Y-78620498D01*
X201584482Y-78584188D01*
X201460000Y-78571928D01*
X199860000Y-78571928D01*
X199735518Y-78584188D01*
X199615820Y-78620498D01*
X199505506Y-78679463D01*
X199408815Y-78758815D01*
X199329463Y-78855506D01*
X199270498Y-78965820D01*
X199234188Y-79085518D01*
X199233357Y-79093961D01*
X199034759Y-78895363D01*
X198799727Y-78738320D01*
X198538574Y-78630147D01*
X198261335Y-78575000D01*
X197978665Y-78575000D01*
X197701426Y-78630147D01*
X197440273Y-78738320D01*
X197205241Y-78895363D01*
X197005363Y-79095241D01*
X196848320Y-79330273D01*
X196740147Y-79591426D01*
X196685000Y-79868665D01*
X194159000Y-79868665D01*
X194159000Y-78525747D01*
X195471536Y-77213211D01*
X195471537Y-77213209D01*
X195619746Y-77065000D01*
X198753021Y-77065000D01*
X198864095Y-77098694D01*
X199282628Y-77139916D01*
X199701161Y-77098694D01*
X200103610Y-76976612D01*
X200474509Y-76778363D01*
X200718138Y-76578422D01*
X201968444Y-75328116D01*
X202176977Y-75156977D01*
X202443777Y-74831881D01*
X202642026Y-74460981D01*
X202764108Y-74058532D01*
X202795000Y-73744881D01*
X202795000Y-72357918D01*
X202764108Y-72044267D01*
X202735819Y-71951010D01*
X202948001Y-72332939D01*
X202948000Y-84734035D01*
X201112034Y-86264007D01*
X201078574Y-86250147D01*
X200801335Y-86195000D01*
X200518665Y-86195000D01*
X200241426Y-86250147D01*
X199980273Y-86358320D01*
X199745241Y-86515363D01*
X199545363Y-86715241D01*
X199390000Y-86947759D01*
X199234637Y-86715241D01*
X199034759Y-86515363D01*
X198799727Y-86358320D01*
X198538574Y-86250147D01*
X198261335Y-86195000D01*
X197978665Y-86195000D01*
X197701426Y-86250147D01*
X197440273Y-86358320D01*
X197205241Y-86515363D01*
X197005363Y-86715241D01*
X196848320Y-86950273D01*
X196740147Y-87211426D01*
X196685000Y-87488665D01*
X196685000Y-87771335D01*
X196740147Y-88048574D01*
X196848320Y-88309727D01*
X197005363Y-88544759D01*
X197205241Y-88744637D01*
X197360000Y-88848044D01*
X197360001Y-93504317D01*
X196011400Y-94159607D01*
X195987618Y-94135825D01*
X195678882Y-93929534D01*
X195335834Y-93787439D01*
X194971656Y-93715000D01*
X194600344Y-93715000D01*
X194236166Y-93787439D01*
X193893118Y-93929534D01*
X193584382Y-94135825D01*
X193321825Y-94398382D01*
X193115534Y-94707118D01*
X192973439Y-95050166D01*
X192901000Y-95414344D01*
X192901000Y-95785656D01*
X192973439Y-96149834D01*
X193115534Y-96492882D01*
X193321825Y-96801618D01*
X193584382Y-97064175D01*
X193893118Y-97270466D01*
X194236166Y-97412561D01*
X194600344Y-97485000D01*
X194971656Y-97485000D01*
X195335834Y-97412561D01*
X195678882Y-97270466D01*
X195987618Y-97064175D01*
X196250175Y-96801618D01*
X196456466Y-96492882D01*
X196598561Y-96149834D01*
X196671000Y-95785656D01*
X196671000Y-95529042D01*
X196907051Y-95414344D01*
X205101000Y-95414344D01*
X205101000Y-95785656D01*
X205173439Y-96149834D01*
X205315534Y-96492882D01*
X205521825Y-96801618D01*
X205784382Y-97064175D01*
X206093118Y-97270466D01*
X206436166Y-97412561D01*
X206800344Y-97485000D01*
X207171656Y-97485000D01*
X207535834Y-97412561D01*
X207878882Y-97270466D01*
X208121485Y-97108364D01*
X209823802Y-97105909D01*
X209823803Y-97105909D01*
X213019444Y-97101302D01*
X214117516Y-97101302D01*
X214280000Y-97117305D01*
X214576011Y-97088151D01*
X214588619Y-97084327D01*
X214638100Y-97079453D01*
X214922736Y-96993110D01*
X215185058Y-96852896D01*
X215414985Y-96664199D01*
X215474223Y-96592017D01*
X218308090Y-96592017D01*
X218349078Y-96864133D01*
X218442364Y-97123023D01*
X218504344Y-97238980D01*
X218744435Y-97305960D01*
X219530395Y-96520000D01*
X219889605Y-96520000D01*
X220675565Y-97305960D01*
X220915656Y-97238980D01*
X221032756Y-96989952D01*
X221099023Y-96722865D01*
X221111910Y-96447983D01*
X221070922Y-96175867D01*
X220977636Y-95916977D01*
X220915656Y-95801020D01*
X220675565Y-95734040D01*
X219889605Y-96520000D01*
X219530395Y-96520000D01*
X218744435Y-95734040D01*
X218504344Y-95801020D01*
X218387244Y-96050048D01*
X218320977Y-96317135D01*
X218308090Y-96592017D01*
X215474223Y-96592017D01*
X215603682Y-96434272D01*
X215629509Y-96385953D01*
X216525463Y-95490000D01*
X218942016Y-95490000D01*
X218924040Y-95554435D01*
X219710000Y-96340395D01*
X220495960Y-95554435D01*
X220428980Y-95314344D01*
X220422535Y-95311313D01*
X220552970Y-95241594D01*
X220782897Y-95052897D01*
X220971594Y-94822970D01*
X221111808Y-94560648D01*
X221175707Y-94350000D01*
X224521928Y-94350000D01*
X224521928Y-96150000D01*
X224534188Y-96274482D01*
X224570498Y-96394180D01*
X224629463Y-96504494D01*
X224708815Y-96601185D01*
X224805506Y-96680537D01*
X224915820Y-96739502D01*
X225035518Y-96775812D01*
X225160000Y-96788072D01*
X226960000Y-96788072D01*
X227084482Y-96775812D01*
X227204180Y-96739502D01*
X227314494Y-96680537D01*
X227411185Y-96601185D01*
X227490537Y-96504494D01*
X227549502Y-96394180D01*
X227555056Y-96375873D01*
X227621495Y-96442312D01*
X227872905Y-96610299D01*
X228152257Y-96726011D01*
X228448816Y-96785000D01*
X228751184Y-96785000D01*
X229047743Y-96726011D01*
X229327095Y-96610299D01*
X229578505Y-96442312D01*
X229792312Y-96228505D01*
X229960299Y-95977095D01*
X230076011Y-95697743D01*
X230135000Y-95401184D01*
X230135000Y-95098816D01*
X230076011Y-94802257D01*
X229960299Y-94522905D01*
X229792312Y-94271495D01*
X229578505Y-94057688D01*
X229327095Y-93889701D01*
X229047743Y-93773989D01*
X228751184Y-93715000D01*
X228448816Y-93715000D01*
X228152257Y-93773989D01*
X227872905Y-93889701D01*
X227621495Y-94057688D01*
X227555056Y-94124127D01*
X227549502Y-94105820D01*
X227490537Y-93995506D01*
X227411185Y-93898815D01*
X227314494Y-93819463D01*
X227204180Y-93760498D01*
X227084482Y-93724188D01*
X226960000Y-93711928D01*
X225160000Y-93711928D01*
X225035518Y-93724188D01*
X224915820Y-93760498D01*
X224805506Y-93819463D01*
X224708815Y-93898815D01*
X224629463Y-93995506D01*
X224570498Y-94105820D01*
X224534188Y-94225518D01*
X224521928Y-94350000D01*
X221175707Y-94350000D01*
X221198151Y-94276012D01*
X221227306Y-93980000D01*
X221198151Y-93683988D01*
X221111808Y-93399352D01*
X220971594Y-93137030D01*
X220782897Y-92907103D01*
X220552970Y-92718406D01*
X220290648Y-92578192D01*
X220006012Y-92491849D01*
X219784178Y-92470000D01*
X215974170Y-92470000D01*
X215900000Y-92462695D01*
X215825829Y-92470000D01*
X215825822Y-92470000D01*
X215603988Y-92491849D01*
X215319352Y-92578192D01*
X215057030Y-92718406D01*
X214968055Y-92791426D01*
X214884720Y-92859817D01*
X214884716Y-92859821D01*
X214827103Y-92907103D01*
X214779821Y-92964716D01*
X213663236Y-94081302D01*
X213091780Y-94081302D01*
X213090698Y-94081197D01*
X213017865Y-94081302D01*
X212944520Y-94081302D01*
X212943430Y-94081409D01*
X209967805Y-94085699D01*
X209967804Y-94085699D01*
X208116594Y-94088369D01*
X207878882Y-93929534D01*
X207535834Y-93787439D01*
X207171656Y-93715000D01*
X206800344Y-93715000D01*
X206436166Y-93787439D01*
X206093118Y-93929534D01*
X205784382Y-94135825D01*
X205521825Y-94398382D01*
X205315534Y-94707118D01*
X205173439Y-95050166D01*
X205101000Y-95414344D01*
X196907051Y-95414344D01*
X198398112Y-94689834D01*
X198412247Y-94685546D01*
X198465324Y-94657175D01*
X198485730Y-94647260D01*
X198498248Y-94639577D01*
X198544276Y-94614974D01*
X198561906Y-94600506D01*
X198581349Y-94588572D01*
X198619663Y-94553106D01*
X198660001Y-94520001D01*
X198674466Y-94502376D01*
X198691212Y-94486874D01*
X198721871Y-94444612D01*
X198754974Y-94404276D01*
X198765727Y-94384159D01*
X198779121Y-94365696D01*
X198800936Y-94318289D01*
X198825546Y-94272247D01*
X198832169Y-94250414D01*
X198841702Y-94229697D01*
X198853850Y-94178939D01*
X198869003Y-94128986D01*
X198871239Y-94106285D01*
X198876548Y-94084102D01*
X198878561Y-94031946D01*
X198880000Y-94017333D01*
X198880000Y-93994651D01*
X198882321Y-93934507D01*
X198880000Y-93919920D01*
X198880000Y-90736614D01*
X199088494Y-90945107D01*
X199103999Y-90964001D01*
X199219724Y-91058974D01*
X199351753Y-91129546D01*
X199495014Y-91173003D01*
X199606667Y-91184000D01*
X205271928Y-91184000D01*
X205271928Y-91270000D01*
X205284188Y-91394482D01*
X205320498Y-91514180D01*
X205379463Y-91624494D01*
X205458815Y-91721185D01*
X205555506Y-91800537D01*
X205665820Y-91859502D01*
X205785518Y-91895812D01*
X205910000Y-91908072D01*
X208110000Y-91908072D01*
X208234482Y-91895812D01*
X208354180Y-91859502D01*
X208464494Y-91800537D01*
X208561185Y-91721185D01*
X208640537Y-91624494D01*
X208699502Y-91514180D01*
X208735812Y-91394482D01*
X208748072Y-91270000D01*
X208748072Y-90028665D01*
X210655000Y-90028665D01*
X210655000Y-90311335D01*
X210710147Y-90588574D01*
X210818320Y-90849727D01*
X210975363Y-91084759D01*
X211175241Y-91284637D01*
X211410273Y-91441680D01*
X211671426Y-91549853D01*
X211948665Y-91605000D01*
X212231335Y-91605000D01*
X212508574Y-91549853D01*
X212769727Y-91441680D01*
X213004759Y-91284637D01*
X213204637Y-91084759D01*
X213361680Y-90849727D01*
X213469853Y-90588574D01*
X213525000Y-90311335D01*
X213525000Y-90028665D01*
X213469853Y-89751426D01*
X213361680Y-89490273D01*
X213204637Y-89255241D01*
X213019396Y-89070000D01*
X217971928Y-89070000D01*
X217971928Y-91270000D01*
X217984188Y-91394482D01*
X218020498Y-91514180D01*
X218079463Y-91624494D01*
X218158815Y-91721185D01*
X218255506Y-91800537D01*
X218365820Y-91859502D01*
X218485518Y-91895812D01*
X218610000Y-91908072D01*
X220810000Y-91908072D01*
X220934482Y-91895812D01*
X221054180Y-91859502D01*
X221164494Y-91800537D01*
X221261185Y-91721185D01*
X221340537Y-91624494D01*
X221399502Y-91514180D01*
X221435812Y-91394482D01*
X221448072Y-91270000D01*
X221448072Y-90519040D01*
X224668091Y-90519040D01*
X224762930Y-90783881D01*
X224907615Y-91025131D01*
X225096586Y-91233519D01*
X225322580Y-91401037D01*
X225576913Y-91521246D01*
X225710961Y-91561904D01*
X225933000Y-91439915D01*
X225933000Y-90297000D01*
X226187000Y-90297000D01*
X226187000Y-91439915D01*
X226409039Y-91561904D01*
X226543087Y-91521246D01*
X226797420Y-91401037D01*
X227023414Y-91233519D01*
X227212385Y-91025131D01*
X227357070Y-90783881D01*
X227451909Y-90519040D01*
X227330624Y-90297000D01*
X226187000Y-90297000D01*
X225933000Y-90297000D01*
X224789376Y-90297000D01*
X224668091Y-90519040D01*
X221448072Y-90519040D01*
X221448072Y-89820960D01*
X224668091Y-89820960D01*
X224789376Y-90043000D01*
X225933000Y-90043000D01*
X225933000Y-88900085D01*
X226187000Y-88900085D01*
X226187000Y-90043000D01*
X227330624Y-90043000D01*
X227451909Y-89820960D01*
X227357070Y-89556119D01*
X227212385Y-89314869D01*
X227023414Y-89106481D01*
X226797420Y-88938963D01*
X226543087Y-88818754D01*
X226409039Y-88778096D01*
X226187000Y-88900085D01*
X225933000Y-88900085D01*
X225710961Y-88778096D01*
X225576913Y-88818754D01*
X225322580Y-88938963D01*
X225096586Y-89106481D01*
X224907615Y-89314869D01*
X224762930Y-89556119D01*
X224668091Y-89820960D01*
X221448072Y-89820960D01*
X221448072Y-89070000D01*
X221435812Y-88945518D01*
X221399502Y-88825820D01*
X221340537Y-88715506D01*
X221261185Y-88618815D01*
X221164494Y-88539463D01*
X221054180Y-88480498D01*
X220934482Y-88444188D01*
X220810000Y-88431928D01*
X218610000Y-88431928D01*
X218485518Y-88444188D01*
X218365820Y-88480498D01*
X218255506Y-88539463D01*
X218158815Y-88618815D01*
X218079463Y-88715506D01*
X218020498Y-88825820D01*
X217984188Y-88945518D01*
X217971928Y-89070000D01*
X213019396Y-89070000D01*
X213004759Y-89055363D01*
X212769727Y-88898320D01*
X212508574Y-88790147D01*
X212231335Y-88735000D01*
X211948665Y-88735000D01*
X211671426Y-88790147D01*
X211410273Y-88898320D01*
X211175241Y-89055363D01*
X210975363Y-89255241D01*
X210818320Y-89490273D01*
X210710147Y-89751426D01*
X210655000Y-90028665D01*
X208748072Y-90028665D01*
X208748072Y-89070000D01*
X208735812Y-88945518D01*
X208699502Y-88825820D01*
X208640537Y-88715506D01*
X208561185Y-88618815D01*
X208464494Y-88539463D01*
X208354180Y-88480498D01*
X208234482Y-88444188D01*
X208110000Y-88431928D01*
X205910000Y-88431928D01*
X205785518Y-88444188D01*
X205665820Y-88480498D01*
X205555506Y-88539463D01*
X205458815Y-88618815D01*
X205379463Y-88715506D01*
X205320498Y-88825820D01*
X205284188Y-88945518D01*
X205271928Y-89070000D01*
X205271928Y-89664000D01*
X199956990Y-89664000D01*
X199097720Y-88804731D01*
X199097720Y-88681676D01*
X199234637Y-88544759D01*
X199390000Y-88312241D01*
X199545363Y-88544759D01*
X199745241Y-88744637D01*
X199980273Y-88901680D01*
X200241426Y-89009853D01*
X200518665Y-89065000D01*
X200801335Y-89065000D01*
X201078574Y-89009853D01*
X201339727Y-88901680D01*
X201574759Y-88744637D01*
X201774637Y-88544759D01*
X201931680Y-88309727D01*
X202039853Y-88048574D01*
X202095000Y-87771335D01*
X202095000Y-87488665D01*
X202083875Y-87432736D01*
X204192493Y-85675555D01*
X204248001Y-85630001D01*
X204273614Y-85598791D01*
X204301954Y-85570022D01*
X204320992Y-85541061D01*
X204342974Y-85514276D01*
X204362005Y-85478672D01*
X204384190Y-85444924D01*
X204397211Y-85412807D01*
X204413546Y-85382247D01*
X204425269Y-85343601D01*
X204440438Y-85306186D01*
X204446942Y-85272153D01*
X204457003Y-85238986D01*
X204460962Y-85198795D01*
X204468540Y-85159140D01*
X204468000Y-85087283D01*
X204468000Y-80406123D01*
X205320821Y-80406123D01*
X205430558Y-80728054D01*
X205600992Y-81022391D01*
X205825573Y-81277822D01*
X206095671Y-81484531D01*
X206400906Y-81634575D01*
X206613878Y-81699175D01*
X206883000Y-81581125D01*
X206883000Y-80137000D01*
X207137000Y-80137000D01*
X207137000Y-81581125D01*
X207406122Y-81699175D01*
X207619094Y-81634575D01*
X207924329Y-81484531D01*
X208194427Y-81277822D01*
X208419008Y-81022391D01*
X208589442Y-80728054D01*
X208699179Y-80406123D01*
X208581600Y-80137000D01*
X207137000Y-80137000D01*
X206883000Y-80137000D01*
X205438400Y-80137000D01*
X205320821Y-80406123D01*
X204468000Y-80406123D01*
X204468000Y-79613877D01*
X205320821Y-79613877D01*
X205438400Y-79883000D01*
X206883000Y-79883000D01*
X206883000Y-78438875D01*
X207137000Y-78438875D01*
X207137000Y-79883000D01*
X208581600Y-79883000D01*
X208587862Y-79868665D01*
X210655000Y-79868665D01*
X210655000Y-80151335D01*
X210710147Y-80428574D01*
X210818320Y-80689727D01*
X210975363Y-80924759D01*
X211175241Y-81124637D01*
X211410273Y-81281680D01*
X211671426Y-81389853D01*
X211948665Y-81445000D01*
X212231335Y-81445000D01*
X212508574Y-81389853D01*
X212769727Y-81281680D01*
X213004759Y-81124637D01*
X213204637Y-80924759D01*
X213361680Y-80689727D01*
X213469853Y-80428574D01*
X213525000Y-80151335D01*
X213525000Y-79868665D01*
X213519123Y-79839117D01*
X217975000Y-79839117D01*
X217975000Y-80180883D01*
X218041675Y-80516081D01*
X218172463Y-80831831D01*
X218362337Y-81115998D01*
X218604002Y-81357663D01*
X218888169Y-81547537D01*
X219203919Y-81678325D01*
X219539117Y-81745000D01*
X219880883Y-81745000D01*
X220216081Y-81678325D01*
X220531831Y-81547537D01*
X220815998Y-81357663D01*
X221057663Y-81115998D01*
X221247537Y-80831831D01*
X221378325Y-80516081D01*
X221445000Y-80180883D01*
X221445000Y-79868665D01*
X224625000Y-79868665D01*
X224625000Y-80151335D01*
X224680147Y-80428574D01*
X224788320Y-80689727D01*
X224945363Y-80924759D01*
X225145241Y-81124637D01*
X225380273Y-81281680D01*
X225641426Y-81389853D01*
X225918665Y-81445000D01*
X226201335Y-81445000D01*
X226478574Y-81389853D01*
X226739727Y-81281680D01*
X226974759Y-81124637D01*
X227174637Y-80924759D01*
X227331680Y-80689727D01*
X227439853Y-80428574D01*
X227495000Y-80151335D01*
X227495000Y-79868665D01*
X227439853Y-79591426D01*
X227331680Y-79330273D01*
X227174637Y-79095241D01*
X226974759Y-78895363D01*
X226739727Y-78738320D01*
X226478574Y-78630147D01*
X226201335Y-78575000D01*
X225918665Y-78575000D01*
X225641426Y-78630147D01*
X225380273Y-78738320D01*
X225145241Y-78895363D01*
X224945363Y-79095241D01*
X224788320Y-79330273D01*
X224680147Y-79591426D01*
X224625000Y-79868665D01*
X221445000Y-79868665D01*
X221445000Y-79839117D01*
X221378325Y-79503919D01*
X221247537Y-79188169D01*
X221057663Y-78904002D01*
X220815998Y-78662337D01*
X220531831Y-78472463D01*
X220216081Y-78341675D01*
X219880883Y-78275000D01*
X219539117Y-78275000D01*
X219203919Y-78341675D01*
X218888169Y-78472463D01*
X218604002Y-78662337D01*
X218362337Y-78904002D01*
X218172463Y-79188169D01*
X218041675Y-79503919D01*
X217975000Y-79839117D01*
X213519123Y-79839117D01*
X213469853Y-79591426D01*
X213361680Y-79330273D01*
X213204637Y-79095241D01*
X213004759Y-78895363D01*
X212769727Y-78738320D01*
X212508574Y-78630147D01*
X212231335Y-78575000D01*
X211948665Y-78575000D01*
X211671426Y-78630147D01*
X211410273Y-78738320D01*
X211175241Y-78895363D01*
X210975363Y-79095241D01*
X210818320Y-79330273D01*
X210710147Y-79591426D01*
X210655000Y-79868665D01*
X208587862Y-79868665D01*
X208699179Y-79613877D01*
X208589442Y-79291946D01*
X208419008Y-78997609D01*
X208194427Y-78742178D01*
X207924329Y-78535469D01*
X207619094Y-78385425D01*
X207406122Y-78320825D01*
X207137000Y-78438875D01*
X206883000Y-78438875D01*
X206613878Y-78320825D01*
X206400906Y-78385425D01*
X206095671Y-78535469D01*
X205825573Y-78742178D01*
X205600992Y-78997609D01*
X205430558Y-79291946D01*
X205320821Y-79613877D01*
X204468000Y-79613877D01*
X204468000Y-72204625D01*
X204469113Y-72198513D01*
X204468000Y-72129896D01*
X204468000Y-72098667D01*
X204467394Y-72092510D01*
X204466685Y-72048826D01*
X204460074Y-72018199D01*
X204457003Y-71987014D01*
X204444318Y-71945195D01*
X204435100Y-71902489D01*
X204422644Y-71873744D01*
X204413546Y-71843753D01*
X204392946Y-71805214D01*
X204390490Y-71799546D01*
X204375345Y-71772285D01*
X204342974Y-71711724D01*
X204339030Y-71706919D01*
X204051853Y-71190000D01*
X212029928Y-71190000D01*
X212029928Y-73590000D01*
X212042188Y-73714482D01*
X212078498Y-73834180D01*
X212137463Y-73944494D01*
X212216815Y-74041185D01*
X212313506Y-74120537D01*
X212423820Y-74179502D01*
X212543518Y-74215812D01*
X212668000Y-74228072D01*
X215068000Y-74228072D01*
X215192482Y-74215812D01*
X215312180Y-74179502D01*
X215422494Y-74120537D01*
X215519185Y-74041185D01*
X215598537Y-73944494D01*
X215657502Y-73834180D01*
X215693812Y-73714482D01*
X215706072Y-73590000D01*
X215706072Y-72366500D01*
X224163815Y-72366500D01*
X224192487Y-72657611D01*
X224277401Y-72937534D01*
X224415294Y-73195514D01*
X224600866Y-73421634D01*
X224664337Y-73473723D01*
X224562614Y-73528095D01*
X224428038Y-73638538D01*
X224317595Y-73773114D01*
X224235528Y-73926650D01*
X224184992Y-74093246D01*
X224167928Y-74266500D01*
X224167928Y-75466500D01*
X224184992Y-75639754D01*
X224235528Y-75806350D01*
X224317595Y-75959886D01*
X224428038Y-76094462D01*
X224562614Y-76204905D01*
X224716150Y-76286972D01*
X224882746Y-76337508D01*
X225056000Y-76354572D01*
X226556000Y-76354572D01*
X226729254Y-76337508D01*
X226895850Y-76286972D01*
X227049386Y-76204905D01*
X227183962Y-76094462D01*
X227294405Y-75959886D01*
X227376472Y-75806350D01*
X227427008Y-75639754D01*
X227444072Y-75466500D01*
X227444072Y-74266500D01*
X227427008Y-74093246D01*
X227376472Y-73926650D01*
X227294405Y-73773114D01*
X227183962Y-73638538D01*
X227049386Y-73528095D01*
X226947663Y-73473723D01*
X227011134Y-73421634D01*
X227196706Y-73195514D01*
X227334599Y-72937534D01*
X227419513Y-72657611D01*
X227448185Y-72366500D01*
X227419513Y-72075389D01*
X227334599Y-71795466D01*
X227196706Y-71537486D01*
X227011134Y-71311366D01*
X226785014Y-71125794D01*
X226527034Y-70987901D01*
X226247111Y-70902987D01*
X226028950Y-70881500D01*
X225583050Y-70881500D01*
X225364889Y-70902987D01*
X225084966Y-70987901D01*
X224826986Y-71125794D01*
X224600866Y-71311366D01*
X224415294Y-71537486D01*
X224277401Y-71795466D01*
X224192487Y-72075389D01*
X224163815Y-72366500D01*
X215706072Y-72366500D01*
X215706072Y-71190000D01*
X215693812Y-71065518D01*
X215657502Y-70945820D01*
X215598537Y-70835506D01*
X215519185Y-70738815D01*
X215422494Y-70659463D01*
X215312180Y-70600498D01*
X215192482Y-70564188D01*
X215068000Y-70551928D01*
X212668000Y-70551928D01*
X212543518Y-70564188D01*
X212423820Y-70600498D01*
X212313506Y-70659463D01*
X212216815Y-70738815D01*
X212137463Y-70835506D01*
X212078498Y-70945820D01*
X212042188Y-71065518D01*
X212029928Y-71190000D01*
X204051853Y-71190000D01*
X203105356Y-69486306D01*
X203072974Y-69425724D01*
X203045252Y-69391945D01*
X203020392Y-69356015D01*
X202997880Y-69334222D01*
X202978001Y-69309999D01*
X202944226Y-69282280D01*
X202912830Y-69251887D01*
X202886497Y-69234903D01*
X202862276Y-69215026D01*
X202823733Y-69194424D01*
X202787020Y-69170746D01*
X202757892Y-69159231D01*
X202730247Y-69144454D01*
X202688419Y-69131766D01*
X202647798Y-69115707D01*
X202616978Y-69110095D01*
X202586986Y-69100997D01*
X202543490Y-69096713D01*
X202500513Y-69088887D01*
X202431897Y-69090000D01*
X197087774Y-69090000D01*
X197066745Y-69065383D01*
X196819219Y-68870288D01*
X196491440Y-68660510D01*
X196491440Y-67458704D01*
X196460548Y-67145053D01*
X196444107Y-67090853D01*
X196438881Y-65834080D01*
X201045525Y-65834080D01*
X201129208Y-66088261D01*
X201401775Y-66219158D01*
X201694642Y-66294365D01*
X201996553Y-66310991D01*
X202295907Y-66268397D01*
X202581199Y-66168222D01*
X202730792Y-66088261D01*
X202814475Y-65834080D01*
X201930000Y-64949605D01*
X201045525Y-65834080D01*
X196438881Y-65834080D01*
X196434733Y-64836553D01*
X200389009Y-64836553D01*
X200431603Y-65135907D01*
X200531778Y-65421199D01*
X200611739Y-65570792D01*
X200865920Y-65654475D01*
X201750395Y-64770000D01*
X202109605Y-64770000D01*
X202994080Y-65654475D01*
X203248261Y-65570792D01*
X203379158Y-65298225D01*
X203454365Y-65005358D01*
X203470670Y-64709268D01*
X212033000Y-64709268D01*
X212033000Y-65070732D01*
X212103518Y-65425250D01*
X212241844Y-65759199D01*
X212442662Y-66059744D01*
X212698256Y-66315338D01*
X212998801Y-66516156D01*
X213332750Y-66654482D01*
X213687268Y-66725000D01*
X214048732Y-66725000D01*
X214403250Y-66654482D01*
X214737199Y-66516156D01*
X215037744Y-66315338D01*
X215293338Y-66059744D01*
X215494156Y-65759199D01*
X215632482Y-65425250D01*
X215703000Y-65070732D01*
X215703000Y-64709268D01*
X215632482Y-64354750D01*
X215494156Y-64020801D01*
X215293338Y-63720256D01*
X215037744Y-63464662D01*
X214737199Y-63263844D01*
X214403250Y-63125518D01*
X214048732Y-63055000D01*
X213687268Y-63055000D01*
X213332750Y-63125518D01*
X212998801Y-63263844D01*
X212698256Y-63464662D01*
X212442662Y-63720256D01*
X212241844Y-64020801D01*
X212103518Y-64354750D01*
X212033000Y-64709268D01*
X203470670Y-64709268D01*
X203470991Y-64703447D01*
X203428397Y-64404093D01*
X203328222Y-64118801D01*
X203248261Y-63969208D01*
X202994080Y-63885525D01*
X202109605Y-64770000D01*
X201750395Y-64770000D01*
X200865920Y-63885525D01*
X200611739Y-63969208D01*
X200480842Y-64241775D01*
X200405635Y-64534642D01*
X200389009Y-64836553D01*
X196434733Y-64836553D01*
X196430032Y-63705920D01*
X201045525Y-63705920D01*
X201930000Y-64590395D01*
X202814475Y-63705920D01*
X202730792Y-63451739D01*
X202458225Y-63320842D01*
X202165358Y-63245635D01*
X201863447Y-63229009D01*
X201564093Y-63271603D01*
X201278801Y-63371778D01*
X201129208Y-63451739D01*
X201045525Y-63705920D01*
X196430032Y-63705920D01*
X196429358Y-63544020D01*
X196397162Y-63230500D01*
X196273408Y-62828562D01*
X196073618Y-62458490D01*
X195805468Y-62134507D01*
X195479266Y-61869061D01*
X195107546Y-61672356D01*
X194704592Y-61551948D01*
X194285893Y-61512467D01*
X193867535Y-61555429D01*
X193465597Y-61679183D01*
X193095525Y-61878973D01*
X192771542Y-62147123D01*
X192506096Y-62473325D01*
X192309391Y-62845045D01*
X192188983Y-63247999D01*
X192159396Y-63561775D01*
X192175455Y-67423759D01*
X192205363Y-67715000D01*
X191157118Y-67715000D01*
X190881000Y-67742195D01*
X190604882Y-67715000D01*
X189125118Y-67715000D01*
X189103000Y-67717178D01*
X188976000Y-67704670D01*
X188557467Y-67745892D01*
X188155018Y-67867974D01*
X187784119Y-68066223D01*
X187459023Y-68333023D01*
X187192223Y-68658119D01*
X186993974Y-69029019D01*
X186871892Y-69431468D01*
X186841000Y-69745119D01*
X186841000Y-72689789D01*
X186818787Y-72539870D01*
X186723603Y-72273708D01*
X186656671Y-72148486D01*
X186412702Y-72076903D01*
X185599605Y-72890000D01*
X185613748Y-72904143D01*
X185434143Y-73083748D01*
X185420000Y-73069605D01*
X185405858Y-73083748D01*
X185226253Y-72904143D01*
X185240395Y-72890000D01*
X184427298Y-72076903D01*
X184298024Y-72114833D01*
X184306300Y-72081816D01*
X184315395Y-71897298D01*
X184606903Y-71897298D01*
X185420000Y-72710395D01*
X186233097Y-71897298D01*
X186161514Y-71653329D01*
X185906004Y-71532429D01*
X185631816Y-71463700D01*
X185349488Y-71449783D01*
X185069870Y-71491213D01*
X184803708Y-71586397D01*
X184678486Y-71653329D01*
X184606903Y-71897298D01*
X184315395Y-71897298D01*
X184320217Y-71799488D01*
X184278787Y-71519870D01*
X184183603Y-71253708D01*
X184116671Y-71128486D01*
X183872702Y-71056903D01*
X183059605Y-71870000D01*
X183872702Y-72683097D01*
X184001976Y-72645167D01*
X183993700Y-72678184D01*
X183979783Y-72960512D01*
X183983240Y-72983844D01*
X183794759Y-72795363D01*
X183559727Y-72638320D01*
X183404360Y-72573965D01*
X182880000Y-72049605D01*
X182355640Y-72573965D01*
X182200273Y-72638320D01*
X181965241Y-72795363D01*
X181765363Y-72995241D01*
X181661957Y-73150000D01*
X180811499Y-73150000D01*
X180804507Y-73147879D01*
X180655521Y-73133205D01*
X180506535Y-73147879D01*
X180363274Y-73191335D01*
X180231244Y-73261907D01*
X180144518Y-73333082D01*
X178113602Y-75363999D01*
X178056341Y-75394606D01*
X177940616Y-75489579D01*
X177845643Y-75605304D01*
X177775071Y-75737333D01*
X177731614Y-75880594D01*
X177720617Y-75992247D01*
X177720617Y-76957456D01*
X177647939Y-76943000D01*
X177444061Y-76943000D01*
X177244102Y-76982774D01*
X177215000Y-76994829D01*
X177215000Y-71940512D01*
X181439783Y-71940512D01*
X181481213Y-72220130D01*
X181576397Y-72486292D01*
X181643329Y-72611514D01*
X181887298Y-72683097D01*
X182700395Y-71870000D01*
X181887298Y-71056903D01*
X181643329Y-71128486D01*
X181522429Y-71383996D01*
X181453700Y-71658184D01*
X181439783Y-71940512D01*
X177215000Y-71940512D01*
X177215000Y-70877298D01*
X182066903Y-70877298D01*
X182880000Y-71690395D01*
X183693097Y-70877298D01*
X183621514Y-70633329D01*
X183366004Y-70512429D01*
X183091816Y-70443700D01*
X182809488Y-70429783D01*
X182529870Y-70471213D01*
X182263708Y-70566397D01*
X182138486Y-70633329D01*
X182066903Y-70877298D01*
X177215000Y-70877298D01*
X177215000Y-67349268D01*
X178745000Y-67349268D01*
X178745000Y-67710732D01*
X178815518Y-68065250D01*
X178953844Y-68399199D01*
X179154662Y-68699744D01*
X179410256Y-68955338D01*
X179710801Y-69156156D01*
X180044750Y-69294482D01*
X180399268Y-69365000D01*
X180760732Y-69365000D01*
X181115250Y-69294482D01*
X181449199Y-69156156D01*
X181749744Y-68955338D01*
X182005338Y-68699744D01*
X182206156Y-68399199D01*
X182344482Y-68065250D01*
X182415000Y-67710732D01*
X182415000Y-67349268D01*
X182344482Y-66994750D01*
X182206156Y-66660801D01*
X182162003Y-66594721D01*
X183285000Y-66594721D01*
X183285000Y-67015279D01*
X183367047Y-67427756D01*
X183527988Y-67816302D01*
X183761637Y-68165983D01*
X184059017Y-68463363D01*
X184408698Y-68697012D01*
X184797244Y-68857953D01*
X185209721Y-68940000D01*
X185630279Y-68940000D01*
X186042756Y-68857953D01*
X186431302Y-68697012D01*
X186780983Y-68463363D01*
X187078363Y-68165983D01*
X187312012Y-67816302D01*
X187472953Y-67427756D01*
X187555000Y-67015279D01*
X187555000Y-66594721D01*
X187472953Y-66182244D01*
X187312012Y-65793698D01*
X187078363Y-65444017D01*
X186780983Y-65146637D01*
X186431302Y-64912988D01*
X186042756Y-64752047D01*
X185630279Y-64670000D01*
X185209721Y-64670000D01*
X184797244Y-64752047D01*
X184408698Y-64912988D01*
X184059017Y-65146637D01*
X183761637Y-65444017D01*
X183527988Y-65793698D01*
X183367047Y-66182244D01*
X183285000Y-66594721D01*
X182162003Y-66594721D01*
X182005338Y-66360256D01*
X181749744Y-66104662D01*
X181449199Y-65903844D01*
X181115250Y-65765518D01*
X180760732Y-65695000D01*
X180399268Y-65695000D01*
X180044750Y-65765518D01*
X179710801Y-65903844D01*
X179410256Y-66104662D01*
X179154662Y-66360256D01*
X178953844Y-66660801D01*
X178815518Y-66994750D01*
X178745000Y-67349268D01*
X177215000Y-67349268D01*
X177215000Y-60739872D01*
X178105000Y-60739872D01*
X178105000Y-61180128D01*
X178190890Y-61611925D01*
X178359369Y-62018669D01*
X178603962Y-62384729D01*
X178915271Y-62696038D01*
X179281331Y-62940631D01*
X179688075Y-63109110D01*
X180119872Y-63195000D01*
X180560128Y-63195000D01*
X180991925Y-63109110D01*
X181398669Y-62940631D01*
X181764729Y-62696038D01*
X182076038Y-62384729D01*
X182320631Y-62018669D01*
X182489110Y-61611925D01*
X182575000Y-61180128D01*
X182575000Y-60739872D01*
X226105000Y-60739872D01*
X226105000Y-61180128D01*
X226190890Y-61611925D01*
X226359369Y-62018669D01*
X226603962Y-62384729D01*
X226915271Y-62696038D01*
X227281331Y-62940631D01*
X227688075Y-63109110D01*
X228119872Y-63195000D01*
X228560128Y-63195000D01*
X228991925Y-63109110D01*
X229398669Y-62940631D01*
X229764729Y-62696038D01*
X230076038Y-62384729D01*
X230320631Y-62018669D01*
X230489110Y-61611925D01*
X230575000Y-61180128D01*
X230575000Y-60739872D01*
X230489110Y-60308075D01*
X230320631Y-59901331D01*
X230076038Y-59535271D01*
X229764729Y-59223962D01*
X229398669Y-58979369D01*
X228991925Y-58810890D01*
X228560128Y-58725000D01*
X228119872Y-58725000D01*
X227688075Y-58810890D01*
X227281331Y-58979369D01*
X226915271Y-59223962D01*
X226603962Y-59535271D01*
X226359369Y-59901331D01*
X226190890Y-60308075D01*
X226105000Y-60739872D01*
X182575000Y-60739872D01*
X182489110Y-60308075D01*
X182320631Y-59901331D01*
X182076038Y-59535271D01*
X181764729Y-59223962D01*
X181398669Y-58979369D01*
X180991925Y-58810890D01*
X180560128Y-58725000D01*
X180119872Y-58725000D01*
X179688075Y-58810890D01*
X179281331Y-58979369D01*
X178915271Y-59223962D01*
X178603962Y-59535271D01*
X178359369Y-59901331D01*
X178190890Y-60308075D01*
X178105000Y-60739872D01*
X177215000Y-60739872D01*
X177215000Y-57835000D01*
X231725001Y-57835000D01*
X231725000Y-112345000D01*
%TD*%
M02*
