M48
; DRILL file {KiCad 5.1.6-c6e7f7d~87~ubuntu18.04.1} date Fri Jul 24 23:53:54 2020
; FORMAT={-:-/ absolute / inch / decimal}
; #@! TF.CreationDate,2020-07-24T23:53:54+09:00
; #@! TF.GenerationSoftware,Kicad,Pcbnew,5.1.6-c6e7f7d~87~ubuntu18.04.1
; #@! TF.FileFunction,Plated,1,2,PTH
FMAT,2
INCH
T1C0.0157
T2C0.0261
T3C0.0315
T4C0.0335
T5C0.0354
T6C0.0394
T7C0.0433
T8C0.0472
T9C0.0512
T10C0.0591
%
G90
G05
T1
X6.99Y-3.07
X7.4Y-2.95
X7.44Y-3.83
X7.45Y-2.75
X7.45Y-2.8
X7.45Y-2.85
X7.45Y-2.9
X7.5Y-2.75
X7.52Y-3.64
X7.52Y-3.69
X7.52Y-3.76
X7.52Y-3.82
X7.55Y-2.75
X7.56Y-3.165
X7.56Y-3.29
X7.56Y-3.44
X7.56Y-3.59
X7.56Y-3.59
X7.56Y-3.86
X7.5625Y-3.0375
X7.6Y-2.75
X7.65Y-2.6
X7.65Y-2.65
X7.65Y-2.7
X7.65Y-2.95
X7.84Y-2.95
X8.2636Y-3.7636
X8.3362Y-3.7638
X8.3866Y-3.7634
X8.45Y-3.75
X8.5Y-3.7
X8.55Y-3.7
T2
X8.65Y-3.7
X8.65Y-3.8
X8.65Y-3.9
T3
X7.8Y-3.15
X7.8Y-3.45
X7.9Y-3.15
X7.9Y-3.45
X8.9Y-3.15
X8.9Y-3.55
X8.35Y-3.15
X8.35Y-3.55
X7.6547Y-2.4949
X7.95Y-2.55
T4
X7.7Y-2.782
X7.9008Y-2.8529
T5
X8.9Y-3.75
X9.0Y-3.75
T6
X7.2Y-3.6295
X7.2Y-3.7098
X7.2Y-3.7902
X7.2Y-3.8705
X7.3Y-3.6697
X7.3Y-3.75
X7.3Y-3.8303
X7.3Y-3.9106
X8.5516Y-4.22
X8.65Y-4.22
X8.89Y-2.8491
X8.89Y-2.9475
X7.2Y-2.8295
X7.2Y-2.9098
X7.2Y-2.9902
X7.2Y-3.0705
X7.3Y-2.8697
X7.3Y-2.95
X7.3Y-3.0303
X7.3Y-3.1106
T7
X8.65Y-3.15
X8.65Y-3.55
X8.15Y-3.15
X8.15Y-3.55
T8
X8.42Y-2.5547
X8.42Y-2.85
T9
X7.59Y-4.0
X7.6687Y-3.7638
X7.6687Y-4.2362
X8.1491Y-3.7638
X8.1491Y-4.2362
T10
X7.3Y-3.4301
X7.3Y-4.0699
X7.3Y-2.6301
X7.3Y-3.2699
T0
M30
