%TF.GenerationSoftware,KiCad,Pcbnew,5.1.6-c6e7f7d~87~ubuntu18.04.1*%
%TF.CreationDate,2020-07-24T23:42:59+09:00*%
%TF.ProjectId,002,3030322e-6b69-4636-9164-5f7063625858,001*%
%TF.SameCoordinates,Original*%
%TF.FileFunction,Legend,Top*%
%TF.FilePolarity,Positive*%
%FSLAX46Y46*%
G04 Gerber Fmt 4.6, Leading zero omitted, Abs format (unit mm)*
G04 Created by KiCad (PCBNEW 5.1.6-c6e7f7d~87~ubuntu18.04.1) date 2020-07-24 23:42:59*
%MOMM*%
%LPD*%
G01*
G04 APERTURE LIST*
%ADD10C,0.150000*%
%ADD11C,0.120000*%
%ADD12C,0.300000*%
G04 APERTURE END LIST*
D10*
X185412142Y-106497380D02*
X184935952Y-106497380D01*
X184935952Y-105497380D01*
X185697857Y-106211666D02*
X186174047Y-106211666D01*
X185602619Y-106497380D02*
X185935952Y-105497380D01*
X186269285Y-106497380D01*
X186602619Y-106497380D02*
X186602619Y-105497380D01*
X187174047Y-106497380D01*
X187174047Y-105497380D01*
X181467380Y-60412380D02*
X182038809Y-60412380D01*
X181753095Y-61412380D02*
X181753095Y-60412380D01*
X182562619Y-60412380D02*
X182753095Y-60412380D01*
X182848333Y-60460000D01*
X182943571Y-60555238D01*
X182991190Y-60745714D01*
X182991190Y-61079047D01*
X182943571Y-61269523D01*
X182848333Y-61364761D01*
X182753095Y-61412380D01*
X182562619Y-61412380D01*
X182467380Y-61364761D01*
X182372142Y-61269523D01*
X182324523Y-61079047D01*
X182324523Y-60745714D01*
X182372142Y-60555238D01*
X182467380Y-60460000D01*
X182562619Y-60412380D01*
X183419761Y-61317142D02*
X183467380Y-61364761D01*
X183419761Y-61412380D01*
X183372142Y-61364761D01*
X183419761Y-61317142D01*
X183419761Y-61412380D01*
X183419761Y-60793333D02*
X183467380Y-60840952D01*
X183419761Y-60888571D01*
X183372142Y-60840952D01*
X183419761Y-60793333D01*
X183419761Y-60888571D01*
X183895952Y-61412380D02*
X183895952Y-60412380D01*
X184276904Y-60412380D01*
X184372142Y-60460000D01*
X184419761Y-60507619D01*
X184467380Y-60602857D01*
X184467380Y-60745714D01*
X184419761Y-60840952D01*
X184372142Y-60888571D01*
X184276904Y-60936190D01*
X183895952Y-60936190D01*
X184895952Y-61412380D02*
X184895952Y-60412380D01*
X185134047Y-60412380D01*
X185276904Y-60460000D01*
X185372142Y-60555238D01*
X185419761Y-60650476D01*
X185467380Y-60840952D01*
X185467380Y-60983809D01*
X185419761Y-61174285D01*
X185372142Y-61269523D01*
X185276904Y-61364761D01*
X185134047Y-61412380D01*
X184895952Y-61412380D01*
X140450000Y-71346428D02*
X140521428Y-71203571D01*
X140521428Y-70989285D01*
X140450000Y-70775000D01*
X140307142Y-70632142D01*
X140164285Y-70560714D01*
X139878571Y-70489285D01*
X139664285Y-70489285D01*
X139378571Y-70560714D01*
X139235714Y-70632142D01*
X139092857Y-70775000D01*
X139021428Y-70989285D01*
X139021428Y-71132142D01*
X139092857Y-71346428D01*
X139164285Y-71417857D01*
X139664285Y-71417857D01*
X139664285Y-71132142D01*
X139592857Y-74346428D02*
X139592857Y-75489285D01*
X139021428Y-74917857D02*
X140164285Y-74917857D01*
X139799285Y-79363571D02*
X139727857Y-79292142D01*
X139656428Y-79077857D01*
X139656428Y-78935000D01*
X139727857Y-78720714D01*
X139870714Y-78577857D01*
X140013571Y-78506428D01*
X140299285Y-78435000D01*
X140513571Y-78435000D01*
X140799285Y-78506428D01*
X140942142Y-78577857D01*
X141085000Y-78720714D01*
X141156428Y-78935000D01*
X141156428Y-79077857D01*
X141085000Y-79292142D01*
X141013571Y-79363571D01*
X141156428Y-80292142D02*
X141156428Y-80577857D01*
X141085000Y-80720714D01*
X140942142Y-80863571D01*
X140656428Y-80935000D01*
X140156428Y-80935000D01*
X139870714Y-80863571D01*
X139727857Y-80720714D01*
X139656428Y-80577857D01*
X139656428Y-80292142D01*
X139727857Y-80149285D01*
X139870714Y-80006428D01*
X140156428Y-79935000D01*
X140656428Y-79935000D01*
X140942142Y-80006428D01*
X141085000Y-80149285D01*
X141156428Y-80292142D01*
X139656428Y-81577857D02*
X141156428Y-81577857D01*
X139656428Y-82435000D01*
X141156428Y-82435000D01*
X141156428Y-82935000D02*
X141156428Y-83792142D01*
X139656428Y-83363571D02*
X141156428Y-83363571D01*
X139656428Y-85149285D02*
X140370714Y-84649285D01*
X139656428Y-84292142D02*
X141156428Y-84292142D01*
X141156428Y-84863571D01*
X141085000Y-85006428D01*
X141013571Y-85077857D01*
X140870714Y-85149285D01*
X140656428Y-85149285D01*
X140513571Y-85077857D01*
X140442142Y-85006428D01*
X140370714Y-84863571D01*
X140370714Y-84292142D01*
X141156428Y-86077857D02*
X141156428Y-86363571D01*
X141085000Y-86506428D01*
X140942142Y-86649285D01*
X140656428Y-86720714D01*
X140156428Y-86720714D01*
X139870714Y-86649285D01*
X139727857Y-86506428D01*
X139656428Y-86363571D01*
X139656428Y-86077857D01*
X139727857Y-85935000D01*
X139870714Y-85792142D01*
X140156428Y-85720714D01*
X140656428Y-85720714D01*
X140942142Y-85792142D01*
X141085000Y-85935000D01*
X141156428Y-86077857D01*
X139656428Y-88077857D02*
X139656428Y-87363571D01*
X141156428Y-87363571D01*
X151465238Y-58872380D02*
X151465238Y-57872380D01*
X151798571Y-58586666D01*
X152131904Y-57872380D01*
X152131904Y-58872380D01*
X152798571Y-57872380D02*
X152989047Y-57872380D01*
X153084285Y-57920000D01*
X153179523Y-58015238D01*
X153227142Y-58205714D01*
X153227142Y-58539047D01*
X153179523Y-58729523D01*
X153084285Y-58824761D01*
X152989047Y-58872380D01*
X152798571Y-58872380D01*
X152703333Y-58824761D01*
X152608095Y-58729523D01*
X152560476Y-58539047D01*
X152560476Y-58205714D01*
X152608095Y-58015238D01*
X152703333Y-57920000D01*
X152798571Y-57872380D01*
X153655714Y-58872380D02*
X153655714Y-57872380D01*
X153893809Y-57872380D01*
X154036666Y-57920000D01*
X154131904Y-58015238D01*
X154179523Y-58110476D01*
X154227142Y-58300952D01*
X154227142Y-58443809D01*
X154179523Y-58634285D01*
X154131904Y-58729523D01*
X154036666Y-58824761D01*
X153893809Y-58872380D01*
X153655714Y-58872380D01*
X154655714Y-58348571D02*
X154989047Y-58348571D01*
X155131904Y-58872380D02*
X154655714Y-58872380D01*
X154655714Y-57872380D01*
X155131904Y-57872380D01*
X156036666Y-58872380D02*
X155560476Y-58872380D01*
X155560476Y-57872380D01*
X156370000Y-58491428D02*
X157131904Y-58491428D01*
X157750952Y-58300952D02*
X157655714Y-58253333D01*
X157608095Y-58205714D01*
X157560476Y-58110476D01*
X157560476Y-58062857D01*
X157608095Y-57967619D01*
X157655714Y-57920000D01*
X157750952Y-57872380D01*
X157941428Y-57872380D01*
X158036666Y-57920000D01*
X158084285Y-57967619D01*
X158131904Y-58062857D01*
X158131904Y-58110476D01*
X158084285Y-58205714D01*
X158036666Y-58253333D01*
X157941428Y-58300952D01*
X157750952Y-58300952D01*
X157655714Y-58348571D01*
X157608095Y-58396190D01*
X157560476Y-58491428D01*
X157560476Y-58681904D01*
X157608095Y-58777142D01*
X157655714Y-58824761D01*
X157750952Y-58872380D01*
X157941428Y-58872380D01*
X158036666Y-58824761D01*
X158084285Y-58777142D01*
X158131904Y-58681904D01*
X158131904Y-58491428D01*
X158084285Y-58396190D01*
X158036666Y-58348571D01*
X157941428Y-58300952D01*
X158750952Y-57872380D02*
X158846190Y-57872380D01*
X158941428Y-57920000D01*
X158989047Y-57967619D01*
X159036666Y-58062857D01*
X159084285Y-58253333D01*
X159084285Y-58491428D01*
X159036666Y-58681904D01*
X158989047Y-58777142D01*
X158941428Y-58824761D01*
X158846190Y-58872380D01*
X158750952Y-58872380D01*
X158655714Y-58824761D01*
X158608095Y-58777142D01*
X158560476Y-58681904D01*
X158512857Y-58491428D01*
X158512857Y-58253333D01*
X158560476Y-58062857D01*
X158608095Y-57967619D01*
X158655714Y-57920000D01*
X158750952Y-57872380D01*
X159703333Y-57872380D02*
X159798571Y-57872380D01*
X159893809Y-57920000D01*
X159941428Y-57967619D01*
X159989047Y-58062857D01*
X160036666Y-58253333D01*
X160036666Y-58491428D01*
X159989047Y-58681904D01*
X159941428Y-58777142D01*
X159893809Y-58824761D01*
X159798571Y-58872380D01*
X159703333Y-58872380D01*
X159608095Y-58824761D01*
X159560476Y-58777142D01*
X159512857Y-58681904D01*
X159465238Y-58491428D01*
X159465238Y-58253333D01*
X159512857Y-58062857D01*
X159560476Y-57967619D01*
X159608095Y-57920000D01*
X159703333Y-57872380D01*
X160465238Y-58491428D02*
X161227142Y-58491428D01*
X161893809Y-57872380D02*
X161989047Y-57872380D01*
X162084285Y-57920000D01*
X162131904Y-57967619D01*
X162179523Y-58062857D01*
X162227142Y-58253333D01*
X162227142Y-58491428D01*
X162179523Y-58681904D01*
X162131904Y-58777142D01*
X162084285Y-58824761D01*
X161989047Y-58872380D01*
X161893809Y-58872380D01*
X161798571Y-58824761D01*
X161750952Y-58777142D01*
X161703333Y-58681904D01*
X161655714Y-58491428D01*
X161655714Y-58253333D01*
X161703333Y-58062857D01*
X161750952Y-57967619D01*
X161798571Y-57920000D01*
X161893809Y-57872380D01*
X162846190Y-57872380D02*
X162941428Y-57872380D01*
X163036666Y-57920000D01*
X163084285Y-57967619D01*
X163131904Y-58062857D01*
X163179523Y-58253333D01*
X163179523Y-58491428D01*
X163131904Y-58681904D01*
X163084285Y-58777142D01*
X163036666Y-58824761D01*
X162941428Y-58872380D01*
X162846190Y-58872380D01*
X162750952Y-58824761D01*
X162703333Y-58777142D01*
X162655714Y-58681904D01*
X162608095Y-58491428D01*
X162608095Y-58253333D01*
X162655714Y-58062857D01*
X162703333Y-57967619D01*
X162750952Y-57920000D01*
X162846190Y-57872380D01*
X164131904Y-58872380D02*
X163560476Y-58872380D01*
X163846190Y-58872380D02*
X163846190Y-57872380D01*
X163750952Y-58015238D01*
X163655714Y-58110476D01*
X163560476Y-58158095D01*
X165322380Y-58872380D02*
X165322380Y-57872380D01*
X165322380Y-58348571D02*
X165893809Y-58348571D01*
X165893809Y-58872380D02*
X165893809Y-57872380D01*
X166560476Y-57872380D02*
X166750952Y-57872380D01*
X166846190Y-57920000D01*
X166941428Y-58015238D01*
X166989047Y-58205714D01*
X166989047Y-58539047D01*
X166941428Y-58729523D01*
X166846190Y-58824761D01*
X166750952Y-58872380D01*
X166560476Y-58872380D01*
X166465238Y-58824761D01*
X166370000Y-58729523D01*
X166322380Y-58539047D01*
X166322380Y-58205714D01*
X166370000Y-58015238D01*
X166465238Y-57920000D01*
X166560476Y-57872380D01*
X167893809Y-58872380D02*
X167417619Y-58872380D01*
X167417619Y-57872380D01*
X168703333Y-58872380D02*
X168227142Y-58872380D01*
X168227142Y-57872380D01*
X169227142Y-58396190D02*
X169227142Y-58872380D01*
X168893809Y-57872380D02*
X169227142Y-58396190D01*
X169560476Y-57872380D01*
X170703333Y-58872380D02*
X170655714Y-58872380D01*
X170560476Y-58824761D01*
X170417619Y-58681904D01*
X170179523Y-58396190D01*
X170084285Y-58253333D01*
X170036666Y-58110476D01*
X170036666Y-58015238D01*
X170084285Y-57920000D01*
X170179523Y-57872380D01*
X170227142Y-57872380D01*
X170322380Y-57920000D01*
X170370000Y-58015238D01*
X170370000Y-58062857D01*
X170322380Y-58158095D01*
X170274761Y-58205714D01*
X169989047Y-58396190D01*
X169941428Y-58443809D01*
X169893809Y-58539047D01*
X169893809Y-58681904D01*
X169941428Y-58777142D01*
X169989047Y-58824761D01*
X170084285Y-58872380D01*
X170227142Y-58872380D01*
X170322380Y-58824761D01*
X170370000Y-58777142D01*
X170512857Y-58586666D01*
X170560476Y-58443809D01*
X170560476Y-58348571D01*
X171703333Y-58777142D02*
X171655714Y-58824761D01*
X171512857Y-58872380D01*
X171417619Y-58872380D01*
X171274761Y-58824761D01*
X171179523Y-58729523D01*
X171131904Y-58634285D01*
X171084285Y-58443809D01*
X171084285Y-58300952D01*
X171131904Y-58110476D01*
X171179523Y-58015238D01*
X171274761Y-57920000D01*
X171417619Y-57872380D01*
X171512857Y-57872380D01*
X171655714Y-57920000D01*
X171703333Y-57967619D01*
X172322380Y-57872380D02*
X172512857Y-57872380D01*
X172608095Y-57920000D01*
X172703333Y-58015238D01*
X172750952Y-58205714D01*
X172750952Y-58539047D01*
X172703333Y-58729523D01*
X172608095Y-58824761D01*
X172512857Y-58872380D01*
X172322380Y-58872380D01*
X172227142Y-58824761D01*
X172131904Y-58729523D01*
X172084285Y-58539047D01*
X172084285Y-58205714D01*
X172131904Y-58015238D01*
X172227142Y-57920000D01*
X172322380Y-57872380D01*
X173179523Y-58777142D02*
X173227142Y-58824761D01*
X173179523Y-58872380D01*
X173131904Y-58824761D01*
X173179523Y-58777142D01*
X173179523Y-58872380D01*
X173703333Y-58824761D02*
X173703333Y-58872380D01*
X173655714Y-58967619D01*
X173608095Y-59015238D01*
X174608095Y-58872380D02*
X174131904Y-58872380D01*
X174131904Y-57872380D01*
X174798571Y-57872380D02*
X175370000Y-57872380D01*
X175084285Y-58872380D02*
X175084285Y-57872380D01*
X175703333Y-58872380D02*
X175703333Y-57872380D01*
X175941428Y-57872380D01*
X176084285Y-57920000D01*
X176179523Y-58015238D01*
X176227142Y-58110476D01*
X176274761Y-58300952D01*
X176274761Y-58443809D01*
X176227142Y-58634285D01*
X176179523Y-58729523D01*
X176084285Y-58824761D01*
X175941428Y-58872380D01*
X175703333Y-58872380D01*
X176703333Y-58777142D02*
X176750952Y-58824761D01*
X176703333Y-58872380D01*
X176655714Y-58824761D01*
X176703333Y-58777142D01*
X176703333Y-58872380D01*
X177893809Y-57967619D02*
X177941428Y-57920000D01*
X178036666Y-57872380D01*
X178274761Y-57872380D01*
X178370000Y-57920000D01*
X178417619Y-57967619D01*
X178465238Y-58062857D01*
X178465238Y-58158095D01*
X178417619Y-58300952D01*
X177846190Y-58872380D01*
X178465238Y-58872380D01*
X179084285Y-57872380D02*
X179179523Y-57872380D01*
X179274761Y-57920000D01*
X179322380Y-57967619D01*
X179370000Y-58062857D01*
X179417619Y-58253333D01*
X179417619Y-58491428D01*
X179370000Y-58681904D01*
X179322380Y-58777142D01*
X179274761Y-58824761D01*
X179179523Y-58872380D01*
X179084285Y-58872380D01*
X178989047Y-58824761D01*
X178941428Y-58777142D01*
X178893809Y-58681904D01*
X178846190Y-58491428D01*
X178846190Y-58253333D01*
X178893809Y-58062857D01*
X178941428Y-57967619D01*
X178989047Y-57920000D01*
X179084285Y-57872380D01*
X179798571Y-57967619D02*
X179846190Y-57920000D01*
X179941428Y-57872380D01*
X180179523Y-57872380D01*
X180274761Y-57920000D01*
X180322380Y-57967619D01*
X180370000Y-58062857D01*
X180370000Y-58158095D01*
X180322380Y-58300952D01*
X179750952Y-58872380D01*
X180370000Y-58872380D01*
X180989047Y-57872380D02*
X181084285Y-57872380D01*
X181179523Y-57920000D01*
X181227142Y-57967619D01*
X181274761Y-58062857D01*
X181322380Y-58253333D01*
X181322380Y-58491428D01*
X181274761Y-58681904D01*
X181227142Y-58777142D01*
X181179523Y-58824761D01*
X181084285Y-58872380D01*
X180989047Y-58872380D01*
X180893809Y-58824761D01*
X180846190Y-58777142D01*
X180798571Y-58681904D01*
X180750952Y-58491428D01*
X180750952Y-58253333D01*
X180798571Y-58062857D01*
X180846190Y-57967619D01*
X180893809Y-57920000D01*
X180989047Y-57872380D01*
X174244000Y-100965000D02*
X166370000Y-100965000D01*
X164225000Y-99411666D02*
X164225000Y-98711666D01*
X164791666Y-99045000D02*
X164558333Y-99045000D01*
X164558333Y-99411666D02*
X164558333Y-98711666D01*
X164891666Y-98711666D01*
X165691666Y-99411666D02*
X165691666Y-98711666D01*
X166091666Y-99411666D01*
X166091666Y-98711666D01*
X166558333Y-98711666D02*
X166691666Y-98711666D01*
X166758333Y-98745000D01*
X166825000Y-98811666D01*
X166858333Y-98945000D01*
X166858333Y-99178333D01*
X166825000Y-99311666D01*
X166758333Y-99378333D01*
X166691666Y-99411666D01*
X166558333Y-99411666D01*
X166491666Y-99378333D01*
X166425000Y-99311666D01*
X166391666Y-99178333D01*
X166391666Y-98945000D01*
X166425000Y-98811666D01*
X166491666Y-98745000D01*
X166558333Y-98711666D01*
X167058333Y-98711666D02*
X167458333Y-98711666D01*
X167258333Y-99411666D02*
X167258333Y-98711666D01*
X168225000Y-98711666D02*
X168225000Y-99278333D01*
X168258333Y-99345000D01*
X168291666Y-99378333D01*
X168358333Y-99411666D01*
X168491666Y-99411666D01*
X168558333Y-99378333D01*
X168591666Y-99345000D01*
X168625000Y-99278333D01*
X168625000Y-98711666D01*
X168925000Y-99378333D02*
X169025000Y-99411666D01*
X169191666Y-99411666D01*
X169258333Y-99378333D01*
X169291666Y-99345000D01*
X169325000Y-99278333D01*
X169325000Y-99211666D01*
X169291666Y-99145000D01*
X169258333Y-99111666D01*
X169191666Y-99078333D01*
X169058333Y-99045000D01*
X168991666Y-99011666D01*
X168958333Y-98978333D01*
X168925000Y-98911666D01*
X168925000Y-98845000D01*
X168958333Y-98778333D01*
X168991666Y-98745000D01*
X169058333Y-98711666D01*
X169225000Y-98711666D01*
X169325000Y-98745000D01*
X169625000Y-99045000D02*
X169858333Y-99045000D01*
X169958333Y-99411666D02*
X169625000Y-99411666D01*
X169625000Y-98711666D01*
X169958333Y-98711666D01*
X171191666Y-99411666D02*
X170958333Y-99078333D01*
X170791666Y-99411666D02*
X170791666Y-98711666D01*
X171058333Y-98711666D01*
X171125000Y-98745000D01*
X171158333Y-98778333D01*
X171191666Y-98845000D01*
X171191666Y-98945000D01*
X171158333Y-99011666D01*
X171125000Y-99045000D01*
X171058333Y-99078333D01*
X170791666Y-99078333D01*
X171825000Y-99411666D02*
X171491666Y-99411666D01*
X171491666Y-98711666D01*
X172191666Y-99078333D02*
X172191666Y-99411666D01*
X171958333Y-98711666D02*
X172191666Y-99078333D01*
X172425000Y-98711666D01*
X162458333Y-100278333D02*
X162458333Y-100611666D01*
X162225000Y-99911666D02*
X162458333Y-100278333D01*
X162691666Y-99911666D01*
X163058333Y-99911666D02*
X163191666Y-99911666D01*
X163258333Y-99945000D01*
X163325000Y-100011666D01*
X163358333Y-100145000D01*
X163358333Y-100378333D01*
X163325000Y-100511666D01*
X163258333Y-100578333D01*
X163191666Y-100611666D01*
X163058333Y-100611666D01*
X162991666Y-100578333D01*
X162925000Y-100511666D01*
X162891666Y-100378333D01*
X162891666Y-100145000D01*
X162925000Y-100011666D01*
X162991666Y-99945000D01*
X163058333Y-99911666D01*
X163658333Y-99911666D02*
X163658333Y-100478333D01*
X163691666Y-100545000D01*
X163725000Y-100578333D01*
X163791666Y-100611666D01*
X163925000Y-100611666D01*
X163991666Y-100578333D01*
X164025000Y-100545000D01*
X164058333Y-100478333D01*
X164058333Y-99911666D01*
X164925000Y-100611666D02*
X164925000Y-99911666D01*
X165158333Y-100411666D01*
X165391666Y-99911666D01*
X165391666Y-100611666D01*
X165725000Y-99911666D02*
X165725000Y-100478333D01*
X165758333Y-100545000D01*
X165791666Y-100578333D01*
X165858333Y-100611666D01*
X165991666Y-100611666D01*
X166058333Y-100578333D01*
X166091666Y-100545000D01*
X166125000Y-100478333D01*
X166125000Y-99911666D01*
X166425000Y-100578333D02*
X166525000Y-100611666D01*
X166691666Y-100611666D01*
X166758333Y-100578333D01*
X166791666Y-100545000D01*
X166825000Y-100478333D01*
X166825000Y-100411666D01*
X166791666Y-100345000D01*
X166758333Y-100311666D01*
X166691666Y-100278333D01*
X166558333Y-100245000D01*
X166491666Y-100211666D01*
X166458333Y-100178333D01*
X166425000Y-100111666D01*
X166425000Y-100045000D01*
X166458333Y-99978333D01*
X166491666Y-99945000D01*
X166558333Y-99911666D01*
X166725000Y-99911666D01*
X166825000Y-99945000D01*
X167025000Y-99911666D02*
X167425000Y-99911666D01*
X167225000Y-100611666D02*
X167225000Y-99911666D01*
X168125000Y-99911666D02*
X168291666Y-100611666D01*
X168425000Y-100111666D01*
X168558333Y-100611666D01*
X168725000Y-99911666D01*
X168991666Y-100611666D02*
X168991666Y-99911666D01*
X169725000Y-100611666D02*
X169491666Y-100278333D01*
X169325000Y-100611666D02*
X169325000Y-99911666D01*
X169591666Y-99911666D01*
X169658333Y-99945000D01*
X169691666Y-99978333D01*
X169725000Y-100045000D01*
X169725000Y-100145000D01*
X169691666Y-100211666D01*
X169658333Y-100245000D01*
X169591666Y-100278333D01*
X169325000Y-100278333D01*
X170025000Y-100245000D02*
X170258333Y-100245000D01*
X170358333Y-100611666D02*
X170025000Y-100611666D01*
X170025000Y-99911666D01*
X170358333Y-99911666D01*
X171158333Y-100578333D02*
X171258333Y-100611666D01*
X171425000Y-100611666D01*
X171491666Y-100578333D01*
X171525000Y-100545000D01*
X171558333Y-100478333D01*
X171558333Y-100411666D01*
X171525000Y-100345000D01*
X171491666Y-100311666D01*
X171425000Y-100278333D01*
X171291666Y-100245000D01*
X171225000Y-100211666D01*
X171191666Y-100178333D01*
X171158333Y-100111666D01*
X171158333Y-100045000D01*
X171191666Y-99978333D01*
X171225000Y-99945000D01*
X171291666Y-99911666D01*
X171458333Y-99911666D01*
X171558333Y-99945000D01*
X171858333Y-100611666D02*
X171858333Y-99911666D01*
X171858333Y-100245000D02*
X172258333Y-100245000D01*
X172258333Y-100611666D02*
X172258333Y-99911666D01*
X172725000Y-99911666D02*
X172858333Y-99911666D01*
X172925000Y-99945000D01*
X172991666Y-100011666D01*
X173025000Y-100145000D01*
X173025000Y-100378333D01*
X172991666Y-100511666D01*
X172925000Y-100578333D01*
X172858333Y-100611666D01*
X172725000Y-100611666D01*
X172658333Y-100578333D01*
X172591666Y-100511666D01*
X172558333Y-100378333D01*
X172558333Y-100145000D01*
X172591666Y-100011666D01*
X172658333Y-99945000D01*
X172725000Y-99911666D01*
X173725000Y-100611666D02*
X173491666Y-100278333D01*
X173325000Y-100611666D02*
X173325000Y-99911666D01*
X173591666Y-99911666D01*
X173658333Y-99945000D01*
X173691666Y-99978333D01*
X173725000Y-100045000D01*
X173725000Y-100145000D01*
X173691666Y-100211666D01*
X173658333Y-100245000D01*
X173591666Y-100278333D01*
X173325000Y-100278333D01*
X173925000Y-99911666D02*
X174325000Y-99911666D01*
X174125000Y-100611666D02*
X174125000Y-99911666D01*
X166370000Y-100965000D02*
X163830000Y-105029000D01*
X150022857Y-109105000D02*
X149880000Y-109033571D01*
X149665714Y-109033571D01*
X149451428Y-109105000D01*
X149308571Y-109247857D01*
X149237142Y-109390714D01*
X149165714Y-109676428D01*
X149165714Y-109890714D01*
X149237142Y-110176428D01*
X149308571Y-110319285D01*
X149451428Y-110462142D01*
X149665714Y-110533571D01*
X149808571Y-110533571D01*
X150022857Y-110462142D01*
X150094285Y-110390714D01*
X150094285Y-109890714D01*
X149808571Y-109890714D01*
X151880000Y-109962142D02*
X153022857Y-109962142D01*
X152451428Y-110533571D02*
X152451428Y-109390714D01*
X148820476Y-112212380D02*
X148820476Y-111212380D01*
X149201428Y-111212380D01*
X149296666Y-111260000D01*
X149344285Y-111307619D01*
X149391904Y-111402857D01*
X149391904Y-111545714D01*
X149344285Y-111640952D01*
X149296666Y-111688571D01*
X149201428Y-111736190D01*
X148820476Y-111736190D01*
X150010952Y-111212380D02*
X150201428Y-111212380D01*
X150296666Y-111260000D01*
X150391904Y-111355238D01*
X150439523Y-111545714D01*
X150439523Y-111879047D01*
X150391904Y-112069523D01*
X150296666Y-112164761D01*
X150201428Y-112212380D01*
X150010952Y-112212380D01*
X149915714Y-112164761D01*
X149820476Y-112069523D01*
X149772857Y-111879047D01*
X149772857Y-111545714D01*
X149820476Y-111355238D01*
X149915714Y-111260000D01*
X150010952Y-111212380D01*
X150772857Y-111212380D02*
X151010952Y-112212380D01*
X151201428Y-111498095D01*
X151391904Y-112212380D01*
X151630000Y-111212380D01*
X152010952Y-111688571D02*
X152344285Y-111688571D01*
X152487142Y-112212380D02*
X152010952Y-112212380D01*
X152010952Y-111212380D01*
X152487142Y-111212380D01*
X153487142Y-112212380D02*
X153153809Y-111736190D01*
X152915714Y-112212380D02*
X152915714Y-111212380D01*
X153296666Y-111212380D01*
X153391904Y-111260000D01*
X153439523Y-111307619D01*
X153487142Y-111402857D01*
X153487142Y-111545714D01*
X153439523Y-111640952D01*
X153391904Y-111688571D01*
X153296666Y-111736190D01*
X152915714Y-111736190D01*
X157221428Y-111667857D02*
X157221428Y-110467857D01*
X157621428Y-111325000D01*
X158021428Y-110467857D01*
X158021428Y-111667857D01*
X158764285Y-110982142D02*
X158650000Y-110925000D01*
X158592857Y-110867857D01*
X158535714Y-110753571D01*
X158535714Y-110696428D01*
X158592857Y-110582142D01*
X158650000Y-110525000D01*
X158764285Y-110467857D01*
X158992857Y-110467857D01*
X159107142Y-110525000D01*
X159164285Y-110582142D01*
X159221428Y-110696428D01*
X159221428Y-110753571D01*
X159164285Y-110867857D01*
X159107142Y-110925000D01*
X158992857Y-110982142D01*
X158764285Y-110982142D01*
X158650000Y-111039285D01*
X158592857Y-111096428D01*
X158535714Y-111210714D01*
X158535714Y-111439285D01*
X158592857Y-111553571D01*
X158650000Y-111610714D01*
X158764285Y-111667857D01*
X158992857Y-111667857D01*
X159107142Y-111610714D01*
X159164285Y-111553571D01*
X159221428Y-111439285D01*
X159221428Y-111210714D01*
X159164285Y-111096428D01*
X159107142Y-111039285D01*
X158992857Y-110982142D01*
X159964285Y-110467857D02*
X160078571Y-110467857D01*
X160192857Y-110525000D01*
X160250000Y-110582142D01*
X160307142Y-110696428D01*
X160364285Y-110925000D01*
X160364285Y-111210714D01*
X160307142Y-111439285D01*
X160250000Y-111553571D01*
X160192857Y-111610714D01*
X160078571Y-111667857D01*
X159964285Y-111667857D01*
X159850000Y-111610714D01*
X159792857Y-111553571D01*
X159735714Y-111439285D01*
X159678571Y-111210714D01*
X159678571Y-110925000D01*
X159735714Y-110696428D01*
X159792857Y-110582142D01*
X159850000Y-110525000D01*
X159964285Y-110467857D01*
X161107142Y-110467857D02*
X161221428Y-110467857D01*
X161335714Y-110525000D01*
X161392857Y-110582142D01*
X161450000Y-110696428D01*
X161507142Y-110925000D01*
X161507142Y-111210714D01*
X161450000Y-111439285D01*
X161392857Y-111553571D01*
X161335714Y-111610714D01*
X161221428Y-111667857D01*
X161107142Y-111667857D01*
X160992857Y-111610714D01*
X160935714Y-111553571D01*
X160878571Y-111439285D01*
X160821428Y-111210714D01*
X160821428Y-110925000D01*
X160878571Y-110696428D01*
X160935714Y-110582142D01*
X160992857Y-110525000D01*
X161107142Y-110467857D01*
X162021428Y-111210714D02*
X162935714Y-111210714D01*
X163507142Y-111667857D02*
X163507142Y-110467857D01*
X164192857Y-111667857D01*
X164192857Y-110467857D01*
X165450000Y-111553571D02*
X165392857Y-111610714D01*
X165221428Y-111667857D01*
X165107142Y-111667857D01*
X164935714Y-111610714D01*
X164821428Y-111496428D01*
X164764285Y-111382142D01*
X164707142Y-111153571D01*
X164707142Y-110982142D01*
X164764285Y-110753571D01*
X164821428Y-110639285D01*
X164935714Y-110525000D01*
X165107142Y-110467857D01*
X165221428Y-110467857D01*
X165392857Y-110525000D01*
X165450000Y-110582142D01*
X165850000Y-111667857D02*
X166478571Y-110867857D01*
X165850000Y-110867857D02*
X166478571Y-111667857D01*
X166935714Y-111667857D02*
X166935714Y-110467857D01*
X167392857Y-110467857D01*
X167507142Y-110525000D01*
X167564285Y-110582142D01*
X167621428Y-110696428D01*
X167621428Y-110867857D01*
X167564285Y-110982142D01*
X167507142Y-111039285D01*
X167392857Y-111096428D01*
X166935714Y-111096428D01*
X168307142Y-111667857D02*
X168192857Y-111610714D01*
X168135714Y-111553571D01*
X168078571Y-111439285D01*
X168078571Y-111096428D01*
X168135714Y-110982142D01*
X168192857Y-110925000D01*
X168307142Y-110867857D01*
X168478571Y-110867857D01*
X168592857Y-110925000D01*
X168650000Y-110982142D01*
X168707142Y-111096428D01*
X168707142Y-111439285D01*
X168650000Y-111553571D01*
X168592857Y-111610714D01*
X168478571Y-111667857D01*
X168307142Y-111667857D01*
X169221428Y-111039285D02*
X169621428Y-111039285D01*
X169792857Y-111667857D02*
X169221428Y-111667857D01*
X169221428Y-110467857D01*
X169792857Y-110467857D01*
X170307142Y-111210714D02*
X171221428Y-111210714D01*
X171792857Y-111667857D02*
X171792857Y-110467857D01*
X172250000Y-110467857D01*
X172364285Y-110525000D01*
X172421428Y-110582142D01*
X172478571Y-110696428D01*
X172478571Y-110867857D01*
X172421428Y-110982142D01*
X172364285Y-111039285D01*
X172250000Y-111096428D01*
X171792857Y-111096428D01*
X172935714Y-111610714D02*
X173107142Y-111667857D01*
X173392857Y-111667857D01*
X173507142Y-111610714D01*
X173564285Y-111553571D01*
X173621428Y-111439285D01*
X173621428Y-111325000D01*
X173564285Y-111210714D01*
X173507142Y-111153571D01*
X173392857Y-111096428D01*
X173164285Y-111039285D01*
X173050000Y-110982142D01*
X172992857Y-110925000D01*
X172935714Y-110810714D01*
X172935714Y-110696428D01*
X172992857Y-110582142D01*
X173050000Y-110525000D01*
X173164285Y-110467857D01*
X173450000Y-110467857D01*
X173621428Y-110525000D01*
X174135714Y-111039285D02*
X174535714Y-111039285D01*
X174707142Y-111667857D02*
X174135714Y-111667857D01*
X174135714Y-110467857D01*
X174707142Y-110467857D01*
X175221428Y-111210714D02*
X176135714Y-111210714D01*
X177392857Y-111553571D02*
X177335714Y-111610714D01*
X177164285Y-111667857D01*
X177050000Y-111667857D01*
X176878571Y-111610714D01*
X176764285Y-111496428D01*
X176707142Y-111382142D01*
X176650000Y-111153571D01*
X176650000Y-110982142D01*
X176707142Y-110753571D01*
X176764285Y-110639285D01*
X176878571Y-110525000D01*
X177050000Y-110467857D01*
X177164285Y-110467857D01*
X177335714Y-110525000D01*
X177392857Y-110582142D01*
X177850000Y-111325000D02*
X178421428Y-111325000D01*
X177735714Y-111667857D02*
X178135714Y-110467857D01*
X178535714Y-111667857D01*
X179621428Y-111667857D02*
X179221428Y-111096428D01*
X178935714Y-111667857D02*
X178935714Y-110467857D01*
X179392857Y-110467857D01*
X179507142Y-110525000D01*
X179564285Y-110582142D01*
X179621428Y-110696428D01*
X179621428Y-110867857D01*
X179564285Y-110982142D01*
X179507142Y-111039285D01*
X179392857Y-111096428D01*
X178935714Y-111096428D01*
X180135714Y-111667857D02*
X180135714Y-110467857D01*
X180421428Y-110467857D01*
X180592857Y-110525000D01*
X180707142Y-110639285D01*
X180764285Y-110753571D01*
X180821428Y-110982142D01*
X180821428Y-111153571D01*
X180764285Y-111382142D01*
X180707142Y-111496428D01*
X180592857Y-111610714D01*
X180421428Y-111667857D01*
X180135714Y-111667857D01*
X181335714Y-111210714D02*
X182250000Y-111210714D01*
X183050000Y-110467857D02*
X183164285Y-110467857D01*
X183278571Y-110525000D01*
X183335714Y-110582142D01*
X183392857Y-110696428D01*
X183450000Y-110925000D01*
X183450000Y-111210714D01*
X183392857Y-111439285D01*
X183335714Y-111553571D01*
X183278571Y-111610714D01*
X183164285Y-111667857D01*
X183050000Y-111667857D01*
X182935714Y-111610714D01*
X182878571Y-111553571D01*
X182821428Y-111439285D01*
X182764285Y-111210714D01*
X182764285Y-110925000D01*
X182821428Y-110696428D01*
X182878571Y-110582142D01*
X182935714Y-110525000D01*
X183050000Y-110467857D01*
X184192857Y-110467857D02*
X184307142Y-110467857D01*
X184421428Y-110525000D01*
X184478571Y-110582142D01*
X184535714Y-110696428D01*
X184592857Y-110925000D01*
X184592857Y-111210714D01*
X184535714Y-111439285D01*
X184478571Y-111553571D01*
X184421428Y-111610714D01*
X184307142Y-111667857D01*
X184192857Y-111667857D01*
X184078571Y-111610714D01*
X184021428Y-111553571D01*
X183964285Y-111439285D01*
X183907142Y-111210714D01*
X183907142Y-110925000D01*
X183964285Y-110696428D01*
X184021428Y-110582142D01*
X184078571Y-110525000D01*
X184192857Y-110467857D01*
X185735714Y-111667857D02*
X185050000Y-111667857D01*
X185392857Y-111667857D02*
X185392857Y-110467857D01*
X185278571Y-110639285D01*
X185164285Y-110753571D01*
X185050000Y-110810714D01*
D11*
%TO.C,J12*%
X181765000Y-102965000D02*
X181765000Y-86265000D01*
X181765000Y-86265000D02*
X196365000Y-86265000D01*
X196365000Y-86265000D02*
X196365000Y-102965000D01*
X196365000Y-102965000D02*
X181765000Y-102965000D01*
X194265000Y-102965000D02*
X194265000Y-86265000D01*
D12*
X189865000Y-91015000D02*
X196065000Y-91015000D01*
X189865000Y-91935000D02*
X196065000Y-91935000D01*
X189865000Y-92955000D02*
X196065000Y-92955000D01*
X189865000Y-93975000D02*
X196065000Y-93975000D01*
X189865000Y-94995000D02*
X196065000Y-94995000D01*
X189865000Y-96015000D02*
X196065000Y-96015000D01*
X189865000Y-97035000D02*
X196065000Y-97035000D01*
X189865000Y-98055000D02*
X196065000Y-98055000D01*
D11*
%TO.C,J11*%
X181765000Y-82645000D02*
X181765000Y-65945000D01*
X181765000Y-65945000D02*
X196365000Y-65945000D01*
X196365000Y-65945000D02*
X196365000Y-82645000D01*
X196365000Y-82645000D02*
X181765000Y-82645000D01*
X194265000Y-82645000D02*
X194265000Y-65945000D01*
D12*
X189865000Y-70695000D02*
X196065000Y-70695000D01*
X189865000Y-71615000D02*
X196065000Y-71615000D01*
X189865000Y-72635000D02*
X196065000Y-72635000D01*
X189865000Y-73655000D02*
X196065000Y-73655000D01*
X189865000Y-74675000D02*
X196065000Y-74675000D01*
X189865000Y-75695000D02*
X196065000Y-75695000D01*
X189865000Y-76715000D02*
X196065000Y-76715000D01*
X189865000Y-77735000D02*
X196065000Y-77735000D01*
D11*
%TO.C,FL11*%
X150876000Y-92456000D02*
X150876000Y-100838000D01*
X153924000Y-92456000D02*
X150876000Y-92456000D01*
X153924000Y-100838000D02*
X153924000Y-92456000D01*
X150876000Y-100838000D02*
X153924000Y-100838000D01*
%TO.C,R12*%
X146150000Y-81820000D02*
X143410000Y-81820000D01*
X143410000Y-81820000D02*
X143410000Y-88360000D01*
X143410000Y-88360000D02*
X146150000Y-88360000D01*
X146150000Y-88360000D02*
X146150000Y-81820000D01*
X144780000Y-81050000D02*
X144780000Y-81820000D01*
X144780000Y-89130000D02*
X144780000Y-88360000D01*
%TO.C,D13*%
X141950000Y-94649000D02*
X141950000Y-94805000D01*
X141950000Y-96965000D02*
X141950000Y-97121000D01*
X144551130Y-96964837D02*
G75*
G02*
X142469039Y-96965000I-1041130J1079837D01*
G01*
X144551130Y-94805163D02*
G75*
G03*
X142469039Y-94805000I-1041130J-1079837D01*
G01*
X145182335Y-96963608D02*
G75*
G02*
X141950000Y-97120516I-1672335J1078608D01*
G01*
X145182335Y-94806392D02*
G75*
G03*
X141950000Y-94649484I-1672335J-1078608D01*
G01*
%TO.C,CN12*%
X154960000Y-108505000D02*
X154960000Y-102535000D01*
X154960000Y-102535000D02*
X147340000Y-102535000D01*
X147340000Y-102535000D02*
X147340000Y-108505000D01*
X147340000Y-108505000D02*
X154960000Y-108505000D01*
X151650000Y-108495000D02*
X151650000Y-107745000D01*
X151650000Y-107745000D02*
X150650000Y-107745000D01*
X150650000Y-107745000D02*
X150650000Y-108495000D01*
X150650000Y-108495000D02*
X151650000Y-108495000D01*
X154950000Y-108495000D02*
X154950000Y-107745000D01*
X154950000Y-107745000D02*
X153150000Y-107745000D01*
X153150000Y-107745000D02*
X153150000Y-108495000D01*
X153150000Y-108495000D02*
X154950000Y-108495000D01*
X149150000Y-108495000D02*
X149150000Y-107745000D01*
X149150000Y-107745000D02*
X147350000Y-107745000D01*
X147350000Y-107745000D02*
X147350000Y-108495000D01*
X147350000Y-108495000D02*
X149150000Y-108495000D01*
X154950000Y-106245000D02*
X154200000Y-106245000D01*
X154200000Y-106245000D02*
X154200000Y-103295000D01*
X154200000Y-103295000D02*
X151150000Y-103295000D01*
X147350000Y-106245000D02*
X148100000Y-106245000D01*
X148100000Y-106245000D02*
X148100000Y-103295000D01*
X148100000Y-103295000D02*
X151150000Y-103295000D01*
X154000000Y-108795000D02*
X155250000Y-108795000D01*
X155250000Y-108795000D02*
X155250000Y-107545000D01*
D10*
%TO.C,RV11*%
X178780000Y-65295000D02*
X166780000Y-65295000D01*
X178780000Y-69195000D02*
X166780000Y-69195000D01*
X166780000Y-69195000D02*
X166780000Y-65295000D01*
X178780000Y-69195000D02*
X178780000Y-65295000D01*
D11*
%TO.C,R11*%
X162655000Y-82650000D02*
X162655000Y-79910000D01*
X162655000Y-79910000D02*
X156115000Y-79910000D01*
X156115000Y-79910000D02*
X156115000Y-82650000D01*
X156115000Y-82650000D02*
X162655000Y-82650000D01*
X163425000Y-81280000D02*
X162655000Y-81280000D01*
X155345000Y-81280000D02*
X156115000Y-81280000D01*
%TO.C,C11*%
X170800000Y-62965000D02*
X164560000Y-62965000D01*
X170800000Y-60225000D02*
X164560000Y-60225000D01*
X170800000Y-62965000D02*
X170800000Y-62520000D01*
X170800000Y-60670000D02*
X170800000Y-60225000D01*
X164560000Y-62965000D02*
X164560000Y-62520000D01*
X164560000Y-60670000D02*
X164560000Y-60225000D01*
%TO.C,C12*%
X164965000Y-68640000D02*
G75*
G03*
X164965000Y-68640000I-8120000J0D01*
G01*
X148764000Y-68640000D02*
X164926000Y-68640000D01*
X148765000Y-68600000D02*
X164925000Y-68600000D01*
X148765000Y-68560000D02*
X164925000Y-68560000D01*
X148765000Y-68520000D02*
X164925000Y-68520000D01*
X148766000Y-68480000D02*
X164924000Y-68480000D01*
X148767000Y-68440000D02*
X164923000Y-68440000D01*
X148768000Y-68400000D02*
X164922000Y-68400000D01*
X148769000Y-68360000D02*
X164921000Y-68360000D01*
X148771000Y-68320000D02*
X164919000Y-68320000D01*
X148772000Y-68280000D02*
X164918000Y-68280000D01*
X148774000Y-68240000D02*
X164916000Y-68240000D01*
X148776000Y-68200000D02*
X164914000Y-68200000D01*
X148779000Y-68160000D02*
X164911000Y-68160000D01*
X148781000Y-68120000D02*
X164909000Y-68120000D01*
X148784000Y-68080000D02*
X164906000Y-68080000D01*
X148787000Y-68040000D02*
X164903000Y-68040000D01*
X148790000Y-68000000D02*
X164900000Y-68000000D01*
X148793000Y-67960000D02*
X164897000Y-67960000D01*
X148796000Y-67919000D02*
X164894000Y-67919000D01*
X148800000Y-67879000D02*
X164890000Y-67879000D01*
X148804000Y-67839000D02*
X164886000Y-67839000D01*
X148808000Y-67799000D02*
X164882000Y-67799000D01*
X148812000Y-67759000D02*
X164878000Y-67759000D01*
X148817000Y-67719000D02*
X164873000Y-67719000D01*
X148821000Y-67679000D02*
X164869000Y-67679000D01*
X148826000Y-67639000D02*
X164864000Y-67639000D01*
X148831000Y-67599000D02*
X164859000Y-67599000D01*
X148837000Y-67559000D02*
X164853000Y-67559000D01*
X148842000Y-67519000D02*
X164848000Y-67519000D01*
X148848000Y-67479000D02*
X164842000Y-67479000D01*
X148854000Y-67439000D02*
X164836000Y-67439000D01*
X148860000Y-67399000D02*
X164830000Y-67399000D01*
X148866000Y-67359000D02*
X164824000Y-67359000D01*
X148873000Y-67319000D02*
X164817000Y-67319000D01*
X148879000Y-67279000D02*
X164811000Y-67279000D01*
X148886000Y-67239000D02*
X164804000Y-67239000D01*
X148893000Y-67199000D02*
X164797000Y-67199000D01*
X148901000Y-67159000D02*
X164789000Y-67159000D01*
X148908000Y-67119000D02*
X164782000Y-67119000D01*
X148916000Y-67079000D02*
X164774000Y-67079000D01*
X148924000Y-67039000D02*
X164766000Y-67039000D01*
X148932000Y-66999000D02*
X164758000Y-66999000D01*
X148940000Y-66959000D02*
X164750000Y-66959000D01*
X148949000Y-66919000D02*
X164741000Y-66919000D01*
X148958000Y-66879000D02*
X164732000Y-66879000D01*
X148967000Y-66839000D02*
X164723000Y-66839000D01*
X148976000Y-66799000D02*
X164714000Y-66799000D01*
X148985000Y-66759000D02*
X164705000Y-66759000D01*
X148995000Y-66719000D02*
X164695000Y-66719000D01*
X149005000Y-66679000D02*
X164685000Y-66679000D01*
X149015000Y-66639000D02*
X164675000Y-66639000D01*
X149025000Y-66599000D02*
X164665000Y-66599000D01*
X149035000Y-66559000D02*
X164655000Y-66559000D01*
X149046000Y-66519000D02*
X164644000Y-66519000D01*
X149057000Y-66479000D02*
X164633000Y-66479000D01*
X149068000Y-66439000D02*
X164622000Y-66439000D01*
X149080000Y-66399000D02*
X164610000Y-66399000D01*
X149091000Y-66359000D02*
X164599000Y-66359000D01*
X149103000Y-66319000D02*
X155405000Y-66319000D01*
X158285000Y-66319000D02*
X164587000Y-66319000D01*
X149115000Y-66279000D02*
X155405000Y-66279000D01*
X158285000Y-66279000D02*
X164575000Y-66279000D01*
X149127000Y-66239000D02*
X155405000Y-66239000D01*
X158285000Y-66239000D02*
X164563000Y-66239000D01*
X149140000Y-66199000D02*
X155405000Y-66199000D01*
X158285000Y-66199000D02*
X164550000Y-66199000D01*
X149152000Y-66159000D02*
X155405000Y-66159000D01*
X158285000Y-66159000D02*
X164538000Y-66159000D01*
X149165000Y-66119000D02*
X155405000Y-66119000D01*
X158285000Y-66119000D02*
X164525000Y-66119000D01*
X149179000Y-66079000D02*
X155405000Y-66079000D01*
X158285000Y-66079000D02*
X164511000Y-66079000D01*
X149192000Y-66039000D02*
X155405000Y-66039000D01*
X158285000Y-66039000D02*
X164498000Y-66039000D01*
X149206000Y-65999000D02*
X155405000Y-65999000D01*
X158285000Y-65999000D02*
X164484000Y-65999000D01*
X149220000Y-65959000D02*
X155405000Y-65959000D01*
X158285000Y-65959000D02*
X164470000Y-65959000D01*
X149234000Y-65919000D02*
X155405000Y-65919000D01*
X158285000Y-65919000D02*
X164456000Y-65919000D01*
X149248000Y-65879000D02*
X155405000Y-65879000D01*
X158285000Y-65879000D02*
X164442000Y-65879000D01*
X149263000Y-65839000D02*
X155405000Y-65839000D01*
X158285000Y-65839000D02*
X164427000Y-65839000D01*
X149277000Y-65799000D02*
X155405000Y-65799000D01*
X158285000Y-65799000D02*
X164413000Y-65799000D01*
X149292000Y-65759000D02*
X155405000Y-65759000D01*
X158285000Y-65759000D02*
X164398000Y-65759000D01*
X149308000Y-65719000D02*
X155405000Y-65719000D01*
X158285000Y-65719000D02*
X164382000Y-65719000D01*
X149323000Y-65679000D02*
X155405000Y-65679000D01*
X158285000Y-65679000D02*
X164367000Y-65679000D01*
X149339000Y-65639000D02*
X155405000Y-65639000D01*
X158285000Y-65639000D02*
X164351000Y-65639000D01*
X149355000Y-65599000D02*
X155405000Y-65599000D01*
X158285000Y-65599000D02*
X164335000Y-65599000D01*
X149371000Y-65559000D02*
X155405000Y-65559000D01*
X158285000Y-65559000D02*
X164319000Y-65559000D01*
X149388000Y-65519000D02*
X155405000Y-65519000D01*
X158285000Y-65519000D02*
X164302000Y-65519000D01*
X149405000Y-65479000D02*
X155405000Y-65479000D01*
X158285000Y-65479000D02*
X164285000Y-65479000D01*
X149422000Y-65439000D02*
X155405000Y-65439000D01*
X158285000Y-65439000D02*
X164268000Y-65439000D01*
X149439000Y-65399000D02*
X155405000Y-65399000D01*
X158285000Y-65399000D02*
X164251000Y-65399000D01*
X149456000Y-65359000D02*
X155405000Y-65359000D01*
X158285000Y-65359000D02*
X164234000Y-65359000D01*
X149474000Y-65319000D02*
X155405000Y-65319000D01*
X158285000Y-65319000D02*
X164216000Y-65319000D01*
X149492000Y-65279000D02*
X155405000Y-65279000D01*
X158285000Y-65279000D02*
X164198000Y-65279000D01*
X149511000Y-65239000D02*
X155405000Y-65239000D01*
X158285000Y-65239000D02*
X164179000Y-65239000D01*
X149529000Y-65199000D02*
X155405000Y-65199000D01*
X158285000Y-65199000D02*
X164161000Y-65199000D01*
X149548000Y-65159000D02*
X155405000Y-65159000D01*
X158285000Y-65159000D02*
X164142000Y-65159000D01*
X149567000Y-65119000D02*
X155405000Y-65119000D01*
X158285000Y-65119000D02*
X164123000Y-65119000D01*
X149587000Y-65079000D02*
X155405000Y-65079000D01*
X158285000Y-65079000D02*
X164103000Y-65079000D01*
X149606000Y-65039000D02*
X155405000Y-65039000D01*
X158285000Y-65039000D02*
X164084000Y-65039000D01*
X149626000Y-64999000D02*
X155405000Y-64999000D01*
X158285000Y-64999000D02*
X164064000Y-64999000D01*
X149646000Y-64959000D02*
X155405000Y-64959000D01*
X158285000Y-64959000D02*
X164044000Y-64959000D01*
X149667000Y-64919000D02*
X155405000Y-64919000D01*
X158285000Y-64919000D02*
X164023000Y-64919000D01*
X149688000Y-64879000D02*
X155405000Y-64879000D01*
X158285000Y-64879000D02*
X164002000Y-64879000D01*
X149709000Y-64839000D02*
X155405000Y-64839000D01*
X158285000Y-64839000D02*
X163981000Y-64839000D01*
X149730000Y-64799000D02*
X155405000Y-64799000D01*
X158285000Y-64799000D02*
X163960000Y-64799000D01*
X149751000Y-64759000D02*
X155405000Y-64759000D01*
X158285000Y-64759000D02*
X163939000Y-64759000D01*
X149773000Y-64719000D02*
X155405000Y-64719000D01*
X158285000Y-64719000D02*
X163917000Y-64719000D01*
X149796000Y-64679000D02*
X155405000Y-64679000D01*
X158285000Y-64679000D02*
X163894000Y-64679000D01*
X149818000Y-64639000D02*
X155405000Y-64639000D01*
X158285000Y-64639000D02*
X163872000Y-64639000D01*
X149841000Y-64599000D02*
X155405000Y-64599000D01*
X158285000Y-64599000D02*
X163849000Y-64599000D01*
X149864000Y-64559000D02*
X155405000Y-64559000D01*
X158285000Y-64559000D02*
X163826000Y-64559000D01*
X149887000Y-64519000D02*
X155405000Y-64519000D01*
X158285000Y-64519000D02*
X163803000Y-64519000D01*
X149911000Y-64479000D02*
X155405000Y-64479000D01*
X158285000Y-64479000D02*
X163779000Y-64479000D01*
X149935000Y-64439000D02*
X155405000Y-64439000D01*
X158285000Y-64439000D02*
X163755000Y-64439000D01*
X149959000Y-64399000D02*
X155405000Y-64399000D01*
X158285000Y-64399000D02*
X163731000Y-64399000D01*
X149984000Y-64359000D02*
X155405000Y-64359000D01*
X158285000Y-64359000D02*
X163706000Y-64359000D01*
X150009000Y-64319000D02*
X155405000Y-64319000D01*
X158285000Y-64319000D02*
X163681000Y-64319000D01*
X150034000Y-64279000D02*
X155405000Y-64279000D01*
X158285000Y-64279000D02*
X163656000Y-64279000D01*
X150060000Y-64239000D02*
X155405000Y-64239000D01*
X158285000Y-64239000D02*
X163630000Y-64239000D01*
X150086000Y-64199000D02*
X155405000Y-64199000D01*
X158285000Y-64199000D02*
X163604000Y-64199000D01*
X150112000Y-64159000D02*
X155405000Y-64159000D01*
X158285000Y-64159000D02*
X163578000Y-64159000D01*
X150139000Y-64119000D02*
X155405000Y-64119000D01*
X158285000Y-64119000D02*
X163551000Y-64119000D01*
X150166000Y-64079000D02*
X155405000Y-64079000D01*
X158285000Y-64079000D02*
X163524000Y-64079000D01*
X150193000Y-64039000D02*
X155405000Y-64039000D01*
X158285000Y-64039000D02*
X163497000Y-64039000D01*
X150221000Y-63999000D02*
X155405000Y-63999000D01*
X158285000Y-63999000D02*
X163469000Y-63999000D01*
X150249000Y-63959000D02*
X155405000Y-63959000D01*
X158285000Y-63959000D02*
X163441000Y-63959000D01*
X150277000Y-63919000D02*
X155405000Y-63919000D01*
X158285000Y-63919000D02*
X163413000Y-63919000D01*
X150306000Y-63879000D02*
X155405000Y-63879000D01*
X158285000Y-63879000D02*
X163384000Y-63879000D01*
X150335000Y-63839000D02*
X155405000Y-63839000D01*
X158285000Y-63839000D02*
X163355000Y-63839000D01*
X150365000Y-63799000D02*
X155405000Y-63799000D01*
X158285000Y-63799000D02*
X163325000Y-63799000D01*
X150395000Y-63759000D02*
X155405000Y-63759000D01*
X158285000Y-63759000D02*
X163295000Y-63759000D01*
X150425000Y-63719000D02*
X155405000Y-63719000D01*
X158285000Y-63719000D02*
X163265000Y-63719000D01*
X150455000Y-63679000D02*
X155405000Y-63679000D01*
X158285000Y-63679000D02*
X163235000Y-63679000D01*
X150487000Y-63639000D02*
X155405000Y-63639000D01*
X158285000Y-63639000D02*
X163203000Y-63639000D01*
X150518000Y-63599000D02*
X155405000Y-63599000D01*
X158285000Y-63599000D02*
X163172000Y-63599000D01*
X150550000Y-63559000D02*
X155405000Y-63559000D01*
X158285000Y-63559000D02*
X163140000Y-63559000D01*
X150582000Y-63519000D02*
X155405000Y-63519000D01*
X158285000Y-63519000D02*
X163108000Y-63519000D01*
X150615000Y-63479000D02*
X155405000Y-63479000D01*
X158285000Y-63479000D02*
X163075000Y-63479000D01*
X150648000Y-63439000D02*
X163042000Y-63439000D01*
X150682000Y-63399000D02*
X163008000Y-63399000D01*
X150716000Y-63359000D02*
X162974000Y-63359000D01*
X150750000Y-63319000D02*
X162940000Y-63319000D01*
X150785000Y-63279000D02*
X162905000Y-63279000D01*
X150820000Y-63239000D02*
X162870000Y-63239000D01*
X150856000Y-63199000D02*
X162834000Y-63199000D01*
X150893000Y-63159000D02*
X162797000Y-63159000D01*
X150929000Y-63119000D02*
X162761000Y-63119000D01*
X150967000Y-63079000D02*
X162723000Y-63079000D01*
X151005000Y-63039000D02*
X162685000Y-63039000D01*
X151043000Y-62999000D02*
X162647000Y-62999000D01*
X151082000Y-62959000D02*
X162608000Y-62959000D01*
X151121000Y-62919000D02*
X162569000Y-62919000D01*
X151161000Y-62879000D02*
X162529000Y-62879000D01*
X151202000Y-62839000D02*
X162488000Y-62839000D01*
X151243000Y-62799000D02*
X162447000Y-62799000D01*
X151285000Y-62759000D02*
X162405000Y-62759000D01*
X151327000Y-62719000D02*
X162363000Y-62719000D01*
X151370000Y-62679000D02*
X162320000Y-62679000D01*
X151413000Y-62639000D02*
X162277000Y-62639000D01*
X151457000Y-62599000D02*
X162233000Y-62599000D01*
X151502000Y-62559000D02*
X162188000Y-62559000D01*
X151548000Y-62519000D02*
X162142000Y-62519000D01*
X151594000Y-62479000D02*
X162096000Y-62479000D01*
X151641000Y-62439000D02*
X162049000Y-62439000D01*
X151689000Y-62399000D02*
X162001000Y-62399000D01*
X151737000Y-62359000D02*
X161953000Y-62359000D01*
X151786000Y-62319000D02*
X161904000Y-62319000D01*
X151836000Y-62279000D02*
X161854000Y-62279000D01*
X151887000Y-62239000D02*
X161803000Y-62239000D01*
X151939000Y-62199000D02*
X161751000Y-62199000D01*
X151991000Y-62159000D02*
X161699000Y-62159000D01*
X152045000Y-62119000D02*
X161645000Y-62119000D01*
X152099000Y-62079000D02*
X161591000Y-62079000D01*
X152154000Y-62039000D02*
X161536000Y-62039000D01*
X152211000Y-61999000D02*
X161479000Y-61999000D01*
X152268000Y-61959000D02*
X161422000Y-61959000D01*
X152326000Y-61919000D02*
X161364000Y-61919000D01*
X152386000Y-61879000D02*
X161304000Y-61879000D01*
X152447000Y-61839000D02*
X161243000Y-61839000D01*
X152509000Y-61799000D02*
X161181000Y-61799000D01*
X152572000Y-61759000D02*
X161118000Y-61759000D01*
X152636000Y-61719000D02*
X161054000Y-61719000D01*
X152702000Y-61679000D02*
X160988000Y-61679000D01*
X152769000Y-61639000D02*
X160921000Y-61639000D01*
X152838000Y-61599000D02*
X160852000Y-61599000D01*
X152909000Y-61559000D02*
X160781000Y-61559000D01*
X152981000Y-61519000D02*
X160709000Y-61519000D01*
X153055000Y-61479000D02*
X160635000Y-61479000D01*
X153130000Y-61439000D02*
X160560000Y-61439000D01*
X153208000Y-61399000D02*
X160482000Y-61399000D01*
X153288000Y-61359000D02*
X160402000Y-61359000D01*
X153370000Y-61319000D02*
X160320000Y-61319000D01*
X153455000Y-61279000D02*
X160235000Y-61279000D01*
X153542000Y-61239000D02*
X160148000Y-61239000D01*
X153632000Y-61199000D02*
X160058000Y-61199000D01*
X153725000Y-61159000D02*
X159965000Y-61159000D01*
X153821000Y-61119000D02*
X159869000Y-61119000D01*
X153921000Y-61079000D02*
X159769000Y-61079000D01*
X154025000Y-61039000D02*
X159665000Y-61039000D01*
X154134000Y-60999000D02*
X159556000Y-60999000D01*
X154248000Y-60959000D02*
X159442000Y-60959000D01*
X154367000Y-60919000D02*
X159323000Y-60919000D01*
X154494000Y-60879000D02*
X159196000Y-60879000D01*
X154627000Y-60839000D02*
X159063000Y-60839000D01*
X154771000Y-60799000D02*
X158919000Y-60799000D01*
X154925000Y-60759000D02*
X158765000Y-60759000D01*
X155093000Y-60719000D02*
X158597000Y-60719000D01*
X155281000Y-60679000D02*
X158409000Y-60679000D01*
X155494000Y-60639000D02*
X158196000Y-60639000D01*
X155747000Y-60599000D02*
X157943000Y-60599000D01*
X156080000Y-60559000D02*
X157610000Y-60559000D01*
X152290000Y-77329491D02*
X152290000Y-75729491D01*
X151490000Y-76529491D02*
X153090000Y-76529491D01*
%TO.C,CN11*%
X141685000Y-76855000D02*
X147655000Y-76855000D01*
X147655000Y-76855000D02*
X147655000Y-69235000D01*
X147655000Y-69235000D02*
X141685000Y-69235000D01*
X141685000Y-69235000D02*
X141685000Y-76855000D01*
X141695000Y-73545000D02*
X142445000Y-73545000D01*
X142445000Y-73545000D02*
X142445000Y-72545000D01*
X142445000Y-72545000D02*
X141695000Y-72545000D01*
X141695000Y-72545000D02*
X141695000Y-73545000D01*
X141695000Y-76845000D02*
X142445000Y-76845000D01*
X142445000Y-76845000D02*
X142445000Y-75045000D01*
X142445000Y-75045000D02*
X141695000Y-75045000D01*
X141695000Y-75045000D02*
X141695000Y-76845000D01*
X141695000Y-71045000D02*
X142445000Y-71045000D01*
X142445000Y-71045000D02*
X142445000Y-69245000D01*
X142445000Y-69245000D02*
X141695000Y-69245000D01*
X141695000Y-69245000D02*
X141695000Y-71045000D01*
X143945000Y-76845000D02*
X143945000Y-76095000D01*
X143945000Y-76095000D02*
X146895000Y-76095000D01*
X146895000Y-76095000D02*
X146895000Y-73045000D01*
X143945000Y-69245000D02*
X143945000Y-69995000D01*
X143945000Y-69995000D02*
X146895000Y-69995000D01*
X146895000Y-69995000D02*
X146895000Y-73045000D01*
X141395000Y-75895000D02*
X141395000Y-77145000D01*
X141395000Y-77145000D02*
X142645000Y-77145000D01*
%TO.C,D11*%
X148390000Y-87175000D02*
X151330000Y-87175000D01*
X151330000Y-87175000D02*
X151330000Y-81735000D01*
X151330000Y-81735000D02*
X148390000Y-81735000D01*
X148390000Y-81735000D02*
X148390000Y-87175000D01*
X149860000Y-88195000D02*
X149860000Y-87175000D01*
X149860000Y-80715000D02*
X149860000Y-81735000D01*
X148390000Y-86275000D02*
X151330000Y-86275000D01*
X148390000Y-86155000D02*
X151330000Y-86155000D01*
X148390000Y-86395000D02*
X151330000Y-86395000D01*
%TO.C,D12*%
X166805000Y-86395000D02*
X169745000Y-86395000D01*
X166805000Y-86155000D02*
X169745000Y-86155000D01*
X166805000Y-86275000D02*
X169745000Y-86275000D01*
X168275000Y-80715000D02*
X168275000Y-81735000D01*
X168275000Y-88195000D02*
X168275000Y-87175000D01*
X166805000Y-81735000D02*
X166805000Y-87175000D01*
X169745000Y-81735000D02*
X166805000Y-81735000D01*
X169745000Y-87175000D02*
X169745000Y-81735000D01*
X166805000Y-87175000D02*
X169745000Y-87175000D01*
%TO.C,F11*%
X177925000Y-71980000D02*
X166225000Y-71980000D01*
X166225000Y-76080000D02*
X166225000Y-71980000D01*
X177925000Y-76080000D02*
X177925000Y-71980000D01*
X177925000Y-76080000D02*
X166225000Y-76080000D01*
%TO.C,K11*%
X157115000Y-109315000D02*
X179815000Y-109315000D01*
X179815000Y-109315000D02*
X179815000Y-92615000D01*
X179815000Y-92615000D02*
X157115000Y-92615000D01*
X157115000Y-92615000D02*
X157115000Y-109315000D01*
X174765000Y-100615000D02*
X175165000Y-101315000D01*
X174365000Y-101315000D02*
X175565000Y-101315000D01*
X175565000Y-101315000D02*
X175565000Y-100615000D01*
X175565000Y-100615000D02*
X174365000Y-100615000D01*
X174365000Y-100615000D02*
X174365000Y-101315000D01*
X180075000Y-99965000D02*
X180075000Y-101965000D01*
X174965000Y-96465000D02*
X174965000Y-99615000D01*
X174965000Y-102315000D02*
X174965000Y-105465000D01*
%TO.C,U11*%
X175955000Y-86470000D02*
X175955000Y-84820000D01*
X170755000Y-86470000D02*
X175955000Y-86470000D01*
X170755000Y-81170000D02*
X170755000Y-86470000D01*
X175955000Y-81170000D02*
X170755000Y-81170000D01*
X175955000Y-82820000D02*
X175955000Y-81170000D01*
X175955000Y-84820000D02*
G75*
G02*
X175955000Y-82820000I0J1000000D01*
G01*
%TO.C,*%
D10*
X149922666Y-85701000D02*
X149922666Y-86101000D01*
X149922666Y-85901000D02*
X149222666Y-85901000D01*
X149322666Y-85967666D01*
X149389333Y-86034333D01*
X149422666Y-86101000D01*
X149922666Y-85401000D02*
X149222666Y-85401000D01*
X149922666Y-85001000D01*
X149222666Y-85001000D01*
X149456000Y-84367666D02*
X149922666Y-84367666D01*
X149189333Y-84534333D02*
X149689333Y-84701000D01*
X149689333Y-84267666D01*
X149222666Y-83867666D02*
X149222666Y-83801000D01*
X149256000Y-83734333D01*
X149289333Y-83701000D01*
X149356000Y-83667666D01*
X149489333Y-83634333D01*
X149656000Y-83634333D01*
X149789333Y-83667666D01*
X149856000Y-83701000D01*
X149889333Y-83734333D01*
X149922666Y-83801000D01*
X149922666Y-83867666D01*
X149889333Y-83934333D01*
X149856000Y-83967666D01*
X149789333Y-84001000D01*
X149656000Y-84034333D01*
X149489333Y-84034333D01*
X149356000Y-84001000D01*
X149289333Y-83967666D01*
X149256000Y-83934333D01*
X149222666Y-83867666D01*
X149222666Y-83201000D02*
X149222666Y-83134333D01*
X149256000Y-83067666D01*
X149289333Y-83034333D01*
X149356000Y-83001000D01*
X149489333Y-82967666D01*
X149656000Y-82967666D01*
X149789333Y-83001000D01*
X149856000Y-83034333D01*
X149889333Y-83067666D01*
X149922666Y-83134333D01*
X149922666Y-83201000D01*
X149889333Y-83267666D01*
X149856000Y-83301000D01*
X149789333Y-83334333D01*
X149656000Y-83367666D01*
X149489333Y-83367666D01*
X149356000Y-83334333D01*
X149289333Y-83301000D01*
X149256000Y-83267666D01*
X149222666Y-83201000D01*
X149222666Y-82734333D02*
X149222666Y-82267666D01*
X149922666Y-82567666D01*
X168337666Y-85701000D02*
X168337666Y-86101000D01*
X168337666Y-85901000D02*
X167637666Y-85901000D01*
X167737666Y-85967666D01*
X167804333Y-86034333D01*
X167837666Y-86101000D01*
X168337666Y-85401000D02*
X167637666Y-85401000D01*
X168337666Y-85001000D01*
X167637666Y-85001000D01*
X167871000Y-84367666D02*
X168337666Y-84367666D01*
X167604333Y-84534333D02*
X168104333Y-84701000D01*
X168104333Y-84267666D01*
X167637666Y-83867666D02*
X167637666Y-83801000D01*
X167671000Y-83734333D01*
X167704333Y-83701000D01*
X167771000Y-83667666D01*
X167904333Y-83634333D01*
X168071000Y-83634333D01*
X168204333Y-83667666D01*
X168271000Y-83701000D01*
X168304333Y-83734333D01*
X168337666Y-83801000D01*
X168337666Y-83867666D01*
X168304333Y-83934333D01*
X168271000Y-83967666D01*
X168204333Y-84001000D01*
X168071000Y-84034333D01*
X167904333Y-84034333D01*
X167771000Y-84001000D01*
X167704333Y-83967666D01*
X167671000Y-83934333D01*
X167637666Y-83867666D01*
X167637666Y-83201000D02*
X167637666Y-83134333D01*
X167671000Y-83067666D01*
X167704333Y-83034333D01*
X167771000Y-83001000D01*
X167904333Y-82967666D01*
X168071000Y-82967666D01*
X168204333Y-83001000D01*
X168271000Y-83034333D01*
X168304333Y-83067666D01*
X168337666Y-83134333D01*
X168337666Y-83201000D01*
X168304333Y-83267666D01*
X168271000Y-83301000D01*
X168204333Y-83334333D01*
X168071000Y-83367666D01*
X167904333Y-83367666D01*
X167771000Y-83334333D01*
X167704333Y-83301000D01*
X167671000Y-83267666D01*
X167637666Y-83201000D01*
X167637666Y-82734333D02*
X167637666Y-82267666D01*
X168337666Y-82567666D01*
X157821428Y-81700714D02*
X157821428Y-82367380D01*
X157583333Y-81319761D02*
X157345238Y-82034047D01*
X157964285Y-82034047D01*
X158345238Y-82272142D02*
X158392857Y-82319761D01*
X158345238Y-82367380D01*
X158297619Y-82319761D01*
X158345238Y-82272142D01*
X158345238Y-82367380D01*
X158726190Y-81367380D02*
X159392857Y-81367380D01*
X158964285Y-82367380D01*
X159773809Y-82367380D02*
X159773809Y-81367380D01*
X159869047Y-81986428D02*
X160154761Y-82367380D01*
X160154761Y-81700714D02*
X159773809Y-82081666D01*
X171221666Y-84071666D02*
X171621666Y-84071666D01*
X171421666Y-84771666D02*
X171421666Y-84071666D01*
X172188333Y-84771666D02*
X171855000Y-84771666D01*
X171855000Y-84071666D01*
X172421666Y-84771666D02*
X172421666Y-84071666D01*
X172688333Y-84071666D01*
X172755000Y-84105000D01*
X172788333Y-84138333D01*
X172821666Y-84205000D01*
X172821666Y-84305000D01*
X172788333Y-84371666D01*
X172755000Y-84405000D01*
X172688333Y-84438333D01*
X172421666Y-84438333D01*
X173088333Y-84138333D02*
X173121666Y-84105000D01*
X173188333Y-84071666D01*
X173355000Y-84071666D01*
X173421666Y-84105000D01*
X173455000Y-84138333D01*
X173488333Y-84205000D01*
X173488333Y-84271666D01*
X173455000Y-84371666D01*
X173055000Y-84771666D01*
X173488333Y-84771666D01*
X173755000Y-84138333D02*
X173788333Y-84105000D01*
X173855000Y-84071666D01*
X174021666Y-84071666D01*
X174088333Y-84105000D01*
X174121666Y-84138333D01*
X174155000Y-84205000D01*
X174155000Y-84271666D01*
X174121666Y-84371666D01*
X173721666Y-84771666D01*
X174155000Y-84771666D01*
X174421666Y-84138333D02*
X174455000Y-84105000D01*
X174521666Y-84071666D01*
X174688333Y-84071666D01*
X174755000Y-84105000D01*
X174788333Y-84138333D01*
X174821666Y-84205000D01*
X174821666Y-84271666D01*
X174788333Y-84371666D01*
X174388333Y-84771666D01*
X174821666Y-84771666D01*
X175088333Y-84571666D02*
X175421666Y-84571666D01*
X175021666Y-84771666D02*
X175255000Y-84071666D01*
X175488333Y-84771666D01*
X168157780Y-75382380D02*
X167681590Y-75382380D01*
X167681590Y-74382380D01*
X168348257Y-74382380D02*
X168681590Y-75382380D01*
X169014923Y-74382380D01*
X169919685Y-75382380D02*
X169586352Y-74906190D01*
X169348257Y-75382380D02*
X169348257Y-74382380D01*
X169729209Y-74382380D01*
X169824447Y-74430000D01*
X169872066Y-74477619D01*
X169919685Y-74572857D01*
X169919685Y-74715714D01*
X169872066Y-74810952D01*
X169824447Y-74858571D01*
X169729209Y-74906190D01*
X169348257Y-74906190D01*
X170538733Y-74382380D02*
X170633971Y-74382380D01*
X170729209Y-74430000D01*
X170776828Y-74477619D01*
X170824447Y-74572857D01*
X170872066Y-74763333D01*
X170872066Y-75001428D01*
X170824447Y-75191904D01*
X170776828Y-75287142D01*
X170729209Y-75334761D01*
X170633971Y-75382380D01*
X170538733Y-75382380D01*
X170443495Y-75334761D01*
X170395876Y-75287142D01*
X170348257Y-75191904D01*
X170300638Y-75001428D01*
X170300638Y-74763333D01*
X170348257Y-74572857D01*
X170395876Y-74477619D01*
X170443495Y-74430000D01*
X170538733Y-74382380D01*
X171729209Y-74715714D02*
X171729209Y-75382380D01*
X171491114Y-74334761D02*
X171253019Y-75049047D01*
X171872066Y-75049047D01*
X172443495Y-74382380D02*
X172538733Y-74382380D01*
X172633971Y-74430000D01*
X172681590Y-74477619D01*
X172729209Y-74572857D01*
X172776828Y-74763333D01*
X172776828Y-75001428D01*
X172729209Y-75191904D01*
X172681590Y-75287142D01*
X172633971Y-75334761D01*
X172538733Y-75382380D01*
X172443495Y-75382380D01*
X172348257Y-75334761D01*
X172300638Y-75287142D01*
X172253019Y-75191904D01*
X172205400Y-75001428D01*
X172205400Y-74763333D01*
X172253019Y-74572857D01*
X172300638Y-74477619D01*
X172348257Y-74430000D01*
X172443495Y-74382380D01*
X170756666Y-65656666D02*
X171156666Y-65656666D01*
X170956666Y-66356666D02*
X170956666Y-65656666D01*
X171390000Y-66356666D02*
X171390000Y-65656666D01*
X171790000Y-66356666D01*
X171790000Y-65656666D01*
X172523333Y-66356666D02*
X172290000Y-66023333D01*
X172123333Y-66356666D02*
X172123333Y-65656666D01*
X172390000Y-65656666D01*
X172456666Y-65690000D01*
X172490000Y-65723333D01*
X172523333Y-65790000D01*
X172523333Y-65890000D01*
X172490000Y-65956666D01*
X172456666Y-65990000D01*
X172390000Y-66023333D01*
X172123333Y-66023333D01*
X173190000Y-66356666D02*
X172790000Y-66356666D01*
X172990000Y-66356666D02*
X172990000Y-65656666D01*
X172923333Y-65756666D01*
X172856666Y-65823333D01*
X172790000Y-65856666D01*
X173623333Y-65656666D02*
X173690000Y-65656666D01*
X173756666Y-65690000D01*
X173790000Y-65723333D01*
X173823333Y-65790000D01*
X173856666Y-65923333D01*
X173856666Y-66090000D01*
X173823333Y-66223333D01*
X173790000Y-66290000D01*
X173756666Y-66323333D01*
X173690000Y-66356666D01*
X173623333Y-66356666D01*
X173556666Y-66323333D01*
X173523333Y-66290000D01*
X173490000Y-66223333D01*
X173456666Y-66090000D01*
X173456666Y-65923333D01*
X173490000Y-65790000D01*
X173523333Y-65723333D01*
X173556666Y-65690000D01*
X173623333Y-65656666D01*
X174056666Y-65656666D02*
X174290000Y-66356666D01*
X174523333Y-65656666D01*
X175056666Y-65890000D02*
X175056666Y-66356666D01*
X174890000Y-65623333D02*
X174723333Y-66123333D01*
X175156666Y-66123333D01*
X175356666Y-65656666D02*
X175823333Y-65656666D01*
X175523333Y-66356666D01*
X176456666Y-66356666D02*
X176056666Y-66356666D01*
X176256666Y-66356666D02*
X176256666Y-65656666D01*
X176190000Y-65756666D01*
X176123333Y-65823333D01*
X176056666Y-65856666D01*
X176756666Y-66356666D02*
X176756666Y-65656666D01*
X177156666Y-66356666D02*
X176856666Y-65956666D01*
X177156666Y-65656666D02*
X176756666Y-66056666D01*
X152297380Y-69302380D02*
X152916428Y-69302380D01*
X152583095Y-69683333D01*
X152725952Y-69683333D01*
X152821190Y-69730952D01*
X152868809Y-69778571D01*
X152916428Y-69873809D01*
X152916428Y-70111904D01*
X152868809Y-70207142D01*
X152821190Y-70254761D01*
X152725952Y-70302380D01*
X152440238Y-70302380D01*
X152345000Y-70254761D01*
X152297380Y-70207142D01*
X153821190Y-69302380D02*
X153345000Y-69302380D01*
X153297380Y-69778571D01*
X153345000Y-69730952D01*
X153440238Y-69683333D01*
X153678333Y-69683333D01*
X153773571Y-69730952D01*
X153821190Y-69778571D01*
X153868809Y-69873809D01*
X153868809Y-70111904D01*
X153821190Y-70207142D01*
X153773571Y-70254761D01*
X153678333Y-70302380D01*
X153440238Y-70302380D01*
X153345000Y-70254761D01*
X153297380Y-70207142D01*
X154154523Y-69302380D02*
X154487857Y-70302380D01*
X154821190Y-69302380D01*
X155868809Y-69254761D02*
X155011666Y-70540476D01*
X156154523Y-69397619D02*
X156202142Y-69350000D01*
X156297380Y-69302380D01*
X156535476Y-69302380D01*
X156630714Y-69350000D01*
X156678333Y-69397619D01*
X156725952Y-69492857D01*
X156725952Y-69588095D01*
X156678333Y-69730952D01*
X156106904Y-70302380D01*
X156725952Y-70302380D01*
X157106904Y-69397619D02*
X157154523Y-69350000D01*
X157249761Y-69302380D01*
X157487857Y-69302380D01*
X157583095Y-69350000D01*
X157630714Y-69397619D01*
X157678333Y-69492857D01*
X157678333Y-69588095D01*
X157630714Y-69730952D01*
X157059285Y-70302380D01*
X157678333Y-70302380D01*
X158297380Y-69302380D02*
X158392619Y-69302380D01*
X158487857Y-69350000D01*
X158535476Y-69397619D01*
X158583095Y-69492857D01*
X158630714Y-69683333D01*
X158630714Y-69921428D01*
X158583095Y-70111904D01*
X158535476Y-70207142D01*
X158487857Y-70254761D01*
X158392619Y-70302380D01*
X158297380Y-70302380D01*
X158202142Y-70254761D01*
X158154523Y-70207142D01*
X158106904Y-70111904D01*
X158059285Y-69921428D01*
X158059285Y-69683333D01*
X158106904Y-69492857D01*
X158154523Y-69397619D01*
X158202142Y-69350000D01*
X158297380Y-69302380D01*
X159249761Y-69302380D02*
X159345000Y-69302380D01*
X159440238Y-69350000D01*
X159487857Y-69397619D01*
X159535476Y-69492857D01*
X159583095Y-69683333D01*
X159583095Y-69921428D01*
X159535476Y-70111904D01*
X159487857Y-70207142D01*
X159440238Y-70254761D01*
X159345000Y-70302380D01*
X159249761Y-70302380D01*
X159154523Y-70254761D01*
X159106904Y-70207142D01*
X159059285Y-70111904D01*
X159011666Y-69921428D01*
X159011666Y-69683333D01*
X159059285Y-69492857D01*
X159106904Y-69397619D01*
X159154523Y-69350000D01*
X159249761Y-69302380D01*
X160440238Y-69635714D02*
X160440238Y-70302380D01*
X160011666Y-69635714D02*
X160011666Y-70159523D01*
X160059285Y-70254761D01*
X160154523Y-70302380D01*
X160297380Y-70302380D01*
X160392619Y-70254761D01*
X160440238Y-70207142D01*
X161249761Y-69778571D02*
X160916428Y-69778571D01*
X160916428Y-70302380D02*
X160916428Y-69302380D01*
X161392619Y-69302380D01*
%TO.C,J12*%
X181435476Y-105497380D02*
X181435476Y-106211666D01*
X181387857Y-106354523D01*
X181292619Y-106449761D01*
X181149761Y-106497380D01*
X181054523Y-106497380D01*
X182435476Y-106497380D02*
X181864047Y-106497380D01*
X182149761Y-106497380D02*
X182149761Y-105497380D01*
X182054523Y-105640238D01*
X181959285Y-105735476D01*
X181864047Y-105783095D01*
X182816428Y-105592619D02*
X182864047Y-105545000D01*
X182959285Y-105497380D01*
X183197380Y-105497380D01*
X183292619Y-105545000D01*
X183340238Y-105592619D01*
X183387857Y-105687857D01*
X183387857Y-105783095D01*
X183340238Y-105925952D01*
X182768809Y-106497380D01*
X183387857Y-106497380D01*
%TO.C,J11*%
X182705476Y-62317380D02*
X182705476Y-63031666D01*
X182657857Y-63174523D01*
X182562619Y-63269761D01*
X182419761Y-63317380D01*
X182324523Y-63317380D01*
X183705476Y-63317380D02*
X183134047Y-63317380D01*
X183419761Y-63317380D02*
X183419761Y-62317380D01*
X183324523Y-62460238D01*
X183229285Y-62555476D01*
X183134047Y-62603095D01*
X184657857Y-63317380D02*
X184086428Y-63317380D01*
X184372142Y-63317380D02*
X184372142Y-62317380D01*
X184276904Y-62460238D01*
X184181666Y-62555476D01*
X184086428Y-62603095D01*
%TO.C,FL11*%
X149788571Y-97734285D02*
X149788571Y-98067619D01*
X150312380Y-98067619D02*
X149312380Y-98067619D01*
X149312380Y-97591428D01*
X150312380Y-96734285D02*
X150312380Y-97210476D01*
X149312380Y-97210476D01*
X150312380Y-95877142D02*
X150312380Y-96448571D01*
X150312380Y-96162857D02*
X149312380Y-96162857D01*
X149455238Y-96258095D01*
X149550476Y-96353333D01*
X149598095Y-96448571D01*
X150312380Y-94924761D02*
X150312380Y-95496190D01*
X150312380Y-95210476D02*
X149312380Y-95210476D01*
X149455238Y-95305714D01*
X149550476Y-95400952D01*
X149598095Y-95496190D01*
X154392380Y-100496190D02*
X154392380Y-100400952D01*
X154440000Y-100305714D01*
X154487619Y-100258095D01*
X154582857Y-100210476D01*
X154773333Y-100162857D01*
X155011428Y-100162857D01*
X155201904Y-100210476D01*
X155297142Y-100258095D01*
X155344761Y-100305714D01*
X155392380Y-100400952D01*
X155392380Y-100496190D01*
X155344761Y-100591428D01*
X155297142Y-100639047D01*
X155201904Y-100686666D01*
X155011428Y-100734285D01*
X154773333Y-100734285D01*
X154582857Y-100686666D01*
X154487619Y-100639047D01*
X154440000Y-100591428D01*
X154392380Y-100496190D01*
X155297142Y-99734285D02*
X155344761Y-99686666D01*
X155392380Y-99734285D01*
X155344761Y-99781904D01*
X155297142Y-99734285D01*
X155392380Y-99734285D01*
X155392380Y-98734285D02*
X155392380Y-99305714D01*
X155392380Y-99020000D02*
X154392380Y-99020000D01*
X154535238Y-99115238D01*
X154630476Y-99210476D01*
X154678095Y-99305714D01*
X154725714Y-97877142D02*
X155392380Y-97877142D01*
X154725714Y-98305714D02*
X155249523Y-98305714D01*
X155344761Y-98258095D01*
X155392380Y-98162857D01*
X155392380Y-98020000D01*
X155344761Y-97924761D01*
X155297142Y-97877142D01*
X154868571Y-97067619D02*
X154868571Y-97400952D01*
X155392380Y-97400952D02*
X154392380Y-97400952D01*
X154392380Y-96924761D01*
X155392380Y-95781904D02*
X154392380Y-95781904D01*
X154392380Y-95543809D01*
X154440000Y-95400952D01*
X154535238Y-95305714D01*
X154630476Y-95258095D01*
X154820952Y-95210476D01*
X154963809Y-95210476D01*
X155154285Y-95258095D01*
X155249523Y-95305714D01*
X155344761Y-95400952D01*
X155392380Y-95543809D01*
X155392380Y-95781904D01*
X155392380Y-94781904D02*
X154392380Y-94781904D01*
X154392380Y-94543809D01*
X154440000Y-94400952D01*
X154535238Y-94305714D01*
X154630476Y-94258095D01*
X154820952Y-94210476D01*
X154963809Y-94210476D01*
X155154285Y-94258095D01*
X155249523Y-94305714D01*
X155344761Y-94400952D01*
X155392380Y-94543809D01*
X155392380Y-94781904D01*
X155344761Y-93829523D02*
X155392380Y-93686666D01*
X155392380Y-93448571D01*
X155344761Y-93353333D01*
X155297142Y-93305714D01*
X155201904Y-93258095D01*
X155106666Y-93258095D01*
X155011428Y-93305714D01*
X154963809Y-93353333D01*
X154916190Y-93448571D01*
X154868571Y-93639047D01*
X154820952Y-93734285D01*
X154773333Y-93781904D01*
X154678095Y-93829523D01*
X154582857Y-93829523D01*
X154487619Y-93781904D01*
X154440000Y-93734285D01*
X154392380Y-93639047D01*
X154392380Y-93400952D01*
X154440000Y-93258095D01*
X155392380Y-92305714D02*
X155392380Y-92877142D01*
X155392380Y-92591428D02*
X154392380Y-92591428D01*
X154535238Y-92686666D01*
X154630476Y-92781904D01*
X154678095Y-92877142D01*
%TO.C,R12*%
X142692380Y-87002857D02*
X142216190Y-87336190D01*
X142692380Y-87574285D02*
X141692380Y-87574285D01*
X141692380Y-87193333D01*
X141740000Y-87098095D01*
X141787619Y-87050476D01*
X141882857Y-87002857D01*
X142025714Y-87002857D01*
X142120952Y-87050476D01*
X142168571Y-87098095D01*
X142216190Y-87193333D01*
X142216190Y-87574285D01*
X142692380Y-86050476D02*
X142692380Y-86621904D01*
X142692380Y-86336190D02*
X141692380Y-86336190D01*
X141835238Y-86431428D01*
X141930476Y-86526666D01*
X141978095Y-86621904D01*
X141787619Y-85669523D02*
X141740000Y-85621904D01*
X141692380Y-85526666D01*
X141692380Y-85288571D01*
X141740000Y-85193333D01*
X141787619Y-85145714D01*
X141882857Y-85098095D01*
X141978095Y-85098095D01*
X142120952Y-85145714D01*
X142692380Y-85717142D01*
X142692380Y-85098095D01*
%TO.C,D13*%
X142295714Y-93377380D02*
X142295714Y-92377380D01*
X142533809Y-92377380D01*
X142676666Y-92425000D01*
X142771904Y-92520238D01*
X142819523Y-92615476D01*
X142867142Y-92805952D01*
X142867142Y-92948809D01*
X142819523Y-93139285D01*
X142771904Y-93234523D01*
X142676666Y-93329761D01*
X142533809Y-93377380D01*
X142295714Y-93377380D01*
X143819523Y-93377380D02*
X143248095Y-93377380D01*
X143533809Y-93377380D02*
X143533809Y-92377380D01*
X143438571Y-92520238D01*
X143343333Y-92615476D01*
X143248095Y-92663095D01*
X144152857Y-92377380D02*
X144771904Y-92377380D01*
X144438571Y-92758333D01*
X144581428Y-92758333D01*
X144676666Y-92805952D01*
X144724285Y-92853571D01*
X144771904Y-92948809D01*
X144771904Y-93186904D01*
X144724285Y-93282142D01*
X144676666Y-93329761D01*
X144581428Y-93377380D01*
X144295714Y-93377380D01*
X144200476Y-93329761D01*
X144152857Y-93282142D01*
%TO.C,CN12*%
X146788333Y-101322142D02*
X146740714Y-101369761D01*
X146597857Y-101417380D01*
X146502619Y-101417380D01*
X146359761Y-101369761D01*
X146264523Y-101274523D01*
X146216904Y-101179285D01*
X146169285Y-100988809D01*
X146169285Y-100845952D01*
X146216904Y-100655476D01*
X146264523Y-100560238D01*
X146359761Y-100465000D01*
X146502619Y-100417380D01*
X146597857Y-100417380D01*
X146740714Y-100465000D01*
X146788333Y-100512619D01*
X147216904Y-101417380D02*
X147216904Y-100417380D01*
X147788333Y-101417380D01*
X147788333Y-100417380D01*
X148788333Y-101417380D02*
X148216904Y-101417380D01*
X148502619Y-101417380D02*
X148502619Y-100417380D01*
X148407380Y-100560238D01*
X148312142Y-100655476D01*
X148216904Y-100703095D01*
X149169285Y-100512619D02*
X149216904Y-100465000D01*
X149312142Y-100417380D01*
X149550238Y-100417380D01*
X149645476Y-100465000D01*
X149693095Y-100512619D01*
X149740714Y-100607857D01*
X149740714Y-100703095D01*
X149693095Y-100845952D01*
X149121666Y-101417380D01*
X149740714Y-101417380D01*
%TO.C,RV11*%
X171708571Y-64747380D02*
X171375238Y-64271190D01*
X171137142Y-64747380D02*
X171137142Y-63747380D01*
X171518095Y-63747380D01*
X171613333Y-63795000D01*
X171660952Y-63842619D01*
X171708571Y-63937857D01*
X171708571Y-64080714D01*
X171660952Y-64175952D01*
X171613333Y-64223571D01*
X171518095Y-64271190D01*
X171137142Y-64271190D01*
X171994285Y-63747380D02*
X172327619Y-64747380D01*
X172660952Y-63747380D01*
X173518095Y-64747380D02*
X172946666Y-64747380D01*
X173232380Y-64747380D02*
X173232380Y-63747380D01*
X173137142Y-63890238D01*
X173041904Y-63985476D01*
X172946666Y-64033095D01*
X174470476Y-64747380D02*
X173899047Y-64747380D01*
X174184761Y-64747380D02*
X174184761Y-63747380D01*
X174089523Y-63890238D01*
X173994285Y-63985476D01*
X173899047Y-64033095D01*
%TO.C,R11*%
X158742142Y-84102380D02*
X158408809Y-83626190D01*
X158170714Y-84102380D02*
X158170714Y-83102380D01*
X158551666Y-83102380D01*
X158646904Y-83150000D01*
X158694523Y-83197619D01*
X158742142Y-83292857D01*
X158742142Y-83435714D01*
X158694523Y-83530952D01*
X158646904Y-83578571D01*
X158551666Y-83626190D01*
X158170714Y-83626190D01*
X159694523Y-84102380D02*
X159123095Y-84102380D01*
X159408809Y-84102380D02*
X159408809Y-83102380D01*
X159313571Y-83245238D01*
X159218333Y-83340476D01*
X159123095Y-83388095D01*
X160646904Y-84102380D02*
X160075476Y-84102380D01*
X160361190Y-84102380D02*
X160361190Y-83102380D01*
X160265952Y-83245238D01*
X160170714Y-83340476D01*
X160075476Y-83388095D01*
%TO.C,C11*%
X167037142Y-64452142D02*
X166989523Y-64499761D01*
X166846666Y-64547380D01*
X166751428Y-64547380D01*
X166608571Y-64499761D01*
X166513333Y-64404523D01*
X166465714Y-64309285D01*
X166418095Y-64118809D01*
X166418095Y-63975952D01*
X166465714Y-63785476D01*
X166513333Y-63690238D01*
X166608571Y-63595000D01*
X166751428Y-63547380D01*
X166846666Y-63547380D01*
X166989523Y-63595000D01*
X167037142Y-63642619D01*
X167989523Y-64547380D02*
X167418095Y-64547380D01*
X167703809Y-64547380D02*
X167703809Y-63547380D01*
X167608571Y-63690238D01*
X167513333Y-63785476D01*
X167418095Y-63833095D01*
X168941904Y-64547380D02*
X168370476Y-64547380D01*
X168656190Y-64547380D02*
X168656190Y-63547380D01*
X168560952Y-63690238D01*
X168465714Y-63785476D01*
X168370476Y-63833095D01*
%TO.C,C12*%
X149852142Y-61317142D02*
X149804523Y-61364761D01*
X149661666Y-61412380D01*
X149566428Y-61412380D01*
X149423571Y-61364761D01*
X149328333Y-61269523D01*
X149280714Y-61174285D01*
X149233095Y-60983809D01*
X149233095Y-60840952D01*
X149280714Y-60650476D01*
X149328333Y-60555238D01*
X149423571Y-60460000D01*
X149566428Y-60412380D01*
X149661666Y-60412380D01*
X149804523Y-60460000D01*
X149852142Y-60507619D01*
X150804523Y-61412380D02*
X150233095Y-61412380D01*
X150518809Y-61412380D02*
X150518809Y-60412380D01*
X150423571Y-60555238D01*
X150328333Y-60650476D01*
X150233095Y-60698095D01*
X151185476Y-60507619D02*
X151233095Y-60460000D01*
X151328333Y-60412380D01*
X151566428Y-60412380D01*
X151661666Y-60460000D01*
X151709285Y-60507619D01*
X151756904Y-60602857D01*
X151756904Y-60698095D01*
X151709285Y-60840952D01*
X151137857Y-61412380D01*
X151756904Y-61412380D01*
%TO.C,CN11*%
X142978333Y-68302142D02*
X142930714Y-68349761D01*
X142787857Y-68397380D01*
X142692619Y-68397380D01*
X142549761Y-68349761D01*
X142454523Y-68254523D01*
X142406904Y-68159285D01*
X142359285Y-67968809D01*
X142359285Y-67825952D01*
X142406904Y-67635476D01*
X142454523Y-67540238D01*
X142549761Y-67445000D01*
X142692619Y-67397380D01*
X142787857Y-67397380D01*
X142930714Y-67445000D01*
X142978333Y-67492619D01*
X143406904Y-68397380D02*
X143406904Y-67397380D01*
X143978333Y-68397380D01*
X143978333Y-67397380D01*
X144978333Y-68397380D02*
X144406904Y-68397380D01*
X144692619Y-68397380D02*
X144692619Y-67397380D01*
X144597380Y-67540238D01*
X144502142Y-67635476D01*
X144406904Y-67683095D01*
X145930714Y-68397380D02*
X145359285Y-68397380D01*
X145645000Y-68397380D02*
X145645000Y-67397380D01*
X145549761Y-67540238D01*
X145454523Y-67635476D01*
X145359285Y-67683095D01*
%TO.C,D11*%
X147842380Y-85669285D02*
X146842380Y-85669285D01*
X146842380Y-85431190D01*
X146890000Y-85288333D01*
X146985238Y-85193095D01*
X147080476Y-85145476D01*
X147270952Y-85097857D01*
X147413809Y-85097857D01*
X147604285Y-85145476D01*
X147699523Y-85193095D01*
X147794761Y-85288333D01*
X147842380Y-85431190D01*
X147842380Y-85669285D01*
X147842380Y-84145476D02*
X147842380Y-84716904D01*
X147842380Y-84431190D02*
X146842380Y-84431190D01*
X146985238Y-84526428D01*
X147080476Y-84621666D01*
X147128095Y-84716904D01*
X147842380Y-83193095D02*
X147842380Y-83764523D01*
X147842380Y-83478809D02*
X146842380Y-83478809D01*
X146985238Y-83574047D01*
X147080476Y-83669285D01*
X147128095Y-83764523D01*
X148212380Y-89796904D02*
X147212380Y-89796904D01*
X148212380Y-89225476D02*
X147640952Y-89654047D01*
X147212380Y-89225476D02*
X147783809Y-89796904D01*
%TO.C,D12*%
X166257380Y-85669285D02*
X165257380Y-85669285D01*
X165257380Y-85431190D01*
X165305000Y-85288333D01*
X165400238Y-85193095D01*
X165495476Y-85145476D01*
X165685952Y-85097857D01*
X165828809Y-85097857D01*
X166019285Y-85145476D01*
X166114523Y-85193095D01*
X166209761Y-85288333D01*
X166257380Y-85431190D01*
X166257380Y-85669285D01*
X166257380Y-84145476D02*
X166257380Y-84716904D01*
X166257380Y-84431190D02*
X165257380Y-84431190D01*
X165400238Y-84526428D01*
X165495476Y-84621666D01*
X165543095Y-84716904D01*
X165352619Y-83764523D02*
X165305000Y-83716904D01*
X165257380Y-83621666D01*
X165257380Y-83383571D01*
X165305000Y-83288333D01*
X165352619Y-83240714D01*
X165447857Y-83193095D01*
X165543095Y-83193095D01*
X165685952Y-83240714D01*
X166257380Y-83812142D01*
X166257380Y-83193095D01*
X166627380Y-89796904D02*
X165627380Y-89796904D01*
X166627380Y-89225476D02*
X166055952Y-89654047D01*
X165627380Y-89225476D02*
X166198809Y-89796904D01*
%TO.C,F11*%
X171275476Y-71048571D02*
X170942142Y-71048571D01*
X170942142Y-71572380D02*
X170942142Y-70572380D01*
X171418333Y-70572380D01*
X172323095Y-71572380D02*
X171751666Y-71572380D01*
X172037380Y-71572380D02*
X172037380Y-70572380D01*
X171942142Y-70715238D01*
X171846904Y-70810476D01*
X171751666Y-70858095D01*
X173275476Y-71572380D02*
X172704047Y-71572380D01*
X172989761Y-71572380D02*
X172989761Y-70572380D01*
X172894523Y-70715238D01*
X172799285Y-70810476D01*
X172704047Y-70858095D01*
%TO.C,K11*%
X168330714Y-102687380D02*
X168330714Y-101687380D01*
X168902142Y-102687380D02*
X168473571Y-102115952D01*
X168902142Y-101687380D02*
X168330714Y-102258809D01*
X169854523Y-102687380D02*
X169283095Y-102687380D01*
X169568809Y-102687380D02*
X169568809Y-101687380D01*
X169473571Y-101830238D01*
X169378333Y-101925476D01*
X169283095Y-101973095D01*
X170806904Y-102687380D02*
X170235476Y-102687380D01*
X170521190Y-102687380D02*
X170521190Y-101687380D01*
X170425952Y-101830238D01*
X170330714Y-101925476D01*
X170235476Y-101973095D01*
%TO.C,U11*%
X176407380Y-85058095D02*
X177216904Y-85058095D01*
X177312142Y-85010476D01*
X177359761Y-84962857D01*
X177407380Y-84867619D01*
X177407380Y-84677142D01*
X177359761Y-84581904D01*
X177312142Y-84534285D01*
X177216904Y-84486666D01*
X176407380Y-84486666D01*
X177407380Y-83486666D02*
X177407380Y-84058095D01*
X177407380Y-83772380D02*
X176407380Y-83772380D01*
X176550238Y-83867619D01*
X176645476Y-83962857D01*
X176693095Y-84058095D01*
X177407380Y-82534285D02*
X177407380Y-83105714D01*
X177407380Y-82820000D02*
X176407380Y-82820000D01*
X176550238Y-82915238D01*
X176645476Y-83010476D01*
X176693095Y-83105714D01*
%TD*%
M02*
