M48
; DRILL file {KiCad 5.1.6-c6e7f7d~87~ubuntu18.04.1} date Fri Jul 24 23:42:42 2020
; FORMAT={-:-/ absolute / inch / decimal}
; #@! TF.CreationDate,2020-07-24T23:42:42+09:00
; #@! TF.GenerationSoftware,Kicad,Pcbnew,5.1.6-c6e7f7d~87~ubuntu18.04.1
; #@! TF.FileFunction,Plated,1,2,PTH
FMAT,2
INCH
T1C0.0157
T2C0.0261
T3C0.0315
T4C0.0335
T5C0.0354
T6C0.0394
T7C0.0433
T8C0.0472
T9C0.0512
T10C0.0591
%
G90
G05
T1
X7.5Y-2.875
X7.55Y-2.75
T2
X6.0Y-3.7
X6.0Y-3.8
X6.0Y-3.9
T3
X6.6547Y-2.6199
X6.95Y-2.675
X6.775Y-3.15
X6.775Y-3.45
X6.875Y-3.15
X6.875Y-3.45
X6.5031Y-2.425
X6.7Y-2.425
X5.7Y-3.15
X5.7Y-3.55
X6.075Y-3.2
X6.475Y-3.2
T4
X6.6742Y-2.8791
X6.875Y-2.95
T5
X5.6Y-3.775
X5.7Y-3.775
T6
X5.675Y-2.8266
X5.675Y-2.925
X7.2844Y-3.5644
X7.2844Y-3.6447
X7.2844Y-3.725
X7.2844Y-3.8053
X7.3844Y-3.6045
X7.3844Y-3.6848
X7.3844Y-3.7652
X7.3844Y-3.8455
X7.2844Y-2.7644
X7.2844Y-2.8447
X7.2844Y-2.925
X7.2844Y-3.0053
X7.3844Y-2.8045
X7.3844Y-2.8848
X7.3844Y-2.9652
X7.3844Y-3.0455
X5.9016Y-4.175
X6.0Y-4.175
T7
X6.625Y-3.125
X6.625Y-3.525
X5.9Y-3.125
X5.9Y-3.525
T8
X6.175Y-2.5547
X6.175Y-2.85
T9
X6.4159Y-3.7388
X6.4159Y-4.2112
X6.8963Y-3.7388
X6.8963Y-4.2112
X6.975Y-3.975
T10
X7.2844Y-3.4051
X7.2844Y-4.0449
X7.2844Y-2.6051
X7.2844Y-3.2449
T0
M30
