%TF.GenerationSoftware,KiCad,Pcbnew,5.1.6-c6e7f7d~87~ubuntu18.04.1*%
%TF.CreationDate,2020-07-24T23:42:59+09:00*%
%TF.ProjectId,002,3030322e-6b69-4636-9164-5f7063625858,001*%
%TF.SameCoordinates,Original*%
%TF.FileFunction,Copper,L2,Bot*%
%TF.FilePolarity,Positive*%
%FSLAX46Y46*%
G04 Gerber Fmt 4.6, Leading zero omitted, Abs format (unit mm)*
G04 Created by KiCad (PCBNEW 5.1.6-c6e7f7d~87~ubuntu18.04.1) date 2020-07-24 23:42:59*
%MOMM*%
%LPD*%
G01*
G04 APERTURE LIST*
%TA.AperFunction,ComponentPad*%
%ADD10C,1.600000*%
%TD*%
%TA.AperFunction,ComponentPad*%
%ADD11R,1.600000X1.600000*%
%TD*%
%TA.AperFunction,ComponentPad*%
%ADD12C,3.000000*%
%TD*%
%TA.AperFunction,ComponentPad*%
%ADD13C,1.524000*%
%TD*%
%TA.AperFunction,ComponentPad*%
%ADD14O,1.600000X1.600000*%
%TD*%
%TA.AperFunction,ComponentPad*%
%ADD15C,1.800000*%
%TD*%
%TA.AperFunction,ComponentPad*%
%ADD16R,1.800000X1.800000*%
%TD*%
%TA.AperFunction,ComponentPad*%
%ADD17O,1.700000X2.000000*%
%TD*%
%TA.AperFunction,ComponentPad*%
%ADD18R,2.400000X2.400000*%
%TD*%
%TA.AperFunction,ComponentPad*%
%ADD19C,2.400000*%
%TD*%
%TA.AperFunction,ComponentPad*%
%ADD20O,2.000000X1.700000*%
%TD*%
%TA.AperFunction,ComponentPad*%
%ADD21R,2.200000X2.200000*%
%TD*%
%TA.AperFunction,ComponentPad*%
%ADD22O,2.200000X2.200000*%
%TD*%
%TA.AperFunction,ComponentPad*%
%ADD23C,1.400000*%
%TD*%
%TA.AperFunction,ComponentPad*%
%ADD24R,2.500000X2.500000*%
%TD*%
%TA.AperFunction,ComponentPad*%
%ADD25O,2.500000X2.500000*%
%TD*%
%TA.AperFunction,ViaPad*%
%ADD26C,0.800000*%
%TD*%
%TA.AperFunction,Conductor*%
%ADD27C,0.250000*%
%TD*%
%TA.AperFunction,Conductor*%
%ADD28C,1.750000*%
%TD*%
%TA.AperFunction,Conductor*%
%ADD29C,3.000000*%
%TD*%
%TA.AperFunction,Conductor*%
%ADD30C,2.000000*%
%TD*%
%TA.AperFunction,Conductor*%
%ADD31C,0.254000*%
%TD*%
G04 APERTURE END LIST*
D10*
%TO.P,J12,8*%
%TO.N,Net-(J12-Pad8)*%
X187565000Y-97675000D03*
%TO.P,J12,7*%
%TO.N,Net-(J12-Pad7)*%
X185025000Y-96655000D03*
%TO.P,J12,6*%
%TO.N,/PSEBUS4*%
X187565000Y-95635000D03*
%TO.P,J12,5*%
%TO.N,Net-(J12-Pad5)*%
X185025000Y-94615000D03*
%TO.P,J12,4*%
%TO.N,Net-(J12-Pad4)*%
X187565000Y-93595000D03*
%TO.P,J12,3*%
%TO.N,/PSEBUS3*%
X185025000Y-92575000D03*
%TO.P,J12,2*%
%TO.N,/PSEBUS2*%
X187565000Y-91555000D03*
D11*
%TO.P,J12,1*%
%TO.N,/PSEBUS1*%
X185025000Y-90535000D03*
D12*
%TO.P,J12,*%
%TO.N,*%
X185025000Y-86490000D03*
X185025000Y-102740000D03*
%TD*%
D10*
%TO.P,J11,8*%
%TO.N,/PSE_GND*%
X187565000Y-77355000D03*
%TO.P,J11,7*%
X185025000Y-76335000D03*
%TO.P,J11,6*%
%TO.N,/PSEBUS4*%
X187565000Y-75315000D03*
%TO.P,J11,5*%
%TO.N,/PSE_PWR*%
X185025000Y-74295000D03*
%TO.P,J11,4*%
X187565000Y-73275000D03*
%TO.P,J11,3*%
%TO.N,/PSEBUS3*%
X185025000Y-72255000D03*
%TO.P,J11,2*%
%TO.N,/PSEBUS2*%
X187565000Y-71235000D03*
D11*
%TO.P,J11,1*%
%TO.N,/PSEBUS1*%
X185025000Y-70215000D03*
D12*
%TO.P,J11,*%
%TO.N,*%
X185025000Y-66170000D03*
X185025000Y-82420000D03*
%TD*%
D13*
%TO.P,FL11,1*%
%TO.N,Net-(CN12-Pad1)*%
X152400000Y-99060000D03*
%TO.P,FL11,2*%
%TO.N,/PSE_GND*%
X152400000Y-96520000D03*
%TO.P,FL11,3*%
%TO.N,Net-(F11-Pad2)*%
X152400000Y-93980000D03*
%TD*%
D14*
%TO.P,R12,2*%
%TO.N,Net-(D13-Pad2)*%
X144780000Y-90170000D03*
D10*
%TO.P,R12,1*%
%TO.N,/PSE_PWR*%
X144780000Y-80010000D03*
%TD*%
D15*
%TO.P,D13,2*%
%TO.N,Net-(D13-Pad2)*%
X144780000Y-95885000D03*
D16*
%TO.P,D13,1*%
%TO.N,/PSE_GND*%
X142240000Y-95885000D03*
%TD*%
D17*
%TO.P,CN12,2*%
%TO.N,/PSE_GND*%
X149900000Y-106045000D03*
%TO.P,CN12,1*%
%TO.N,Net-(CN12-Pad1)*%
%TA.AperFunction,ComponentPad*%
G36*
G01*
X153250000Y-105295000D02*
X153250000Y-106795000D01*
G75*
G02*
X153000000Y-107045000I-250000J0D01*
G01*
X151800000Y-107045000D01*
G75*
G02*
X151550000Y-106795000I0J250000D01*
G01*
X151550000Y-105295000D01*
G75*
G02*
X151800000Y-105045000I250000J0D01*
G01*
X153000000Y-105045000D01*
G75*
G02*
X153250000Y-105295000I0J-250000D01*
G01*
G37*
%TD.AperFunction*%
%TD*%
D15*
%TO.P,RV11,2*%
%TO.N,/PSE_GND*%
X169030000Y-66545000D03*
%TO.P,RV11,1*%
%TO.N,/PSE_PWR*%
X176530000Y-67945000D03*
%TD*%
D14*
%TO.P,R11,2*%
%TO.N,Net-(C11-Pad1)*%
X154305000Y-81280000D03*
D10*
%TO.P,R11,1*%
%TO.N,Net-(R11-Pad1)*%
X164465000Y-81280000D03*
%TD*%
%TO.P,C11,1*%
%TO.N,Net-(C11-Pad1)*%
X170180000Y-61595000D03*
%TO.P,C11,2*%
%TO.N,Net-(C11-Pad2)*%
X165180000Y-61595000D03*
%TD*%
D18*
%TO.P,C12,1*%
%TO.N,Net-(C11-Pad1)*%
X156845000Y-72390000D03*
D19*
%TO.P,C12,2*%
%TO.N,Net-(C11-Pad2)*%
X156845000Y-64890000D03*
%TD*%
%TO.P,CN11,1*%
%TO.N,Net-(CN11-Pad1)*%
%TA.AperFunction,ComponentPad*%
G36*
G01*
X144895000Y-75145000D02*
X143395000Y-75145000D01*
G75*
G02*
X143145000Y-74895000I0J250000D01*
G01*
X143145000Y-73695000D01*
G75*
G02*
X143395000Y-73445000I250000J0D01*
G01*
X144895000Y-73445000D01*
G75*
G02*
X145145000Y-73695000I0J-250000D01*
G01*
X145145000Y-74895000D01*
G75*
G02*
X144895000Y-75145000I-250000J0D01*
G01*
G37*
%TD.AperFunction*%
D20*
%TO.P,CN11,2*%
%TO.N,Net-(C11-Pad2)*%
X144145000Y-71795000D03*
%TD*%
D21*
%TO.P,D11,1*%
%TO.N,Net-(C11-Pad1)*%
X149860000Y-89535000D03*
D22*
%TO.P,D11,2*%
%TO.N,Net-(CN11-Pad1)*%
X149860000Y-79375000D03*
%TD*%
%TO.P,D12,2*%
%TO.N,/PSE_GND*%
X168275000Y-79375000D03*
D21*
%TO.P,D12,1*%
%TO.N,Net-(D12-Pad1)*%
X168275000Y-89535000D03*
%TD*%
D23*
%TO.P,F11,2*%
%TO.N,Net-(F11-Pad2)*%
X169525000Y-73130000D03*
%TO.P,F11,1*%
%TO.N,Net-(F11-Pad1)*%
X174625000Y-74930000D03*
%TD*%
D24*
%TO.P,K11,1*%
%TO.N,Net-(F11-Pad1)*%
X177165000Y-100965000D03*
D25*
%TO.P,K11,2*%
%TO.N,Net-(D12-Pad1)*%
X175165000Y-94965000D03*
%TO.P,K11,3*%
%TO.N,Net-(K11-Pad3)*%
X162965000Y-94965000D03*
%TO.P,K11,4*%
%TO.N,/PSE_PWR*%
X162965000Y-106965000D03*
%TO.P,K11,5*%
%TO.N,/PSE_GND*%
X175165000Y-106965000D03*
%TD*%
D14*
%TO.P,U11,4*%
%TO.N,Net-(D12-Pad1)*%
X174625000Y-87630000D03*
%TO.P,U11,2*%
%TO.N,Net-(C11-Pad2)*%
X172085000Y-80010000D03*
%TO.P,U11,3*%
%TO.N,Net-(F11-Pad2)*%
X172085000Y-87630000D03*
D11*
%TO.P,U11,1*%
%TO.N,Net-(R11-Pad1)*%
X174625000Y-80010000D03*
%TD*%
D26*
%TO.N,/PSE_GND*%
X190500000Y-73025000D03*
X191770000Y-69850000D03*
%TD*%
D27*
%TO.N,Net-(C11-Pad1)*%
X151765000Y-86995000D02*
X149860000Y-89535000D01*
X170180000Y-61595000D02*
X156845000Y-72390000D01*
X154305000Y-81280000D02*
X154305000Y-85725000D01*
X154305000Y-85725000D02*
X154305000Y-86360000D01*
X154305000Y-86360000D02*
X153670000Y-86995000D01*
X153670000Y-86995000D02*
X151765000Y-86995000D01*
X156845000Y-72390000D02*
X154305000Y-74930000D01*
X154305000Y-74930000D02*
X154305000Y-81280000D01*
%TO.N,Net-(C11-Pad2)*%
X151645000Y-64890000D02*
X156845000Y-64890000D01*
X144740000Y-71795000D02*
X151645000Y-64890000D01*
X168910000Y-58420000D02*
X165180000Y-61595000D01*
X171450000Y-58420000D02*
X168910000Y-58420000D01*
X172085000Y-80010000D02*
X172085000Y-59055000D01*
X172085000Y-59055000D02*
X171450000Y-58420000D01*
X160615000Y-64890000D02*
X165180000Y-61595000D01*
X156845000Y-64890000D02*
X160615000Y-64890000D01*
D28*
%TO.N,Net-(D12-Pad1)*%
X174625000Y-94425000D02*
X175165000Y-94965000D01*
X174625000Y-87630000D02*
X174625000Y-94425000D01*
X174625000Y-88900000D02*
X174625000Y-87630000D01*
X172720000Y-90805000D02*
X174625000Y-88900000D01*
X170180000Y-90805000D02*
X172720000Y-90805000D01*
X167640000Y-89535000D02*
X168910000Y-89535000D01*
X168910000Y-89535000D02*
X170180000Y-90805000D01*
D29*
%TO.N,Net-(F11-Pad1)*%
X174625000Y-74930000D02*
X177165000Y-74930000D01*
X177165000Y-74930000D02*
X179705000Y-77470000D01*
X179705000Y-98425000D02*
X177165000Y-100965000D01*
X179705000Y-77470000D02*
X179705000Y-98425000D01*
D27*
%TO.N,/PSEBUS1*%
X182880000Y-71755000D02*
X182880000Y-89535000D01*
X183880000Y-90535000D02*
X185025000Y-90535000D01*
X182880000Y-89535000D02*
X183880000Y-90535000D01*
X185025000Y-70215000D02*
X184420000Y-70215000D01*
X184420000Y-70215000D02*
X182880000Y-71755000D01*
%TO.N,/PSEBUS3*%
X185025000Y-72255000D02*
X185285000Y-72255000D01*
X186150001Y-73120001D02*
X186150001Y-78200001D01*
X185285000Y-72255000D02*
X186150001Y-73120001D01*
X185170002Y-92575000D02*
X185025000Y-92575000D01*
X186439999Y-91305003D02*
X185170002Y-92575000D01*
X186439999Y-91014999D02*
X186439999Y-91305003D01*
X188105001Y-89349997D02*
X186439999Y-91014999D01*
X188105001Y-80155001D02*
X188105001Y-89349997D01*
X186150001Y-78200001D02*
X188105001Y-80155001D01*
%TO.N,/PSEBUS2*%
X187565000Y-71235000D02*
X190615000Y-71235000D01*
X190615000Y-71235000D02*
X191770000Y-72390000D01*
X191770000Y-72390000D02*
X191770000Y-89535000D01*
X189750000Y-91555000D02*
X187565000Y-91555000D01*
X191770000Y-89535000D02*
X189750000Y-91555000D01*
%TO.N,Net-(R11-Pad1)*%
X164465000Y-81280000D02*
X166370000Y-83185000D01*
X166370000Y-83185000D02*
X173355000Y-83185000D01*
X173355000Y-83185000D02*
X174625000Y-81915000D01*
X174625000Y-81915000D02*
X174625000Y-80010000D01*
%TO.N,Net-(CN11-Pad1)*%
X144780000Y-74295000D02*
X149860000Y-79375000D01*
D30*
%TO.N,Net-(F11-Pad2)*%
X152400000Y-93980000D02*
X157480000Y-93980000D01*
D29*
X157480000Y-93980000D02*
X160020000Y-91440000D01*
X164360000Y-73130000D02*
X169525000Y-73130000D01*
X160020000Y-77470000D02*
X164360000Y-73130000D01*
D28*
X170180000Y-85725000D02*
X160020000Y-85725000D01*
D29*
X160020000Y-91440000D02*
X160020000Y-85725000D01*
D28*
X172085000Y-87630000D02*
X170180000Y-85725000D01*
D29*
X160020000Y-85725000D02*
X160020000Y-77470000D01*
%TD*%
D31*
%TO.N,/PSE_GND*%
G36*
X193775001Y-112020000D02*
G01*
X139265000Y-112020000D01*
X139265000Y-108414872D01*
X140155000Y-108414872D01*
X140155000Y-108855128D01*
X140240890Y-109286925D01*
X140409369Y-109693669D01*
X140653962Y-110059729D01*
X140965271Y-110371038D01*
X141331331Y-110615631D01*
X141738075Y-110784110D01*
X142169872Y-110870000D01*
X142610128Y-110870000D01*
X143041925Y-110784110D01*
X143448669Y-110615631D01*
X143814729Y-110371038D01*
X144126038Y-110059729D01*
X144370631Y-109693669D01*
X144539110Y-109286925D01*
X144625000Y-108855128D01*
X144625000Y-108414872D01*
X144539110Y-107983075D01*
X144370631Y-107576331D01*
X144126038Y-107210271D01*
X143814729Y-106898962D01*
X143448669Y-106654369D01*
X143041925Y-106485890D01*
X142633968Y-106404742D01*
X148428715Y-106404742D01*
X148497904Y-106687745D01*
X148620975Y-106951812D01*
X148793198Y-107186795D01*
X149007954Y-107383664D01*
X149256991Y-107534854D01*
X149530739Y-107634554D01*
X149543110Y-107636476D01*
X149773000Y-107515155D01*
X149773000Y-106172000D01*
X148572768Y-106172000D01*
X148428715Y-106404742D01*
X142633968Y-106404742D01*
X142610128Y-106400000D01*
X142169872Y-106400000D01*
X141738075Y-106485890D01*
X141331331Y-106654369D01*
X140965271Y-106898962D01*
X140653962Y-107210271D01*
X140409369Y-107576331D01*
X140240890Y-107983075D01*
X140155000Y-108414872D01*
X139265000Y-108414872D01*
X139265000Y-105685258D01*
X148428715Y-105685258D01*
X148572768Y-105918000D01*
X149773000Y-105918000D01*
X149773000Y-104574845D01*
X150027000Y-104574845D01*
X150027000Y-105918000D01*
X150047000Y-105918000D01*
X150047000Y-106172000D01*
X150027000Y-106172000D01*
X150027000Y-107515155D01*
X150256890Y-107636476D01*
X150269261Y-107634554D01*
X150543009Y-107534854D01*
X150792046Y-107383664D01*
X151006802Y-107186795D01*
X151007086Y-107186407D01*
X151061595Y-107288386D01*
X151172038Y-107422962D01*
X151306614Y-107533405D01*
X151460150Y-107615472D01*
X151626746Y-107666008D01*
X151800000Y-107683072D01*
X153000000Y-107683072D01*
X153173254Y-107666008D01*
X153339850Y-107615472D01*
X153493386Y-107533405D01*
X153627962Y-107422962D01*
X153738405Y-107288386D01*
X153820472Y-107134850D01*
X153871008Y-106968254D01*
X153888072Y-106795000D01*
X153888072Y-106779344D01*
X161080000Y-106779344D01*
X161080000Y-107150656D01*
X161152439Y-107514834D01*
X161294534Y-107857882D01*
X161500825Y-108166618D01*
X161763382Y-108429175D01*
X162072118Y-108635466D01*
X162415166Y-108777561D01*
X162779344Y-108850000D01*
X163150656Y-108850000D01*
X163514834Y-108777561D01*
X163857882Y-108635466D01*
X164166618Y-108429175D01*
X164429175Y-108166618D01*
X164635466Y-107857882D01*
X164777561Y-107514834D01*
X164803456Y-107384646D01*
X173327301Y-107384646D01*
X173444481Y-107735100D01*
X173627779Y-108055959D01*
X173870152Y-108334893D01*
X174162285Y-108561183D01*
X174492952Y-108726133D01*
X174745355Y-108802695D01*
X175038000Y-108686572D01*
X175038000Y-107092000D01*
X175292000Y-107092000D01*
X175292000Y-108686572D01*
X175584645Y-108802695D01*
X175837048Y-108726133D01*
X176167715Y-108561183D01*
X176356597Y-108414872D01*
X188415000Y-108414872D01*
X188415000Y-108855128D01*
X188500890Y-109286925D01*
X188669369Y-109693669D01*
X188913962Y-110059729D01*
X189225271Y-110371038D01*
X189591331Y-110615631D01*
X189998075Y-110784110D01*
X190429872Y-110870000D01*
X190870128Y-110870000D01*
X191301925Y-110784110D01*
X191708669Y-110615631D01*
X192074729Y-110371038D01*
X192386038Y-110059729D01*
X192630631Y-109693669D01*
X192799110Y-109286925D01*
X192885000Y-108855128D01*
X192885000Y-108414872D01*
X192799110Y-107983075D01*
X192630631Y-107576331D01*
X192386038Y-107210271D01*
X192074729Y-106898962D01*
X191708669Y-106654369D01*
X191301925Y-106485890D01*
X190870128Y-106400000D01*
X190429872Y-106400000D01*
X189998075Y-106485890D01*
X189591331Y-106654369D01*
X189225271Y-106898962D01*
X188913962Y-107210271D01*
X188669369Y-107576331D01*
X188500890Y-107983075D01*
X188415000Y-108414872D01*
X176356597Y-108414872D01*
X176459848Y-108334893D01*
X176702221Y-108055959D01*
X176885519Y-107735100D01*
X177002699Y-107384646D01*
X176886971Y-107092000D01*
X175292000Y-107092000D01*
X175038000Y-107092000D01*
X173443029Y-107092000D01*
X173327301Y-107384646D01*
X164803456Y-107384646D01*
X164850000Y-107150656D01*
X164850000Y-106779344D01*
X164803457Y-106545354D01*
X173327301Y-106545354D01*
X173443029Y-106838000D01*
X175038000Y-106838000D01*
X175038000Y-105243428D01*
X175292000Y-105243428D01*
X175292000Y-106838000D01*
X176886971Y-106838000D01*
X177002699Y-106545354D01*
X176885519Y-106194900D01*
X176702221Y-105874041D01*
X176459848Y-105595107D01*
X176167715Y-105368817D01*
X175837048Y-105203867D01*
X175584645Y-105127305D01*
X175292000Y-105243428D01*
X175038000Y-105243428D01*
X174745355Y-105127305D01*
X174492952Y-105203867D01*
X174162285Y-105368817D01*
X173870152Y-105595107D01*
X173627779Y-105874041D01*
X173444481Y-106194900D01*
X173327301Y-106545354D01*
X164803457Y-106545354D01*
X164777561Y-106415166D01*
X164635466Y-106072118D01*
X164429175Y-105763382D01*
X164166618Y-105500825D01*
X163857882Y-105294534D01*
X163514834Y-105152439D01*
X163150656Y-105080000D01*
X162779344Y-105080000D01*
X162415166Y-105152439D01*
X162072118Y-105294534D01*
X161763382Y-105500825D01*
X161500825Y-105763382D01*
X161294534Y-106072118D01*
X161152439Y-106415166D01*
X161080000Y-106779344D01*
X153888072Y-106779344D01*
X153888072Y-105295000D01*
X153871008Y-105121746D01*
X153820472Y-104955150D01*
X153738405Y-104801614D01*
X153627962Y-104667038D01*
X153493386Y-104556595D01*
X153339850Y-104474528D01*
X153173254Y-104423992D01*
X153000000Y-104406928D01*
X151800000Y-104406928D01*
X151626746Y-104423992D01*
X151460150Y-104474528D01*
X151306614Y-104556595D01*
X151172038Y-104667038D01*
X151061595Y-104801614D01*
X151007086Y-104903593D01*
X151006802Y-104903205D01*
X150792046Y-104706336D01*
X150543009Y-104555146D01*
X150269261Y-104455446D01*
X150256890Y-104453524D01*
X150027000Y-104574845D01*
X149773000Y-104574845D01*
X149543110Y-104453524D01*
X149530739Y-104455446D01*
X149256991Y-104555146D01*
X149007954Y-104706336D01*
X148793198Y-104903205D01*
X148620975Y-105138188D01*
X148497904Y-105402255D01*
X148428715Y-105685258D01*
X139265000Y-105685258D01*
X139265000Y-98922408D01*
X151003000Y-98922408D01*
X151003000Y-99197592D01*
X151056686Y-99467490D01*
X151161995Y-99721727D01*
X151314880Y-99950535D01*
X151509465Y-100145120D01*
X151738273Y-100298005D01*
X151992510Y-100403314D01*
X152262408Y-100457000D01*
X152537592Y-100457000D01*
X152807490Y-100403314D01*
X153061727Y-100298005D01*
X153290535Y-100145120D01*
X153485120Y-99950535D01*
X153638005Y-99721727D01*
X153743314Y-99467490D01*
X153797000Y-99197592D01*
X153797000Y-98922408D01*
X153743314Y-98652510D01*
X153638005Y-98398273D01*
X153485120Y-98169465D01*
X153290535Y-97974880D01*
X153061727Y-97821995D01*
X152990057Y-97792308D01*
X153003023Y-97787636D01*
X153118980Y-97725656D01*
X153185960Y-97485565D01*
X152400000Y-96699605D01*
X151614040Y-97485565D01*
X151681020Y-97725656D01*
X151816760Y-97789485D01*
X151738273Y-97821995D01*
X151509465Y-97974880D01*
X151314880Y-98169465D01*
X151161995Y-98398273D01*
X151056686Y-98652510D01*
X151003000Y-98922408D01*
X139265000Y-98922408D01*
X139265000Y-96785000D01*
X140701928Y-96785000D01*
X140714188Y-96909482D01*
X140750498Y-97029180D01*
X140809463Y-97139494D01*
X140888815Y-97236185D01*
X140985506Y-97315537D01*
X141095820Y-97374502D01*
X141215518Y-97410812D01*
X141340000Y-97423072D01*
X141954250Y-97420000D01*
X142113000Y-97261250D01*
X142113000Y-96012000D01*
X140863750Y-96012000D01*
X140705000Y-96170750D01*
X140701928Y-96785000D01*
X139265000Y-96785000D01*
X139265000Y-94985000D01*
X140701928Y-94985000D01*
X140705000Y-95599250D01*
X140863750Y-95758000D01*
X142113000Y-95758000D01*
X142113000Y-94508750D01*
X142367000Y-94508750D01*
X142367000Y-95758000D01*
X142387000Y-95758000D01*
X142387000Y-96012000D01*
X142367000Y-96012000D01*
X142367000Y-97261250D01*
X142525750Y-97420000D01*
X143140000Y-97423072D01*
X143264482Y-97410812D01*
X143384180Y-97374502D01*
X143494494Y-97315537D01*
X143591185Y-97236185D01*
X143670537Y-97139494D01*
X143729502Y-97029180D01*
X143735056Y-97010873D01*
X143801495Y-97077312D01*
X144052905Y-97245299D01*
X144332257Y-97361011D01*
X144628816Y-97420000D01*
X144931184Y-97420000D01*
X145227743Y-97361011D01*
X145507095Y-97245299D01*
X145758505Y-97077312D01*
X145972312Y-96863505D01*
X146140299Y-96612095D01*
X146148615Y-96592017D01*
X150998090Y-96592017D01*
X151039078Y-96864133D01*
X151132364Y-97123023D01*
X151194344Y-97238980D01*
X151434435Y-97305960D01*
X152220395Y-96520000D01*
X151434435Y-95734040D01*
X151194344Y-95801020D01*
X151077244Y-96050048D01*
X151010977Y-96317135D01*
X150998090Y-96592017D01*
X146148615Y-96592017D01*
X146256011Y-96332743D01*
X146315000Y-96036184D01*
X146315000Y-95733816D01*
X146256011Y-95437257D01*
X146140299Y-95157905D01*
X145972312Y-94906495D01*
X145758505Y-94692688D01*
X145507095Y-94524701D01*
X145227743Y-94408989D01*
X144931184Y-94350000D01*
X144628816Y-94350000D01*
X144332257Y-94408989D01*
X144052905Y-94524701D01*
X143801495Y-94692688D01*
X143735056Y-94759127D01*
X143729502Y-94740820D01*
X143670537Y-94630506D01*
X143591185Y-94533815D01*
X143494494Y-94454463D01*
X143384180Y-94395498D01*
X143264482Y-94359188D01*
X143140000Y-94346928D01*
X142525750Y-94350000D01*
X142367000Y-94508750D01*
X142113000Y-94508750D01*
X141954250Y-94350000D01*
X141340000Y-94346928D01*
X141215518Y-94359188D01*
X141095820Y-94395498D01*
X140985506Y-94454463D01*
X140888815Y-94533815D01*
X140809463Y-94630506D01*
X140750498Y-94740820D01*
X140714188Y-94860518D01*
X140701928Y-94985000D01*
X139265000Y-94985000D01*
X139265000Y-90028665D01*
X143345000Y-90028665D01*
X143345000Y-90311335D01*
X143400147Y-90588574D01*
X143508320Y-90849727D01*
X143665363Y-91084759D01*
X143865241Y-91284637D01*
X144100273Y-91441680D01*
X144361426Y-91549853D01*
X144638665Y-91605000D01*
X144921335Y-91605000D01*
X145198574Y-91549853D01*
X145459727Y-91441680D01*
X145694759Y-91284637D01*
X145894637Y-91084759D01*
X146051680Y-90849727D01*
X146159853Y-90588574D01*
X146215000Y-90311335D01*
X146215000Y-90028665D01*
X146159853Y-89751426D01*
X146051680Y-89490273D01*
X145894637Y-89255241D01*
X145694759Y-89055363D01*
X145459727Y-88898320D01*
X145198574Y-88790147D01*
X144921335Y-88735000D01*
X144638665Y-88735000D01*
X144361426Y-88790147D01*
X144100273Y-88898320D01*
X143865241Y-89055363D01*
X143665363Y-89255241D01*
X143508320Y-89490273D01*
X143400147Y-89751426D01*
X143345000Y-90028665D01*
X139265000Y-90028665D01*
X139265000Y-79868665D01*
X143345000Y-79868665D01*
X143345000Y-80151335D01*
X143400147Y-80428574D01*
X143508320Y-80689727D01*
X143665363Y-80924759D01*
X143865241Y-81124637D01*
X144100273Y-81281680D01*
X144361426Y-81389853D01*
X144638665Y-81445000D01*
X144921335Y-81445000D01*
X145198574Y-81389853D01*
X145459727Y-81281680D01*
X145694759Y-81124637D01*
X145894637Y-80924759D01*
X146051680Y-80689727D01*
X146159853Y-80428574D01*
X146215000Y-80151335D01*
X146215000Y-79868665D01*
X146159853Y-79591426D01*
X146051680Y-79330273D01*
X145894637Y-79095241D01*
X145694759Y-78895363D01*
X145459727Y-78738320D01*
X145198574Y-78630147D01*
X144921335Y-78575000D01*
X144638665Y-78575000D01*
X144361426Y-78630147D01*
X144100273Y-78738320D01*
X143865241Y-78895363D01*
X143665363Y-79095241D01*
X143508320Y-79330273D01*
X143400147Y-79591426D01*
X143345000Y-79868665D01*
X139265000Y-79868665D01*
X139265000Y-71795000D01*
X142502815Y-71795000D01*
X142531487Y-72086111D01*
X142616401Y-72366034D01*
X142754294Y-72624014D01*
X142939866Y-72850134D01*
X143003337Y-72902223D01*
X142901614Y-72956595D01*
X142767038Y-73067038D01*
X142656595Y-73201614D01*
X142574528Y-73355150D01*
X142523992Y-73521746D01*
X142506928Y-73695000D01*
X142506928Y-74895000D01*
X142523992Y-75068254D01*
X142574528Y-75234850D01*
X142656595Y-75388386D01*
X142767038Y-75522962D01*
X142901614Y-75633405D01*
X143055150Y-75715472D01*
X143221746Y-75766008D01*
X143395000Y-75783072D01*
X144895000Y-75783072D01*
X145068254Y-75766008D01*
X145151082Y-75740883D01*
X148217286Y-78807088D01*
X148191675Y-78868919D01*
X148125000Y-79204117D01*
X148125000Y-79545883D01*
X148191675Y-79881081D01*
X148322463Y-80196831D01*
X148512337Y-80480998D01*
X148754002Y-80722663D01*
X149038169Y-80912537D01*
X149353919Y-81043325D01*
X149689117Y-81110000D01*
X150030883Y-81110000D01*
X150366081Y-81043325D01*
X150681831Y-80912537D01*
X150965998Y-80722663D01*
X151207663Y-80480998D01*
X151397537Y-80196831D01*
X151528325Y-79881081D01*
X151595000Y-79545883D01*
X151595000Y-79204117D01*
X151528325Y-78868919D01*
X151397537Y-78553169D01*
X151207663Y-78269002D01*
X150965998Y-78027337D01*
X150681831Y-77837463D01*
X150366081Y-77706675D01*
X150030883Y-77640000D01*
X149689117Y-77640000D01*
X149353919Y-77706675D01*
X149292088Y-77732286D01*
X145783072Y-74223271D01*
X145783072Y-73695000D01*
X145766008Y-73521746D01*
X145715472Y-73355150D01*
X145633405Y-73201614D01*
X145522962Y-73067038D01*
X145388386Y-72956595D01*
X145286663Y-72902223D01*
X145350134Y-72850134D01*
X145535706Y-72624014D01*
X145673599Y-72366034D01*
X145758513Y-72086111D01*
X145784168Y-71825633D01*
X151959802Y-65650000D01*
X155173612Y-65650000D01*
X155218844Y-65759199D01*
X155419662Y-66059744D01*
X155675256Y-66315338D01*
X155975801Y-66516156D01*
X156309750Y-66654482D01*
X156664268Y-66725000D01*
X157025732Y-66725000D01*
X157380250Y-66654482D01*
X157714199Y-66516156D01*
X158014744Y-66315338D01*
X158270338Y-66059744D01*
X158471156Y-65759199D01*
X158516388Y-65650000D01*
X160591441Y-65650000D01*
X160642605Y-65653177D01*
X160703152Y-65644995D01*
X160763986Y-65639003D01*
X160777240Y-65634983D01*
X160790963Y-65633128D01*
X160848748Y-65613291D01*
X160907247Y-65595546D01*
X160919466Y-65589015D01*
X160932559Y-65584520D01*
X160985365Y-65553790D01*
X161039276Y-65524974D01*
X161078912Y-65492445D01*
X164637808Y-62923649D01*
X164761426Y-62974853D01*
X165038665Y-63030000D01*
X165321335Y-63030000D01*
X165598574Y-62974853D01*
X165859727Y-62866680D01*
X166094759Y-62709637D01*
X166294637Y-62509759D01*
X166451680Y-62274727D01*
X166559853Y-62013574D01*
X166615000Y-61736335D01*
X166615000Y-61453665D01*
X166601034Y-61383455D01*
X169189660Y-59180000D01*
X171135199Y-59180000D01*
X171325001Y-59369803D01*
X171325001Y-60725684D01*
X171294637Y-60680241D01*
X171094759Y-60480363D01*
X170859727Y-60323320D01*
X170598574Y-60215147D01*
X170321335Y-60160000D01*
X170038665Y-60160000D01*
X169761426Y-60215147D01*
X169500273Y-60323320D01*
X169265241Y-60480363D01*
X169065363Y-60680241D01*
X168908320Y-60915273D01*
X168800147Y-61176426D01*
X168745000Y-61453665D01*
X168745000Y-61736335D01*
X168752285Y-61772957D01*
X157907674Y-70551928D01*
X155645000Y-70551928D01*
X155520518Y-70564188D01*
X155400820Y-70600498D01*
X155290506Y-70659463D01*
X155193815Y-70738815D01*
X155114463Y-70835506D01*
X155055498Y-70945820D01*
X155019188Y-71065518D01*
X155006928Y-71190000D01*
X155006928Y-73153270D01*
X153794003Y-74366196D01*
X153764999Y-74389999D01*
X153720694Y-74443985D01*
X153670026Y-74505724D01*
X153638069Y-74565511D01*
X153599454Y-74637754D01*
X153555997Y-74781015D01*
X153545000Y-74892668D01*
X153545000Y-74892678D01*
X153541324Y-74930000D01*
X153545000Y-74967323D01*
X153545001Y-80061956D01*
X153390241Y-80165363D01*
X153190363Y-80365241D01*
X153033320Y-80600273D01*
X152925147Y-80861426D01*
X152870000Y-81138665D01*
X152870000Y-81421335D01*
X152925147Y-81698574D01*
X153033320Y-81959727D01*
X153190363Y-82194759D01*
X153390241Y-82394637D01*
X153545000Y-82498044D01*
X153545001Y-85687658D01*
X153545000Y-85687668D01*
X153545000Y-86045198D01*
X153355199Y-86235000D01*
X151823103Y-86235000D01*
X151806563Y-86232456D01*
X151748411Y-86235000D01*
X151727667Y-86235000D01*
X151711091Y-86236633D01*
X151656999Y-86238999D01*
X151636758Y-86243954D01*
X151616014Y-86245997D01*
X151564180Y-86261720D01*
X151511586Y-86274595D01*
X151492702Y-86283403D01*
X151472753Y-86289454D01*
X151424991Y-86314983D01*
X151375911Y-86337875D01*
X151359101Y-86350203D01*
X151340724Y-86360026D01*
X151298863Y-86394380D01*
X151255189Y-86426410D01*
X151241110Y-86441777D01*
X151224999Y-86454999D01*
X151190648Y-86496856D01*
X151179399Y-86509134D01*
X151166956Y-86525724D01*
X151130026Y-86570724D01*
X151122136Y-86585484D01*
X150213554Y-87796928D01*
X148760000Y-87796928D01*
X148635518Y-87809188D01*
X148515820Y-87845498D01*
X148405506Y-87904463D01*
X148308815Y-87983815D01*
X148229463Y-88080506D01*
X148170498Y-88190820D01*
X148134188Y-88310518D01*
X148121928Y-88435000D01*
X148121928Y-90635000D01*
X148134188Y-90759482D01*
X148170498Y-90879180D01*
X148229463Y-90989494D01*
X148308815Y-91086185D01*
X148405506Y-91165537D01*
X148515820Y-91224502D01*
X148635518Y-91260812D01*
X148760000Y-91273072D01*
X150960000Y-91273072D01*
X151084482Y-91260812D01*
X151204180Y-91224502D01*
X151314494Y-91165537D01*
X151411185Y-91086185D01*
X151490537Y-90989494D01*
X151549502Y-90879180D01*
X151585812Y-90759482D01*
X151598072Y-90635000D01*
X151598072Y-88484237D01*
X152145000Y-87755000D01*
X153632678Y-87755000D01*
X153670000Y-87758676D01*
X153707322Y-87755000D01*
X153707333Y-87755000D01*
X153818986Y-87744003D01*
X153962247Y-87700546D01*
X154094276Y-87629974D01*
X154210001Y-87535001D01*
X154233803Y-87505998D01*
X154816002Y-86923800D01*
X154845001Y-86900001D01*
X154939974Y-86784276D01*
X155010546Y-86652247D01*
X155054003Y-86508986D01*
X155065000Y-86397333D01*
X155068677Y-86360000D01*
X155065000Y-86322667D01*
X155065000Y-82498043D01*
X155219759Y-82394637D01*
X155419637Y-82194759D01*
X155576680Y-81959727D01*
X155684853Y-81698574D01*
X155740000Y-81421335D01*
X155740000Y-81138665D01*
X155684853Y-80861426D01*
X155576680Y-80600273D01*
X155419637Y-80365241D01*
X155219759Y-80165363D01*
X155065000Y-80061957D01*
X155065000Y-75244801D01*
X156081730Y-74228072D01*
X158045000Y-74228072D01*
X158169482Y-74215812D01*
X158289180Y-74179502D01*
X158399494Y-74120537D01*
X158496185Y-74041185D01*
X158575537Y-73944494D01*
X158634502Y-73834180D01*
X158670812Y-73714482D01*
X158683072Y-73590000D01*
X158683072Y-71879848D01*
X163958727Y-67609080D01*
X168145525Y-67609080D01*
X168229208Y-67863261D01*
X168501775Y-67994158D01*
X168794642Y-68069365D01*
X169096553Y-68085991D01*
X169395907Y-68043397D01*
X169681199Y-67943222D01*
X169830792Y-67863261D01*
X169914475Y-67609080D01*
X169030000Y-66724605D01*
X168145525Y-67609080D01*
X163958727Y-67609080D01*
X165190967Y-66611553D01*
X167489009Y-66611553D01*
X167531603Y-66910907D01*
X167631778Y-67196199D01*
X167711739Y-67345792D01*
X167965920Y-67429475D01*
X168850395Y-66545000D01*
X169209605Y-66545000D01*
X170094080Y-67429475D01*
X170348261Y-67345792D01*
X170479158Y-67073225D01*
X170554365Y-66780358D01*
X170570991Y-66478447D01*
X170528397Y-66179093D01*
X170428222Y-65893801D01*
X170348261Y-65744208D01*
X170094080Y-65660525D01*
X169209605Y-66545000D01*
X168850395Y-66545000D01*
X167965920Y-65660525D01*
X167711739Y-65744208D01*
X167580842Y-66016775D01*
X167505635Y-66309642D01*
X167489009Y-66611553D01*
X165190967Y-66611553D01*
X166587631Y-65480920D01*
X168145525Y-65480920D01*
X169030000Y-66365395D01*
X169914475Y-65480920D01*
X169830792Y-65226739D01*
X169558225Y-65095842D01*
X169265358Y-65020635D01*
X168963447Y-65004009D01*
X168664093Y-65046603D01*
X168378801Y-65146778D01*
X168229208Y-65226739D01*
X168145525Y-65480920D01*
X166587631Y-65480920D01*
X169709786Y-62953463D01*
X169761426Y-62974853D01*
X170038665Y-63030000D01*
X170321335Y-63030000D01*
X170598574Y-62974853D01*
X170859727Y-62866680D01*
X171094759Y-62709637D01*
X171294637Y-62509759D01*
X171325001Y-62464316D01*
X171325000Y-71968471D01*
X171308777Y-71938119D01*
X171041977Y-71613023D01*
X170716881Y-71346223D01*
X170345982Y-71147974D01*
X169943533Y-71025892D01*
X169629882Y-70995000D01*
X164464874Y-70995000D01*
X164360000Y-70984671D01*
X164255125Y-70995000D01*
X164255118Y-70995000D01*
X163979001Y-71022195D01*
X163941466Y-71025892D01*
X163718050Y-71093665D01*
X163539018Y-71147974D01*
X163168119Y-71346223D01*
X163168117Y-71346224D01*
X163168118Y-71346224D01*
X162924489Y-71546165D01*
X162924487Y-71546167D01*
X162843023Y-71613023D01*
X162776167Y-71694487D01*
X158584487Y-75886168D01*
X158503024Y-75953023D01*
X158436168Y-76034487D01*
X158436165Y-76034490D01*
X158236224Y-76278119D01*
X158037975Y-76649018D01*
X157915893Y-77051467D01*
X157874671Y-77470000D01*
X157885001Y-77574882D01*
X157885000Y-85829881D01*
X157885001Y-85829891D01*
X157885000Y-90555654D01*
X156095655Y-92345000D01*
X152319678Y-92345000D01*
X152079484Y-92368657D01*
X151771285Y-92462148D01*
X151487248Y-92613969D01*
X151238286Y-92818286D01*
X151033969Y-93067248D01*
X150882148Y-93351285D01*
X150788657Y-93659484D01*
X150757089Y-93980000D01*
X150788657Y-94300516D01*
X150882148Y-94608715D01*
X151033969Y-94892752D01*
X151238286Y-95141714D01*
X151487248Y-95346031D01*
X151648182Y-95432052D01*
X151614040Y-95554435D01*
X152400000Y-96340395D01*
X152414143Y-96326253D01*
X152593748Y-96505858D01*
X152579605Y-96520000D01*
X153365565Y-97305960D01*
X153605656Y-97238980D01*
X153722756Y-96989952D01*
X153789023Y-96722865D01*
X153801910Y-96447983D01*
X153760922Y-96175867D01*
X153667636Y-95916977D01*
X153605656Y-95801020D01*
X153365567Y-95734041D01*
X153481977Y-95617631D01*
X153479346Y-95615000D01*
X156106835Y-95615000D01*
X156288119Y-95763776D01*
X156659018Y-95962025D01*
X157061467Y-96084107D01*
X157480000Y-96125329D01*
X157898533Y-96084107D01*
X158300982Y-95962025D01*
X158671881Y-95763776D01*
X158915510Y-95563835D01*
X159700001Y-94779344D01*
X161080000Y-94779344D01*
X161080000Y-95150656D01*
X161152439Y-95514834D01*
X161294534Y-95857882D01*
X161500825Y-96166618D01*
X161763382Y-96429175D01*
X162072118Y-96635466D01*
X162415166Y-96777561D01*
X162779344Y-96850000D01*
X163150656Y-96850000D01*
X163514834Y-96777561D01*
X163857882Y-96635466D01*
X164166618Y-96429175D01*
X164429175Y-96166618D01*
X164635466Y-95857882D01*
X164777561Y-95514834D01*
X164850000Y-95150656D01*
X164850000Y-94779344D01*
X164777561Y-94415166D01*
X164635466Y-94072118D01*
X164429175Y-93763382D01*
X164166618Y-93500825D01*
X163857882Y-93294534D01*
X163514834Y-93152439D01*
X163150656Y-93080000D01*
X162779344Y-93080000D01*
X162415166Y-93152439D01*
X162072118Y-93294534D01*
X161763382Y-93500825D01*
X161500825Y-93763382D01*
X161294534Y-94072118D01*
X161152439Y-94415166D01*
X161080000Y-94779344D01*
X159700001Y-94779344D01*
X161455513Y-93023833D01*
X161536977Y-92956977D01*
X161610618Y-92867246D01*
X161772791Y-92669637D01*
X161803777Y-92631881D01*
X162002026Y-92260982D01*
X162124108Y-91858533D01*
X162155000Y-91544882D01*
X162155000Y-91544873D01*
X162165329Y-91440001D01*
X162155000Y-91335129D01*
X162155000Y-87235000D01*
X169554538Y-87235000D01*
X171069720Y-88750183D01*
X171242030Y-88891593D01*
X171504352Y-89031808D01*
X171788988Y-89118151D01*
X172085000Y-89147305D01*
X172259410Y-89130127D01*
X172094538Y-89295000D01*
X170805462Y-89295000D01*
X170030183Y-88519721D01*
X170013072Y-88498871D01*
X170013072Y-88435000D01*
X170000812Y-88310518D01*
X169964502Y-88190820D01*
X169905537Y-88080506D01*
X169826185Y-87983815D01*
X169729494Y-87904463D01*
X169619180Y-87845498D01*
X169499482Y-87809188D01*
X169375000Y-87796928D01*
X167175000Y-87796928D01*
X167050518Y-87809188D01*
X166930820Y-87845498D01*
X166820506Y-87904463D01*
X166723815Y-87983815D01*
X166644463Y-88080506D01*
X166585498Y-88190820D01*
X166549188Y-88310518D01*
X166536928Y-88435000D01*
X166536928Y-88498871D01*
X166378406Y-88692030D01*
X166238192Y-88954352D01*
X166151849Y-89238988D01*
X166122694Y-89535000D01*
X166151849Y-89831012D01*
X166238192Y-90115648D01*
X166378406Y-90377970D01*
X166536928Y-90571129D01*
X166536928Y-90635000D01*
X166549188Y-90759482D01*
X166585498Y-90879180D01*
X166644463Y-90989494D01*
X166723815Y-91086185D01*
X166820506Y-91165537D01*
X166930820Y-91224502D01*
X167050518Y-91260812D01*
X167175000Y-91273072D01*
X168512610Y-91273072D01*
X169059817Y-91820279D01*
X169107103Y-91877897D01*
X169337030Y-92066594D01*
X169599352Y-92206808D01*
X169777941Y-92260982D01*
X169883987Y-92293151D01*
X169913689Y-92296076D01*
X170105822Y-92315000D01*
X170105828Y-92315000D01*
X170179999Y-92322305D01*
X170254170Y-92315000D01*
X172645830Y-92315000D01*
X172720000Y-92322305D01*
X172794170Y-92315000D01*
X172794178Y-92315000D01*
X173016012Y-92293151D01*
X173115001Y-92263123D01*
X173115001Y-94350820D01*
X173107695Y-94425000D01*
X173136849Y-94721011D01*
X173223192Y-95005647D01*
X173254981Y-95065120D01*
X173280000Y-95111926D01*
X173280000Y-95150656D01*
X173352439Y-95514834D01*
X173494534Y-95857882D01*
X173700825Y-96166618D01*
X173963382Y-96429175D01*
X174272118Y-96635466D01*
X174615166Y-96777561D01*
X174979344Y-96850000D01*
X175350656Y-96850000D01*
X175714834Y-96777561D01*
X176057882Y-96635466D01*
X176366618Y-96429175D01*
X176629175Y-96166618D01*
X176835466Y-95857882D01*
X176977561Y-95514834D01*
X177050000Y-95150656D01*
X177050000Y-94779344D01*
X176977561Y-94415166D01*
X176835466Y-94072118D01*
X176629175Y-93763382D01*
X176366618Y-93500825D01*
X176135000Y-93346063D01*
X176135000Y-88974171D01*
X176142305Y-88900000D01*
X176135000Y-88825830D01*
X176135000Y-87555822D01*
X176113151Y-87333988D01*
X176026808Y-87049352D01*
X175886594Y-86787030D01*
X175697897Y-86557103D01*
X175639447Y-86509134D01*
X175467970Y-86368406D01*
X175205648Y-86228192D01*
X174921012Y-86141849D01*
X174625000Y-86112694D01*
X174328988Y-86141849D01*
X174044352Y-86228192D01*
X173782030Y-86368406D01*
X173552103Y-86557103D01*
X173363406Y-86787031D01*
X173355000Y-86802758D01*
X173346593Y-86787030D01*
X173205183Y-86614720D01*
X171300183Y-84709721D01*
X171252897Y-84652103D01*
X171022970Y-84463406D01*
X170760648Y-84323192D01*
X170476012Y-84236849D01*
X170254178Y-84215000D01*
X170254170Y-84215000D01*
X170180000Y-84207695D01*
X170105830Y-84215000D01*
X162155000Y-84215000D01*
X162155000Y-79771123D01*
X166585821Y-79771123D01*
X166695558Y-80093054D01*
X166865992Y-80387391D01*
X167090573Y-80642822D01*
X167360671Y-80849531D01*
X167665906Y-80999575D01*
X167878878Y-81064175D01*
X168148000Y-80946125D01*
X168148000Y-79502000D01*
X168402000Y-79502000D01*
X168402000Y-80946125D01*
X168671122Y-81064175D01*
X168884094Y-80999575D01*
X169189329Y-80849531D01*
X169459427Y-80642822D01*
X169684008Y-80387391D01*
X169854442Y-80093054D01*
X169964179Y-79771123D01*
X169846600Y-79502000D01*
X168402000Y-79502000D01*
X168148000Y-79502000D01*
X166703400Y-79502000D01*
X166585821Y-79771123D01*
X162155000Y-79771123D01*
X162155000Y-78978877D01*
X166585821Y-78978877D01*
X166703400Y-79248000D01*
X168148000Y-79248000D01*
X168148000Y-77803875D01*
X168402000Y-77803875D01*
X168402000Y-79248000D01*
X169846600Y-79248000D01*
X169964179Y-78978877D01*
X169854442Y-78656946D01*
X169684008Y-78362609D01*
X169459427Y-78107178D01*
X169189329Y-77900469D01*
X168884094Y-77750425D01*
X168671122Y-77685825D01*
X168402000Y-77803875D01*
X168148000Y-77803875D01*
X167878878Y-77685825D01*
X167665906Y-77750425D01*
X167360671Y-77900469D01*
X167090573Y-78107178D01*
X166865992Y-78362609D01*
X166695558Y-78656946D01*
X166585821Y-78978877D01*
X162155000Y-78978877D01*
X162155000Y-78354345D01*
X165244346Y-75265000D01*
X169629882Y-75265000D01*
X169943533Y-75234108D01*
X170345982Y-75112026D01*
X170716881Y-74913777D01*
X171041977Y-74646977D01*
X171308777Y-74321881D01*
X171325000Y-74291529D01*
X171325000Y-78791957D01*
X171170241Y-78895363D01*
X170970363Y-79095241D01*
X170813320Y-79330273D01*
X170705147Y-79591426D01*
X170650000Y-79868665D01*
X170650000Y-80151335D01*
X170705147Y-80428574D01*
X170813320Y-80689727D01*
X170970363Y-80924759D01*
X171170241Y-81124637D01*
X171405273Y-81281680D01*
X171666426Y-81389853D01*
X171943665Y-81445000D01*
X172226335Y-81445000D01*
X172503574Y-81389853D01*
X172764727Y-81281680D01*
X172999759Y-81124637D01*
X173198357Y-80926039D01*
X173199188Y-80934482D01*
X173235498Y-81054180D01*
X173294463Y-81164494D01*
X173373815Y-81261185D01*
X173470506Y-81340537D01*
X173580820Y-81399502D01*
X173700518Y-81435812D01*
X173825000Y-81448072D01*
X173865000Y-81448072D01*
X173865000Y-81600198D01*
X173040199Y-82425000D01*
X166684802Y-82425000D01*
X165863688Y-81603886D01*
X165900000Y-81421335D01*
X165900000Y-81138665D01*
X165844853Y-80861426D01*
X165736680Y-80600273D01*
X165579637Y-80365241D01*
X165379759Y-80165363D01*
X165144727Y-80008320D01*
X164883574Y-79900147D01*
X164606335Y-79845000D01*
X164323665Y-79845000D01*
X164046426Y-79900147D01*
X163785273Y-80008320D01*
X163550241Y-80165363D01*
X163350363Y-80365241D01*
X163193320Y-80600273D01*
X163085147Y-80861426D01*
X163030000Y-81138665D01*
X163030000Y-81421335D01*
X163085147Y-81698574D01*
X163193320Y-81959727D01*
X163350363Y-82194759D01*
X163550241Y-82394637D01*
X163785273Y-82551680D01*
X164046426Y-82659853D01*
X164323665Y-82715000D01*
X164606335Y-82715000D01*
X164788886Y-82678688D01*
X165806201Y-83696003D01*
X165829999Y-83725001D01*
X165945724Y-83819974D01*
X166077753Y-83890546D01*
X166221014Y-83934003D01*
X166332667Y-83945000D01*
X166332677Y-83945000D01*
X166370000Y-83948676D01*
X166407323Y-83945000D01*
X173317678Y-83945000D01*
X173355000Y-83948676D01*
X173392322Y-83945000D01*
X173392333Y-83945000D01*
X173503986Y-83934003D01*
X173647247Y-83890546D01*
X173779276Y-83819974D01*
X173895001Y-83725001D01*
X173918804Y-83695997D01*
X175136004Y-82478798D01*
X175165001Y-82455001D01*
X175259974Y-82339276D01*
X175330546Y-82207247D01*
X175374003Y-82063986D01*
X175385000Y-81952333D01*
X175385000Y-81952324D01*
X175388676Y-81915001D01*
X175385000Y-81877678D01*
X175385000Y-81448072D01*
X175425000Y-81448072D01*
X175549482Y-81435812D01*
X175669180Y-81399502D01*
X175779494Y-81340537D01*
X175876185Y-81261185D01*
X175955537Y-81164494D01*
X176014502Y-81054180D01*
X176050812Y-80934482D01*
X176063072Y-80810000D01*
X176063072Y-79210000D01*
X176050812Y-79085518D01*
X176014502Y-78965820D01*
X175955537Y-78855506D01*
X175876185Y-78758815D01*
X175779494Y-78679463D01*
X175669180Y-78620498D01*
X175549482Y-78584188D01*
X175425000Y-78571928D01*
X173825000Y-78571928D01*
X173700518Y-78584188D01*
X173580820Y-78620498D01*
X173470506Y-78679463D01*
X173373815Y-78758815D01*
X173294463Y-78855506D01*
X173235498Y-78965820D01*
X173199188Y-79085518D01*
X173198357Y-79093961D01*
X172999759Y-78895363D01*
X172845000Y-78791957D01*
X172845000Y-76126483D01*
X173108023Y-76446977D01*
X173433119Y-76713777D01*
X173804018Y-76912026D01*
X174206467Y-77034108D01*
X174520118Y-77065000D01*
X176280655Y-77065000D01*
X177570000Y-78354346D01*
X177570001Y-97540653D01*
X176033727Y-99076928D01*
X175915000Y-99076928D01*
X175790518Y-99089188D01*
X175670820Y-99125498D01*
X175560506Y-99184463D01*
X175463815Y-99263815D01*
X175384463Y-99360506D01*
X175325498Y-99470820D01*
X175289188Y-99590518D01*
X175276928Y-99715000D01*
X175276928Y-99968244D01*
X175182975Y-100144018D01*
X175060893Y-100546467D01*
X175019671Y-100965000D01*
X175060893Y-101383533D01*
X175182975Y-101785982D01*
X175276928Y-101961756D01*
X175276928Y-102215000D01*
X175289188Y-102339482D01*
X175325498Y-102459180D01*
X175384463Y-102569494D01*
X175463815Y-102666185D01*
X175560506Y-102745537D01*
X175670820Y-102804502D01*
X175790518Y-102840812D01*
X175915000Y-102853072D01*
X176168244Y-102853072D01*
X176344018Y-102947025D01*
X176746467Y-103069107D01*
X177165000Y-103110329D01*
X177583533Y-103069107D01*
X177985982Y-102947025D01*
X178161756Y-102853072D01*
X178415000Y-102853072D01*
X178539482Y-102840812D01*
X178659180Y-102804502D01*
X178769494Y-102745537D01*
X178866185Y-102666185D01*
X178945537Y-102569494D01*
X178966796Y-102529721D01*
X182890000Y-102529721D01*
X182890000Y-102950279D01*
X182972047Y-103362756D01*
X183132988Y-103751302D01*
X183366637Y-104100983D01*
X183664017Y-104398363D01*
X184013698Y-104632012D01*
X184402244Y-104792953D01*
X184814721Y-104875000D01*
X185235279Y-104875000D01*
X185647756Y-104792953D01*
X186036302Y-104632012D01*
X186385983Y-104398363D01*
X186683363Y-104100983D01*
X186917012Y-103751302D01*
X187077953Y-103362756D01*
X187160000Y-102950279D01*
X187160000Y-102529721D01*
X187077953Y-102117244D01*
X186960741Y-101834268D01*
X188030000Y-101834268D01*
X188030000Y-102195732D01*
X188100518Y-102550250D01*
X188238844Y-102884199D01*
X188439662Y-103184744D01*
X188695256Y-103440338D01*
X188995801Y-103641156D01*
X189329750Y-103779482D01*
X189684268Y-103850000D01*
X190045732Y-103850000D01*
X190400250Y-103779482D01*
X190734199Y-103641156D01*
X191034744Y-103440338D01*
X191290338Y-103184744D01*
X191491156Y-102884199D01*
X191629482Y-102550250D01*
X191700000Y-102195732D01*
X191700000Y-101834268D01*
X191629482Y-101479750D01*
X191491156Y-101145801D01*
X191290338Y-100845256D01*
X191034744Y-100589662D01*
X190734199Y-100388844D01*
X190400250Y-100250518D01*
X190045732Y-100180000D01*
X189684268Y-100180000D01*
X189329750Y-100250518D01*
X188995801Y-100388844D01*
X188695256Y-100589662D01*
X188439662Y-100845256D01*
X188238844Y-101145801D01*
X188100518Y-101479750D01*
X188030000Y-101834268D01*
X186960741Y-101834268D01*
X186917012Y-101728698D01*
X186683363Y-101379017D01*
X186385983Y-101081637D01*
X186036302Y-100847988D01*
X185647756Y-100687047D01*
X185235279Y-100605000D01*
X184814721Y-100605000D01*
X184402244Y-100687047D01*
X184013698Y-100847988D01*
X183664017Y-101081637D01*
X183366637Y-101379017D01*
X183132988Y-101728698D01*
X182972047Y-102117244D01*
X182890000Y-102529721D01*
X178966796Y-102529721D01*
X179004502Y-102459180D01*
X179040812Y-102339482D01*
X179053072Y-102215000D01*
X179053072Y-102096273D01*
X181140513Y-100008833D01*
X181221977Y-99941977D01*
X181360556Y-99773119D01*
X181488776Y-99616882D01*
X181566848Y-99470820D01*
X181687026Y-99245982D01*
X181809108Y-98843533D01*
X181840000Y-98529882D01*
X181840000Y-98529873D01*
X181850329Y-98425001D01*
X181840000Y-98320129D01*
X181840000Y-77574871D01*
X181850329Y-77469999D01*
X181840000Y-77365127D01*
X181840000Y-77365118D01*
X181809108Y-77051467D01*
X181687026Y-76649018D01*
X181488777Y-76278119D01*
X181361625Y-76123184D01*
X181288835Y-76034489D01*
X181288833Y-76034487D01*
X181221977Y-75953023D01*
X181140513Y-75886167D01*
X178748837Y-73494492D01*
X178681977Y-73413023D01*
X178356881Y-73146223D01*
X177985982Y-72947974D01*
X177583533Y-72825892D01*
X177269882Y-72795000D01*
X177269872Y-72795000D01*
X177165000Y-72784671D01*
X177060128Y-72795000D01*
X174520118Y-72795000D01*
X174206467Y-72825892D01*
X173804018Y-72947974D01*
X173433119Y-73146223D01*
X173108023Y-73413023D01*
X172845000Y-73733517D01*
X172845000Y-71755000D01*
X182116324Y-71755000D01*
X182120000Y-71792322D01*
X182120001Y-89497667D01*
X182116324Y-89535000D01*
X182120001Y-89572333D01*
X182130998Y-89683986D01*
X182144180Y-89727442D01*
X182174454Y-89827246D01*
X182245026Y-89959276D01*
X182298142Y-90023997D01*
X182340000Y-90075001D01*
X182368998Y-90098799D01*
X183316201Y-91046003D01*
X183339999Y-91075001D01*
X183368997Y-91098799D01*
X183455724Y-91169974D01*
X183586928Y-91240105D01*
X183586928Y-91335000D01*
X183599188Y-91459482D01*
X183635498Y-91579180D01*
X183694463Y-91689494D01*
X183773815Y-91786185D01*
X183807654Y-91813956D01*
X183753320Y-91895273D01*
X183645147Y-92156426D01*
X183590000Y-92433665D01*
X183590000Y-92716335D01*
X183645147Y-92993574D01*
X183753320Y-93254727D01*
X183910363Y-93489759D01*
X184015604Y-93595000D01*
X183910363Y-93700241D01*
X183753320Y-93935273D01*
X183645147Y-94196426D01*
X183590000Y-94473665D01*
X183590000Y-94756335D01*
X183645147Y-95033574D01*
X183753320Y-95294727D01*
X183910363Y-95529759D01*
X184015604Y-95635000D01*
X183910363Y-95740241D01*
X183753320Y-95975273D01*
X183645147Y-96236426D01*
X183590000Y-96513665D01*
X183590000Y-96796335D01*
X183645147Y-97073574D01*
X183753320Y-97334727D01*
X183910363Y-97569759D01*
X184110241Y-97769637D01*
X184345273Y-97926680D01*
X184606426Y-98034853D01*
X184883665Y-98090000D01*
X185166335Y-98090000D01*
X185443574Y-98034853D01*
X185704727Y-97926680D01*
X185939759Y-97769637D01*
X186130000Y-97579396D01*
X186130000Y-97816335D01*
X186185147Y-98093574D01*
X186293320Y-98354727D01*
X186450363Y-98589759D01*
X186650241Y-98789637D01*
X186885273Y-98946680D01*
X187146426Y-99054853D01*
X187423665Y-99110000D01*
X187706335Y-99110000D01*
X187983574Y-99054853D01*
X188244727Y-98946680D01*
X188479759Y-98789637D01*
X188679637Y-98589759D01*
X188836680Y-98354727D01*
X188944853Y-98093574D01*
X189000000Y-97816335D01*
X189000000Y-97533665D01*
X188944853Y-97256426D01*
X188836680Y-96995273D01*
X188679637Y-96760241D01*
X188574396Y-96655000D01*
X188679637Y-96549759D01*
X188836680Y-96314727D01*
X188944853Y-96053574D01*
X189000000Y-95776335D01*
X189000000Y-95493665D01*
X188944853Y-95216426D01*
X188836680Y-94955273D01*
X188679637Y-94720241D01*
X188574396Y-94615000D01*
X188679637Y-94509759D01*
X188836680Y-94274727D01*
X188944853Y-94013574D01*
X189000000Y-93736335D01*
X189000000Y-93453665D01*
X188944853Y-93176426D01*
X188836680Y-92915273D01*
X188679637Y-92680241D01*
X188574396Y-92575000D01*
X188679637Y-92469759D01*
X188783043Y-92315000D01*
X189712678Y-92315000D01*
X189750000Y-92318676D01*
X189787322Y-92315000D01*
X189787333Y-92315000D01*
X189898986Y-92304003D01*
X190042247Y-92260546D01*
X190174276Y-92189974D01*
X190290001Y-92095001D01*
X190313804Y-92065998D01*
X192281008Y-90098795D01*
X192310001Y-90075001D01*
X192333795Y-90046008D01*
X192333799Y-90046004D01*
X192404973Y-89959277D01*
X192404974Y-89959276D01*
X192475546Y-89827247D01*
X192519003Y-89683986D01*
X192530000Y-89572333D01*
X192530000Y-89572324D01*
X192533676Y-89535001D01*
X192530000Y-89497678D01*
X192530000Y-72427325D01*
X192533676Y-72390000D01*
X192530000Y-72352675D01*
X192530000Y-72352667D01*
X192519003Y-72241014D01*
X192475546Y-72097753D01*
X192404974Y-71965724D01*
X192310001Y-71849999D01*
X192281003Y-71826201D01*
X191178804Y-70724003D01*
X191155001Y-70694999D01*
X191039276Y-70600026D01*
X190907247Y-70529454D01*
X190763986Y-70485997D01*
X190652333Y-70475000D01*
X190652322Y-70475000D01*
X190615000Y-70471324D01*
X190577678Y-70475000D01*
X188783043Y-70475000D01*
X188679637Y-70320241D01*
X188479759Y-70120363D01*
X188244727Y-69963320D01*
X187983574Y-69855147D01*
X187706335Y-69800000D01*
X187423665Y-69800000D01*
X187146426Y-69855147D01*
X186885273Y-69963320D01*
X186650241Y-70120363D01*
X186463072Y-70307532D01*
X186463072Y-69415000D01*
X186450812Y-69290518D01*
X186414502Y-69170820D01*
X186355537Y-69060506D01*
X186276185Y-68963815D01*
X186179494Y-68884463D01*
X186069180Y-68825498D01*
X185949482Y-68789188D01*
X185825000Y-68776928D01*
X184225000Y-68776928D01*
X184100518Y-68789188D01*
X183980820Y-68825498D01*
X183870506Y-68884463D01*
X183773815Y-68963815D01*
X183694463Y-69060506D01*
X183635498Y-69170820D01*
X183599188Y-69290518D01*
X183586928Y-69415000D01*
X183586928Y-69973270D01*
X182369003Y-71191196D01*
X182339999Y-71214999D01*
X182303741Y-71259180D01*
X182245026Y-71330724D01*
X182216557Y-71383986D01*
X182174454Y-71462754D01*
X182130997Y-71606015D01*
X182120000Y-71717668D01*
X182120000Y-71717678D01*
X182116324Y-71755000D01*
X172845000Y-71755000D01*
X172845000Y-67793816D01*
X174995000Y-67793816D01*
X174995000Y-68096184D01*
X175053989Y-68392743D01*
X175169701Y-68672095D01*
X175337688Y-68923505D01*
X175551495Y-69137312D01*
X175802905Y-69305299D01*
X176082257Y-69421011D01*
X176378816Y-69480000D01*
X176681184Y-69480000D01*
X176977743Y-69421011D01*
X177257095Y-69305299D01*
X177508505Y-69137312D01*
X177722312Y-68923505D01*
X177890299Y-68672095D01*
X178006011Y-68392743D01*
X178065000Y-68096184D01*
X178065000Y-67793816D01*
X178006011Y-67497257D01*
X177890299Y-67217905D01*
X177722312Y-66966495D01*
X177508505Y-66752688D01*
X177257095Y-66584701D01*
X176977743Y-66468989D01*
X176681184Y-66410000D01*
X176378816Y-66410000D01*
X176082257Y-66468989D01*
X175802905Y-66584701D01*
X175551495Y-66752688D01*
X175337688Y-66966495D01*
X175169701Y-67217905D01*
X175053989Y-67497257D01*
X174995000Y-67793816D01*
X172845000Y-67793816D01*
X172845000Y-65959721D01*
X182890000Y-65959721D01*
X182890000Y-66380279D01*
X182972047Y-66792756D01*
X183132988Y-67181302D01*
X183366637Y-67530983D01*
X183664017Y-67828363D01*
X184013698Y-68062012D01*
X184402244Y-68222953D01*
X184814721Y-68305000D01*
X185235279Y-68305000D01*
X185647756Y-68222953D01*
X186036302Y-68062012D01*
X186385983Y-67828363D01*
X186683363Y-67530983D01*
X186917012Y-67181302D01*
X187077953Y-66792756D01*
X187093565Y-66714268D01*
X188030000Y-66714268D01*
X188030000Y-67075732D01*
X188100518Y-67430250D01*
X188238844Y-67764199D01*
X188439662Y-68064744D01*
X188695256Y-68320338D01*
X188995801Y-68521156D01*
X189329750Y-68659482D01*
X189684268Y-68730000D01*
X190045732Y-68730000D01*
X190400250Y-68659482D01*
X190734199Y-68521156D01*
X191034744Y-68320338D01*
X191290338Y-68064744D01*
X191491156Y-67764199D01*
X191629482Y-67430250D01*
X191700000Y-67075732D01*
X191700000Y-66714268D01*
X191629482Y-66359750D01*
X191491156Y-66025801D01*
X191290338Y-65725256D01*
X191034744Y-65469662D01*
X190734199Y-65268844D01*
X190400250Y-65130518D01*
X190045732Y-65060000D01*
X189684268Y-65060000D01*
X189329750Y-65130518D01*
X188995801Y-65268844D01*
X188695256Y-65469662D01*
X188439662Y-65725256D01*
X188238844Y-66025801D01*
X188100518Y-66359750D01*
X188030000Y-66714268D01*
X187093565Y-66714268D01*
X187160000Y-66380279D01*
X187160000Y-65959721D01*
X187077953Y-65547244D01*
X186917012Y-65158698D01*
X186683363Y-64809017D01*
X186385983Y-64511637D01*
X186036302Y-64277988D01*
X185647756Y-64117047D01*
X185235279Y-64035000D01*
X184814721Y-64035000D01*
X184402244Y-64117047D01*
X184013698Y-64277988D01*
X183664017Y-64511637D01*
X183366637Y-64809017D01*
X183132988Y-65158698D01*
X182972047Y-65547244D01*
X182890000Y-65959721D01*
X172845000Y-65959721D01*
X172845000Y-60414872D01*
X188415000Y-60414872D01*
X188415000Y-60855128D01*
X188500890Y-61286925D01*
X188669369Y-61693669D01*
X188913962Y-62059729D01*
X189225271Y-62371038D01*
X189591331Y-62615631D01*
X189998075Y-62784110D01*
X190429872Y-62870000D01*
X190870128Y-62870000D01*
X191301925Y-62784110D01*
X191708669Y-62615631D01*
X192074729Y-62371038D01*
X192386038Y-62059729D01*
X192630631Y-61693669D01*
X192799110Y-61286925D01*
X192885000Y-60855128D01*
X192885000Y-60414872D01*
X192799110Y-59983075D01*
X192630631Y-59576331D01*
X192386038Y-59210271D01*
X192074729Y-58898962D01*
X191708669Y-58654369D01*
X191301925Y-58485890D01*
X190870128Y-58400000D01*
X190429872Y-58400000D01*
X189998075Y-58485890D01*
X189591331Y-58654369D01*
X189225271Y-58898962D01*
X188913962Y-59210271D01*
X188669369Y-59576331D01*
X188500890Y-59983075D01*
X188415000Y-60414872D01*
X172845000Y-60414872D01*
X172845000Y-59092333D01*
X172848677Y-59055000D01*
X172834003Y-58906014D01*
X172790546Y-58762753D01*
X172719974Y-58630724D01*
X172648799Y-58543997D01*
X172625001Y-58514999D01*
X172596002Y-58491200D01*
X172013803Y-57909002D01*
X171990001Y-57879999D01*
X171874276Y-57785026D01*
X171742247Y-57714454D01*
X171598986Y-57670997D01*
X171487333Y-57660000D01*
X171487322Y-57660000D01*
X171450000Y-57656324D01*
X171412678Y-57660000D01*
X168977962Y-57660000D01*
X168971184Y-57658778D01*
X168903212Y-57660000D01*
X168872667Y-57660000D01*
X168865847Y-57660672D01*
X168821501Y-57661469D01*
X168791538Y-57667991D01*
X168761014Y-57670997D01*
X168718563Y-57683874D01*
X168675220Y-57693308D01*
X168647104Y-57705551D01*
X168617753Y-57714454D01*
X168578626Y-57735368D01*
X168537961Y-57753075D01*
X168512771Y-57770569D01*
X168485724Y-57785026D01*
X168451440Y-57813162D01*
X168445810Y-57817072D01*
X168422535Y-57836884D01*
X168369999Y-57879999D01*
X168365632Y-57885320D01*
X165618735Y-60223498D01*
X165598574Y-60215147D01*
X165321335Y-60160000D01*
X165038665Y-60160000D01*
X164761426Y-60215147D01*
X164500273Y-60323320D01*
X164265241Y-60480363D01*
X164065363Y-60680241D01*
X163908320Y-60915273D01*
X163800147Y-61176426D01*
X163745000Y-61453665D01*
X163745000Y-61693482D01*
X160369369Y-64130000D01*
X158516388Y-64130000D01*
X158471156Y-64020801D01*
X158270338Y-63720256D01*
X158014744Y-63464662D01*
X157714199Y-63263844D01*
X157380250Y-63125518D01*
X157025732Y-63055000D01*
X156664268Y-63055000D01*
X156309750Y-63125518D01*
X155975801Y-63263844D01*
X155675256Y-63464662D01*
X155419662Y-63720256D01*
X155218844Y-64020801D01*
X155173612Y-64130000D01*
X151682325Y-64130000D01*
X151645000Y-64126324D01*
X151607675Y-64130000D01*
X151607667Y-64130000D01*
X151496014Y-64140997D01*
X151352753Y-64184454D01*
X151220724Y-64255026D01*
X151104999Y-64349999D01*
X151081201Y-64378997D01*
X144981878Y-70478321D01*
X144866034Y-70416401D01*
X144586111Y-70331487D01*
X144367950Y-70310000D01*
X143922050Y-70310000D01*
X143703889Y-70331487D01*
X143423966Y-70416401D01*
X143165986Y-70554294D01*
X142939866Y-70739866D01*
X142754294Y-70965986D01*
X142616401Y-71223966D01*
X142531487Y-71503889D01*
X142502815Y-71795000D01*
X139265000Y-71795000D01*
X139265000Y-60414872D01*
X140155000Y-60414872D01*
X140155000Y-60855128D01*
X140240890Y-61286925D01*
X140409369Y-61693669D01*
X140653962Y-62059729D01*
X140965271Y-62371038D01*
X141331331Y-62615631D01*
X141738075Y-62784110D01*
X142169872Y-62870000D01*
X142610128Y-62870000D01*
X143041925Y-62784110D01*
X143448669Y-62615631D01*
X143814729Y-62371038D01*
X144126038Y-62059729D01*
X144370631Y-61693669D01*
X144539110Y-61286925D01*
X144625000Y-60855128D01*
X144625000Y-60414872D01*
X144539110Y-59983075D01*
X144370631Y-59576331D01*
X144126038Y-59210271D01*
X143814729Y-58898962D01*
X143448669Y-58654369D01*
X143041925Y-58485890D01*
X142610128Y-58400000D01*
X142169872Y-58400000D01*
X141738075Y-58485890D01*
X141331331Y-58654369D01*
X140965271Y-58898962D01*
X140653962Y-59210271D01*
X140409369Y-59576331D01*
X140240890Y-59983075D01*
X140155000Y-60414872D01*
X139265000Y-60414872D01*
X139265000Y-57510000D01*
X193775000Y-57510000D01*
X193775001Y-112020000D01*
G37*
X193775001Y-112020000D02*
X139265000Y-112020000D01*
X139265000Y-108414872D01*
X140155000Y-108414872D01*
X140155000Y-108855128D01*
X140240890Y-109286925D01*
X140409369Y-109693669D01*
X140653962Y-110059729D01*
X140965271Y-110371038D01*
X141331331Y-110615631D01*
X141738075Y-110784110D01*
X142169872Y-110870000D01*
X142610128Y-110870000D01*
X143041925Y-110784110D01*
X143448669Y-110615631D01*
X143814729Y-110371038D01*
X144126038Y-110059729D01*
X144370631Y-109693669D01*
X144539110Y-109286925D01*
X144625000Y-108855128D01*
X144625000Y-108414872D01*
X144539110Y-107983075D01*
X144370631Y-107576331D01*
X144126038Y-107210271D01*
X143814729Y-106898962D01*
X143448669Y-106654369D01*
X143041925Y-106485890D01*
X142633968Y-106404742D01*
X148428715Y-106404742D01*
X148497904Y-106687745D01*
X148620975Y-106951812D01*
X148793198Y-107186795D01*
X149007954Y-107383664D01*
X149256991Y-107534854D01*
X149530739Y-107634554D01*
X149543110Y-107636476D01*
X149773000Y-107515155D01*
X149773000Y-106172000D01*
X148572768Y-106172000D01*
X148428715Y-106404742D01*
X142633968Y-106404742D01*
X142610128Y-106400000D01*
X142169872Y-106400000D01*
X141738075Y-106485890D01*
X141331331Y-106654369D01*
X140965271Y-106898962D01*
X140653962Y-107210271D01*
X140409369Y-107576331D01*
X140240890Y-107983075D01*
X140155000Y-108414872D01*
X139265000Y-108414872D01*
X139265000Y-105685258D01*
X148428715Y-105685258D01*
X148572768Y-105918000D01*
X149773000Y-105918000D01*
X149773000Y-104574845D01*
X150027000Y-104574845D01*
X150027000Y-105918000D01*
X150047000Y-105918000D01*
X150047000Y-106172000D01*
X150027000Y-106172000D01*
X150027000Y-107515155D01*
X150256890Y-107636476D01*
X150269261Y-107634554D01*
X150543009Y-107534854D01*
X150792046Y-107383664D01*
X151006802Y-107186795D01*
X151007086Y-107186407D01*
X151061595Y-107288386D01*
X151172038Y-107422962D01*
X151306614Y-107533405D01*
X151460150Y-107615472D01*
X151626746Y-107666008D01*
X151800000Y-107683072D01*
X153000000Y-107683072D01*
X153173254Y-107666008D01*
X153339850Y-107615472D01*
X153493386Y-107533405D01*
X153627962Y-107422962D01*
X153738405Y-107288386D01*
X153820472Y-107134850D01*
X153871008Y-106968254D01*
X153888072Y-106795000D01*
X153888072Y-106779344D01*
X161080000Y-106779344D01*
X161080000Y-107150656D01*
X161152439Y-107514834D01*
X161294534Y-107857882D01*
X161500825Y-108166618D01*
X161763382Y-108429175D01*
X162072118Y-108635466D01*
X162415166Y-108777561D01*
X162779344Y-108850000D01*
X163150656Y-108850000D01*
X163514834Y-108777561D01*
X163857882Y-108635466D01*
X164166618Y-108429175D01*
X164429175Y-108166618D01*
X164635466Y-107857882D01*
X164777561Y-107514834D01*
X164803456Y-107384646D01*
X173327301Y-107384646D01*
X173444481Y-107735100D01*
X173627779Y-108055959D01*
X173870152Y-108334893D01*
X174162285Y-108561183D01*
X174492952Y-108726133D01*
X174745355Y-108802695D01*
X175038000Y-108686572D01*
X175038000Y-107092000D01*
X175292000Y-107092000D01*
X175292000Y-108686572D01*
X175584645Y-108802695D01*
X175837048Y-108726133D01*
X176167715Y-108561183D01*
X176356597Y-108414872D01*
X188415000Y-108414872D01*
X188415000Y-108855128D01*
X188500890Y-109286925D01*
X188669369Y-109693669D01*
X188913962Y-110059729D01*
X189225271Y-110371038D01*
X189591331Y-110615631D01*
X189998075Y-110784110D01*
X190429872Y-110870000D01*
X190870128Y-110870000D01*
X191301925Y-110784110D01*
X191708669Y-110615631D01*
X192074729Y-110371038D01*
X192386038Y-110059729D01*
X192630631Y-109693669D01*
X192799110Y-109286925D01*
X192885000Y-108855128D01*
X192885000Y-108414872D01*
X192799110Y-107983075D01*
X192630631Y-107576331D01*
X192386038Y-107210271D01*
X192074729Y-106898962D01*
X191708669Y-106654369D01*
X191301925Y-106485890D01*
X190870128Y-106400000D01*
X190429872Y-106400000D01*
X189998075Y-106485890D01*
X189591331Y-106654369D01*
X189225271Y-106898962D01*
X188913962Y-107210271D01*
X188669369Y-107576331D01*
X188500890Y-107983075D01*
X188415000Y-108414872D01*
X176356597Y-108414872D01*
X176459848Y-108334893D01*
X176702221Y-108055959D01*
X176885519Y-107735100D01*
X177002699Y-107384646D01*
X176886971Y-107092000D01*
X175292000Y-107092000D01*
X175038000Y-107092000D01*
X173443029Y-107092000D01*
X173327301Y-107384646D01*
X164803456Y-107384646D01*
X164850000Y-107150656D01*
X164850000Y-106779344D01*
X164803457Y-106545354D01*
X173327301Y-106545354D01*
X173443029Y-106838000D01*
X175038000Y-106838000D01*
X175038000Y-105243428D01*
X175292000Y-105243428D01*
X175292000Y-106838000D01*
X176886971Y-106838000D01*
X177002699Y-106545354D01*
X176885519Y-106194900D01*
X176702221Y-105874041D01*
X176459848Y-105595107D01*
X176167715Y-105368817D01*
X175837048Y-105203867D01*
X175584645Y-105127305D01*
X175292000Y-105243428D01*
X175038000Y-105243428D01*
X174745355Y-105127305D01*
X174492952Y-105203867D01*
X174162285Y-105368817D01*
X173870152Y-105595107D01*
X173627779Y-105874041D01*
X173444481Y-106194900D01*
X173327301Y-106545354D01*
X164803457Y-106545354D01*
X164777561Y-106415166D01*
X164635466Y-106072118D01*
X164429175Y-105763382D01*
X164166618Y-105500825D01*
X163857882Y-105294534D01*
X163514834Y-105152439D01*
X163150656Y-105080000D01*
X162779344Y-105080000D01*
X162415166Y-105152439D01*
X162072118Y-105294534D01*
X161763382Y-105500825D01*
X161500825Y-105763382D01*
X161294534Y-106072118D01*
X161152439Y-106415166D01*
X161080000Y-106779344D01*
X153888072Y-106779344D01*
X153888072Y-105295000D01*
X153871008Y-105121746D01*
X153820472Y-104955150D01*
X153738405Y-104801614D01*
X153627962Y-104667038D01*
X153493386Y-104556595D01*
X153339850Y-104474528D01*
X153173254Y-104423992D01*
X153000000Y-104406928D01*
X151800000Y-104406928D01*
X151626746Y-104423992D01*
X151460150Y-104474528D01*
X151306614Y-104556595D01*
X151172038Y-104667038D01*
X151061595Y-104801614D01*
X151007086Y-104903593D01*
X151006802Y-104903205D01*
X150792046Y-104706336D01*
X150543009Y-104555146D01*
X150269261Y-104455446D01*
X150256890Y-104453524D01*
X150027000Y-104574845D01*
X149773000Y-104574845D01*
X149543110Y-104453524D01*
X149530739Y-104455446D01*
X149256991Y-104555146D01*
X149007954Y-104706336D01*
X148793198Y-104903205D01*
X148620975Y-105138188D01*
X148497904Y-105402255D01*
X148428715Y-105685258D01*
X139265000Y-105685258D01*
X139265000Y-98922408D01*
X151003000Y-98922408D01*
X151003000Y-99197592D01*
X151056686Y-99467490D01*
X151161995Y-99721727D01*
X151314880Y-99950535D01*
X151509465Y-100145120D01*
X151738273Y-100298005D01*
X151992510Y-100403314D01*
X152262408Y-100457000D01*
X152537592Y-100457000D01*
X152807490Y-100403314D01*
X153061727Y-100298005D01*
X153290535Y-100145120D01*
X153485120Y-99950535D01*
X153638005Y-99721727D01*
X153743314Y-99467490D01*
X153797000Y-99197592D01*
X153797000Y-98922408D01*
X153743314Y-98652510D01*
X153638005Y-98398273D01*
X153485120Y-98169465D01*
X153290535Y-97974880D01*
X153061727Y-97821995D01*
X152990057Y-97792308D01*
X153003023Y-97787636D01*
X153118980Y-97725656D01*
X153185960Y-97485565D01*
X152400000Y-96699605D01*
X151614040Y-97485565D01*
X151681020Y-97725656D01*
X151816760Y-97789485D01*
X151738273Y-97821995D01*
X151509465Y-97974880D01*
X151314880Y-98169465D01*
X151161995Y-98398273D01*
X151056686Y-98652510D01*
X151003000Y-98922408D01*
X139265000Y-98922408D01*
X139265000Y-96785000D01*
X140701928Y-96785000D01*
X140714188Y-96909482D01*
X140750498Y-97029180D01*
X140809463Y-97139494D01*
X140888815Y-97236185D01*
X140985506Y-97315537D01*
X141095820Y-97374502D01*
X141215518Y-97410812D01*
X141340000Y-97423072D01*
X141954250Y-97420000D01*
X142113000Y-97261250D01*
X142113000Y-96012000D01*
X140863750Y-96012000D01*
X140705000Y-96170750D01*
X140701928Y-96785000D01*
X139265000Y-96785000D01*
X139265000Y-94985000D01*
X140701928Y-94985000D01*
X140705000Y-95599250D01*
X140863750Y-95758000D01*
X142113000Y-95758000D01*
X142113000Y-94508750D01*
X142367000Y-94508750D01*
X142367000Y-95758000D01*
X142387000Y-95758000D01*
X142387000Y-96012000D01*
X142367000Y-96012000D01*
X142367000Y-97261250D01*
X142525750Y-97420000D01*
X143140000Y-97423072D01*
X143264482Y-97410812D01*
X143384180Y-97374502D01*
X143494494Y-97315537D01*
X143591185Y-97236185D01*
X143670537Y-97139494D01*
X143729502Y-97029180D01*
X143735056Y-97010873D01*
X143801495Y-97077312D01*
X144052905Y-97245299D01*
X144332257Y-97361011D01*
X144628816Y-97420000D01*
X144931184Y-97420000D01*
X145227743Y-97361011D01*
X145507095Y-97245299D01*
X145758505Y-97077312D01*
X145972312Y-96863505D01*
X146140299Y-96612095D01*
X146148615Y-96592017D01*
X150998090Y-96592017D01*
X151039078Y-96864133D01*
X151132364Y-97123023D01*
X151194344Y-97238980D01*
X151434435Y-97305960D01*
X152220395Y-96520000D01*
X151434435Y-95734040D01*
X151194344Y-95801020D01*
X151077244Y-96050048D01*
X151010977Y-96317135D01*
X150998090Y-96592017D01*
X146148615Y-96592017D01*
X146256011Y-96332743D01*
X146315000Y-96036184D01*
X146315000Y-95733816D01*
X146256011Y-95437257D01*
X146140299Y-95157905D01*
X145972312Y-94906495D01*
X145758505Y-94692688D01*
X145507095Y-94524701D01*
X145227743Y-94408989D01*
X144931184Y-94350000D01*
X144628816Y-94350000D01*
X144332257Y-94408989D01*
X144052905Y-94524701D01*
X143801495Y-94692688D01*
X143735056Y-94759127D01*
X143729502Y-94740820D01*
X143670537Y-94630506D01*
X143591185Y-94533815D01*
X143494494Y-94454463D01*
X143384180Y-94395498D01*
X143264482Y-94359188D01*
X143140000Y-94346928D01*
X142525750Y-94350000D01*
X142367000Y-94508750D01*
X142113000Y-94508750D01*
X141954250Y-94350000D01*
X141340000Y-94346928D01*
X141215518Y-94359188D01*
X141095820Y-94395498D01*
X140985506Y-94454463D01*
X140888815Y-94533815D01*
X140809463Y-94630506D01*
X140750498Y-94740820D01*
X140714188Y-94860518D01*
X140701928Y-94985000D01*
X139265000Y-94985000D01*
X139265000Y-90028665D01*
X143345000Y-90028665D01*
X143345000Y-90311335D01*
X143400147Y-90588574D01*
X143508320Y-90849727D01*
X143665363Y-91084759D01*
X143865241Y-91284637D01*
X144100273Y-91441680D01*
X144361426Y-91549853D01*
X144638665Y-91605000D01*
X144921335Y-91605000D01*
X145198574Y-91549853D01*
X145459727Y-91441680D01*
X145694759Y-91284637D01*
X145894637Y-91084759D01*
X146051680Y-90849727D01*
X146159853Y-90588574D01*
X146215000Y-90311335D01*
X146215000Y-90028665D01*
X146159853Y-89751426D01*
X146051680Y-89490273D01*
X145894637Y-89255241D01*
X145694759Y-89055363D01*
X145459727Y-88898320D01*
X145198574Y-88790147D01*
X144921335Y-88735000D01*
X144638665Y-88735000D01*
X144361426Y-88790147D01*
X144100273Y-88898320D01*
X143865241Y-89055363D01*
X143665363Y-89255241D01*
X143508320Y-89490273D01*
X143400147Y-89751426D01*
X143345000Y-90028665D01*
X139265000Y-90028665D01*
X139265000Y-79868665D01*
X143345000Y-79868665D01*
X143345000Y-80151335D01*
X143400147Y-80428574D01*
X143508320Y-80689727D01*
X143665363Y-80924759D01*
X143865241Y-81124637D01*
X144100273Y-81281680D01*
X144361426Y-81389853D01*
X144638665Y-81445000D01*
X144921335Y-81445000D01*
X145198574Y-81389853D01*
X145459727Y-81281680D01*
X145694759Y-81124637D01*
X145894637Y-80924759D01*
X146051680Y-80689727D01*
X146159853Y-80428574D01*
X146215000Y-80151335D01*
X146215000Y-79868665D01*
X146159853Y-79591426D01*
X146051680Y-79330273D01*
X145894637Y-79095241D01*
X145694759Y-78895363D01*
X145459727Y-78738320D01*
X145198574Y-78630147D01*
X144921335Y-78575000D01*
X144638665Y-78575000D01*
X144361426Y-78630147D01*
X144100273Y-78738320D01*
X143865241Y-78895363D01*
X143665363Y-79095241D01*
X143508320Y-79330273D01*
X143400147Y-79591426D01*
X143345000Y-79868665D01*
X139265000Y-79868665D01*
X139265000Y-71795000D01*
X142502815Y-71795000D01*
X142531487Y-72086111D01*
X142616401Y-72366034D01*
X142754294Y-72624014D01*
X142939866Y-72850134D01*
X143003337Y-72902223D01*
X142901614Y-72956595D01*
X142767038Y-73067038D01*
X142656595Y-73201614D01*
X142574528Y-73355150D01*
X142523992Y-73521746D01*
X142506928Y-73695000D01*
X142506928Y-74895000D01*
X142523992Y-75068254D01*
X142574528Y-75234850D01*
X142656595Y-75388386D01*
X142767038Y-75522962D01*
X142901614Y-75633405D01*
X143055150Y-75715472D01*
X143221746Y-75766008D01*
X143395000Y-75783072D01*
X144895000Y-75783072D01*
X145068254Y-75766008D01*
X145151082Y-75740883D01*
X148217286Y-78807088D01*
X148191675Y-78868919D01*
X148125000Y-79204117D01*
X148125000Y-79545883D01*
X148191675Y-79881081D01*
X148322463Y-80196831D01*
X148512337Y-80480998D01*
X148754002Y-80722663D01*
X149038169Y-80912537D01*
X149353919Y-81043325D01*
X149689117Y-81110000D01*
X150030883Y-81110000D01*
X150366081Y-81043325D01*
X150681831Y-80912537D01*
X150965998Y-80722663D01*
X151207663Y-80480998D01*
X151397537Y-80196831D01*
X151528325Y-79881081D01*
X151595000Y-79545883D01*
X151595000Y-79204117D01*
X151528325Y-78868919D01*
X151397537Y-78553169D01*
X151207663Y-78269002D01*
X150965998Y-78027337D01*
X150681831Y-77837463D01*
X150366081Y-77706675D01*
X150030883Y-77640000D01*
X149689117Y-77640000D01*
X149353919Y-77706675D01*
X149292088Y-77732286D01*
X145783072Y-74223271D01*
X145783072Y-73695000D01*
X145766008Y-73521746D01*
X145715472Y-73355150D01*
X145633405Y-73201614D01*
X145522962Y-73067038D01*
X145388386Y-72956595D01*
X145286663Y-72902223D01*
X145350134Y-72850134D01*
X145535706Y-72624014D01*
X145673599Y-72366034D01*
X145758513Y-72086111D01*
X145784168Y-71825633D01*
X151959802Y-65650000D01*
X155173612Y-65650000D01*
X155218844Y-65759199D01*
X155419662Y-66059744D01*
X155675256Y-66315338D01*
X155975801Y-66516156D01*
X156309750Y-66654482D01*
X156664268Y-66725000D01*
X157025732Y-66725000D01*
X157380250Y-66654482D01*
X157714199Y-66516156D01*
X158014744Y-66315338D01*
X158270338Y-66059744D01*
X158471156Y-65759199D01*
X158516388Y-65650000D01*
X160591441Y-65650000D01*
X160642605Y-65653177D01*
X160703152Y-65644995D01*
X160763986Y-65639003D01*
X160777240Y-65634983D01*
X160790963Y-65633128D01*
X160848748Y-65613291D01*
X160907247Y-65595546D01*
X160919466Y-65589015D01*
X160932559Y-65584520D01*
X160985365Y-65553790D01*
X161039276Y-65524974D01*
X161078912Y-65492445D01*
X164637808Y-62923649D01*
X164761426Y-62974853D01*
X165038665Y-63030000D01*
X165321335Y-63030000D01*
X165598574Y-62974853D01*
X165859727Y-62866680D01*
X166094759Y-62709637D01*
X166294637Y-62509759D01*
X166451680Y-62274727D01*
X166559853Y-62013574D01*
X166615000Y-61736335D01*
X166615000Y-61453665D01*
X166601034Y-61383455D01*
X169189660Y-59180000D01*
X171135199Y-59180000D01*
X171325001Y-59369803D01*
X171325001Y-60725684D01*
X171294637Y-60680241D01*
X171094759Y-60480363D01*
X170859727Y-60323320D01*
X170598574Y-60215147D01*
X170321335Y-60160000D01*
X170038665Y-60160000D01*
X169761426Y-60215147D01*
X169500273Y-60323320D01*
X169265241Y-60480363D01*
X169065363Y-60680241D01*
X168908320Y-60915273D01*
X168800147Y-61176426D01*
X168745000Y-61453665D01*
X168745000Y-61736335D01*
X168752285Y-61772957D01*
X157907674Y-70551928D01*
X155645000Y-70551928D01*
X155520518Y-70564188D01*
X155400820Y-70600498D01*
X155290506Y-70659463D01*
X155193815Y-70738815D01*
X155114463Y-70835506D01*
X155055498Y-70945820D01*
X155019188Y-71065518D01*
X155006928Y-71190000D01*
X155006928Y-73153270D01*
X153794003Y-74366196D01*
X153764999Y-74389999D01*
X153720694Y-74443985D01*
X153670026Y-74505724D01*
X153638069Y-74565511D01*
X153599454Y-74637754D01*
X153555997Y-74781015D01*
X153545000Y-74892668D01*
X153545000Y-74892678D01*
X153541324Y-74930000D01*
X153545000Y-74967323D01*
X153545001Y-80061956D01*
X153390241Y-80165363D01*
X153190363Y-80365241D01*
X153033320Y-80600273D01*
X152925147Y-80861426D01*
X152870000Y-81138665D01*
X152870000Y-81421335D01*
X152925147Y-81698574D01*
X153033320Y-81959727D01*
X153190363Y-82194759D01*
X153390241Y-82394637D01*
X153545000Y-82498044D01*
X153545001Y-85687658D01*
X153545000Y-85687668D01*
X153545000Y-86045198D01*
X153355199Y-86235000D01*
X151823103Y-86235000D01*
X151806563Y-86232456D01*
X151748411Y-86235000D01*
X151727667Y-86235000D01*
X151711091Y-86236633D01*
X151656999Y-86238999D01*
X151636758Y-86243954D01*
X151616014Y-86245997D01*
X151564180Y-86261720D01*
X151511586Y-86274595D01*
X151492702Y-86283403D01*
X151472753Y-86289454D01*
X151424991Y-86314983D01*
X151375911Y-86337875D01*
X151359101Y-86350203D01*
X151340724Y-86360026D01*
X151298863Y-86394380D01*
X151255189Y-86426410D01*
X151241110Y-86441777D01*
X151224999Y-86454999D01*
X151190648Y-86496856D01*
X151179399Y-86509134D01*
X151166956Y-86525724D01*
X151130026Y-86570724D01*
X151122136Y-86585484D01*
X150213554Y-87796928D01*
X148760000Y-87796928D01*
X148635518Y-87809188D01*
X148515820Y-87845498D01*
X148405506Y-87904463D01*
X148308815Y-87983815D01*
X148229463Y-88080506D01*
X148170498Y-88190820D01*
X148134188Y-88310518D01*
X148121928Y-88435000D01*
X148121928Y-90635000D01*
X148134188Y-90759482D01*
X148170498Y-90879180D01*
X148229463Y-90989494D01*
X148308815Y-91086185D01*
X148405506Y-91165537D01*
X148515820Y-91224502D01*
X148635518Y-91260812D01*
X148760000Y-91273072D01*
X150960000Y-91273072D01*
X151084482Y-91260812D01*
X151204180Y-91224502D01*
X151314494Y-91165537D01*
X151411185Y-91086185D01*
X151490537Y-90989494D01*
X151549502Y-90879180D01*
X151585812Y-90759482D01*
X151598072Y-90635000D01*
X151598072Y-88484237D01*
X152145000Y-87755000D01*
X153632678Y-87755000D01*
X153670000Y-87758676D01*
X153707322Y-87755000D01*
X153707333Y-87755000D01*
X153818986Y-87744003D01*
X153962247Y-87700546D01*
X154094276Y-87629974D01*
X154210001Y-87535001D01*
X154233803Y-87505998D01*
X154816002Y-86923800D01*
X154845001Y-86900001D01*
X154939974Y-86784276D01*
X155010546Y-86652247D01*
X155054003Y-86508986D01*
X155065000Y-86397333D01*
X155068677Y-86360000D01*
X155065000Y-86322667D01*
X155065000Y-82498043D01*
X155219759Y-82394637D01*
X155419637Y-82194759D01*
X155576680Y-81959727D01*
X155684853Y-81698574D01*
X155740000Y-81421335D01*
X155740000Y-81138665D01*
X155684853Y-80861426D01*
X155576680Y-80600273D01*
X155419637Y-80365241D01*
X155219759Y-80165363D01*
X155065000Y-80061957D01*
X155065000Y-75244801D01*
X156081730Y-74228072D01*
X158045000Y-74228072D01*
X158169482Y-74215812D01*
X158289180Y-74179502D01*
X158399494Y-74120537D01*
X158496185Y-74041185D01*
X158575537Y-73944494D01*
X158634502Y-73834180D01*
X158670812Y-73714482D01*
X158683072Y-73590000D01*
X158683072Y-71879848D01*
X163958727Y-67609080D01*
X168145525Y-67609080D01*
X168229208Y-67863261D01*
X168501775Y-67994158D01*
X168794642Y-68069365D01*
X169096553Y-68085991D01*
X169395907Y-68043397D01*
X169681199Y-67943222D01*
X169830792Y-67863261D01*
X169914475Y-67609080D01*
X169030000Y-66724605D01*
X168145525Y-67609080D01*
X163958727Y-67609080D01*
X165190967Y-66611553D01*
X167489009Y-66611553D01*
X167531603Y-66910907D01*
X167631778Y-67196199D01*
X167711739Y-67345792D01*
X167965920Y-67429475D01*
X168850395Y-66545000D01*
X169209605Y-66545000D01*
X170094080Y-67429475D01*
X170348261Y-67345792D01*
X170479158Y-67073225D01*
X170554365Y-66780358D01*
X170570991Y-66478447D01*
X170528397Y-66179093D01*
X170428222Y-65893801D01*
X170348261Y-65744208D01*
X170094080Y-65660525D01*
X169209605Y-66545000D01*
X168850395Y-66545000D01*
X167965920Y-65660525D01*
X167711739Y-65744208D01*
X167580842Y-66016775D01*
X167505635Y-66309642D01*
X167489009Y-66611553D01*
X165190967Y-66611553D01*
X166587631Y-65480920D01*
X168145525Y-65480920D01*
X169030000Y-66365395D01*
X169914475Y-65480920D01*
X169830792Y-65226739D01*
X169558225Y-65095842D01*
X169265358Y-65020635D01*
X168963447Y-65004009D01*
X168664093Y-65046603D01*
X168378801Y-65146778D01*
X168229208Y-65226739D01*
X168145525Y-65480920D01*
X166587631Y-65480920D01*
X169709786Y-62953463D01*
X169761426Y-62974853D01*
X170038665Y-63030000D01*
X170321335Y-63030000D01*
X170598574Y-62974853D01*
X170859727Y-62866680D01*
X171094759Y-62709637D01*
X171294637Y-62509759D01*
X171325001Y-62464316D01*
X171325000Y-71968471D01*
X171308777Y-71938119D01*
X171041977Y-71613023D01*
X170716881Y-71346223D01*
X170345982Y-71147974D01*
X169943533Y-71025892D01*
X169629882Y-70995000D01*
X164464874Y-70995000D01*
X164360000Y-70984671D01*
X164255125Y-70995000D01*
X164255118Y-70995000D01*
X163979001Y-71022195D01*
X163941466Y-71025892D01*
X163718050Y-71093665D01*
X163539018Y-71147974D01*
X163168119Y-71346223D01*
X163168117Y-71346224D01*
X163168118Y-71346224D01*
X162924489Y-71546165D01*
X162924487Y-71546167D01*
X162843023Y-71613023D01*
X162776167Y-71694487D01*
X158584487Y-75886168D01*
X158503024Y-75953023D01*
X158436168Y-76034487D01*
X158436165Y-76034490D01*
X158236224Y-76278119D01*
X158037975Y-76649018D01*
X157915893Y-77051467D01*
X157874671Y-77470000D01*
X157885001Y-77574882D01*
X157885000Y-85829881D01*
X157885001Y-85829891D01*
X157885000Y-90555654D01*
X156095655Y-92345000D01*
X152319678Y-92345000D01*
X152079484Y-92368657D01*
X151771285Y-92462148D01*
X151487248Y-92613969D01*
X151238286Y-92818286D01*
X151033969Y-93067248D01*
X150882148Y-93351285D01*
X150788657Y-93659484D01*
X150757089Y-93980000D01*
X150788657Y-94300516D01*
X150882148Y-94608715D01*
X151033969Y-94892752D01*
X151238286Y-95141714D01*
X151487248Y-95346031D01*
X151648182Y-95432052D01*
X151614040Y-95554435D01*
X152400000Y-96340395D01*
X152414143Y-96326253D01*
X152593748Y-96505858D01*
X152579605Y-96520000D01*
X153365565Y-97305960D01*
X153605656Y-97238980D01*
X153722756Y-96989952D01*
X153789023Y-96722865D01*
X153801910Y-96447983D01*
X153760922Y-96175867D01*
X153667636Y-95916977D01*
X153605656Y-95801020D01*
X153365567Y-95734041D01*
X153481977Y-95617631D01*
X153479346Y-95615000D01*
X156106835Y-95615000D01*
X156288119Y-95763776D01*
X156659018Y-95962025D01*
X157061467Y-96084107D01*
X157480000Y-96125329D01*
X157898533Y-96084107D01*
X158300982Y-95962025D01*
X158671881Y-95763776D01*
X158915510Y-95563835D01*
X159700001Y-94779344D01*
X161080000Y-94779344D01*
X161080000Y-95150656D01*
X161152439Y-95514834D01*
X161294534Y-95857882D01*
X161500825Y-96166618D01*
X161763382Y-96429175D01*
X162072118Y-96635466D01*
X162415166Y-96777561D01*
X162779344Y-96850000D01*
X163150656Y-96850000D01*
X163514834Y-96777561D01*
X163857882Y-96635466D01*
X164166618Y-96429175D01*
X164429175Y-96166618D01*
X164635466Y-95857882D01*
X164777561Y-95514834D01*
X164850000Y-95150656D01*
X164850000Y-94779344D01*
X164777561Y-94415166D01*
X164635466Y-94072118D01*
X164429175Y-93763382D01*
X164166618Y-93500825D01*
X163857882Y-93294534D01*
X163514834Y-93152439D01*
X163150656Y-93080000D01*
X162779344Y-93080000D01*
X162415166Y-93152439D01*
X162072118Y-93294534D01*
X161763382Y-93500825D01*
X161500825Y-93763382D01*
X161294534Y-94072118D01*
X161152439Y-94415166D01*
X161080000Y-94779344D01*
X159700001Y-94779344D01*
X161455513Y-93023833D01*
X161536977Y-92956977D01*
X161610618Y-92867246D01*
X161772791Y-92669637D01*
X161803777Y-92631881D01*
X162002026Y-92260982D01*
X162124108Y-91858533D01*
X162155000Y-91544882D01*
X162155000Y-91544873D01*
X162165329Y-91440001D01*
X162155000Y-91335129D01*
X162155000Y-87235000D01*
X169554538Y-87235000D01*
X171069720Y-88750183D01*
X171242030Y-88891593D01*
X171504352Y-89031808D01*
X171788988Y-89118151D01*
X172085000Y-89147305D01*
X172259410Y-89130127D01*
X172094538Y-89295000D01*
X170805462Y-89295000D01*
X170030183Y-88519721D01*
X170013072Y-88498871D01*
X170013072Y-88435000D01*
X170000812Y-88310518D01*
X169964502Y-88190820D01*
X169905537Y-88080506D01*
X169826185Y-87983815D01*
X169729494Y-87904463D01*
X169619180Y-87845498D01*
X169499482Y-87809188D01*
X169375000Y-87796928D01*
X167175000Y-87796928D01*
X167050518Y-87809188D01*
X166930820Y-87845498D01*
X166820506Y-87904463D01*
X166723815Y-87983815D01*
X166644463Y-88080506D01*
X166585498Y-88190820D01*
X166549188Y-88310518D01*
X166536928Y-88435000D01*
X166536928Y-88498871D01*
X166378406Y-88692030D01*
X166238192Y-88954352D01*
X166151849Y-89238988D01*
X166122694Y-89535000D01*
X166151849Y-89831012D01*
X166238192Y-90115648D01*
X166378406Y-90377970D01*
X166536928Y-90571129D01*
X166536928Y-90635000D01*
X166549188Y-90759482D01*
X166585498Y-90879180D01*
X166644463Y-90989494D01*
X166723815Y-91086185D01*
X166820506Y-91165537D01*
X166930820Y-91224502D01*
X167050518Y-91260812D01*
X167175000Y-91273072D01*
X168512610Y-91273072D01*
X169059817Y-91820279D01*
X169107103Y-91877897D01*
X169337030Y-92066594D01*
X169599352Y-92206808D01*
X169777941Y-92260982D01*
X169883987Y-92293151D01*
X169913689Y-92296076D01*
X170105822Y-92315000D01*
X170105828Y-92315000D01*
X170179999Y-92322305D01*
X170254170Y-92315000D01*
X172645830Y-92315000D01*
X172720000Y-92322305D01*
X172794170Y-92315000D01*
X172794178Y-92315000D01*
X173016012Y-92293151D01*
X173115001Y-92263123D01*
X173115001Y-94350820D01*
X173107695Y-94425000D01*
X173136849Y-94721011D01*
X173223192Y-95005647D01*
X173254981Y-95065120D01*
X173280000Y-95111926D01*
X173280000Y-95150656D01*
X173352439Y-95514834D01*
X173494534Y-95857882D01*
X173700825Y-96166618D01*
X173963382Y-96429175D01*
X174272118Y-96635466D01*
X174615166Y-96777561D01*
X174979344Y-96850000D01*
X175350656Y-96850000D01*
X175714834Y-96777561D01*
X176057882Y-96635466D01*
X176366618Y-96429175D01*
X176629175Y-96166618D01*
X176835466Y-95857882D01*
X176977561Y-95514834D01*
X177050000Y-95150656D01*
X177050000Y-94779344D01*
X176977561Y-94415166D01*
X176835466Y-94072118D01*
X176629175Y-93763382D01*
X176366618Y-93500825D01*
X176135000Y-93346063D01*
X176135000Y-88974171D01*
X176142305Y-88900000D01*
X176135000Y-88825830D01*
X176135000Y-87555822D01*
X176113151Y-87333988D01*
X176026808Y-87049352D01*
X175886594Y-86787030D01*
X175697897Y-86557103D01*
X175639447Y-86509134D01*
X175467970Y-86368406D01*
X175205648Y-86228192D01*
X174921012Y-86141849D01*
X174625000Y-86112694D01*
X174328988Y-86141849D01*
X174044352Y-86228192D01*
X173782030Y-86368406D01*
X173552103Y-86557103D01*
X173363406Y-86787031D01*
X173355000Y-86802758D01*
X173346593Y-86787030D01*
X173205183Y-86614720D01*
X171300183Y-84709721D01*
X171252897Y-84652103D01*
X171022970Y-84463406D01*
X170760648Y-84323192D01*
X170476012Y-84236849D01*
X170254178Y-84215000D01*
X170254170Y-84215000D01*
X170180000Y-84207695D01*
X170105830Y-84215000D01*
X162155000Y-84215000D01*
X162155000Y-79771123D01*
X166585821Y-79771123D01*
X166695558Y-80093054D01*
X166865992Y-80387391D01*
X167090573Y-80642822D01*
X167360671Y-80849531D01*
X167665906Y-80999575D01*
X167878878Y-81064175D01*
X168148000Y-80946125D01*
X168148000Y-79502000D01*
X168402000Y-79502000D01*
X168402000Y-80946125D01*
X168671122Y-81064175D01*
X168884094Y-80999575D01*
X169189329Y-80849531D01*
X169459427Y-80642822D01*
X169684008Y-80387391D01*
X169854442Y-80093054D01*
X169964179Y-79771123D01*
X169846600Y-79502000D01*
X168402000Y-79502000D01*
X168148000Y-79502000D01*
X166703400Y-79502000D01*
X166585821Y-79771123D01*
X162155000Y-79771123D01*
X162155000Y-78978877D01*
X166585821Y-78978877D01*
X166703400Y-79248000D01*
X168148000Y-79248000D01*
X168148000Y-77803875D01*
X168402000Y-77803875D01*
X168402000Y-79248000D01*
X169846600Y-79248000D01*
X169964179Y-78978877D01*
X169854442Y-78656946D01*
X169684008Y-78362609D01*
X169459427Y-78107178D01*
X169189329Y-77900469D01*
X168884094Y-77750425D01*
X168671122Y-77685825D01*
X168402000Y-77803875D01*
X168148000Y-77803875D01*
X167878878Y-77685825D01*
X167665906Y-77750425D01*
X167360671Y-77900469D01*
X167090573Y-78107178D01*
X166865992Y-78362609D01*
X166695558Y-78656946D01*
X166585821Y-78978877D01*
X162155000Y-78978877D01*
X162155000Y-78354345D01*
X165244346Y-75265000D01*
X169629882Y-75265000D01*
X169943533Y-75234108D01*
X170345982Y-75112026D01*
X170716881Y-74913777D01*
X171041977Y-74646977D01*
X171308777Y-74321881D01*
X171325000Y-74291529D01*
X171325000Y-78791957D01*
X171170241Y-78895363D01*
X170970363Y-79095241D01*
X170813320Y-79330273D01*
X170705147Y-79591426D01*
X170650000Y-79868665D01*
X170650000Y-80151335D01*
X170705147Y-80428574D01*
X170813320Y-80689727D01*
X170970363Y-80924759D01*
X171170241Y-81124637D01*
X171405273Y-81281680D01*
X171666426Y-81389853D01*
X171943665Y-81445000D01*
X172226335Y-81445000D01*
X172503574Y-81389853D01*
X172764727Y-81281680D01*
X172999759Y-81124637D01*
X173198357Y-80926039D01*
X173199188Y-80934482D01*
X173235498Y-81054180D01*
X173294463Y-81164494D01*
X173373815Y-81261185D01*
X173470506Y-81340537D01*
X173580820Y-81399502D01*
X173700518Y-81435812D01*
X173825000Y-81448072D01*
X173865000Y-81448072D01*
X173865000Y-81600198D01*
X173040199Y-82425000D01*
X166684802Y-82425000D01*
X165863688Y-81603886D01*
X165900000Y-81421335D01*
X165900000Y-81138665D01*
X165844853Y-80861426D01*
X165736680Y-80600273D01*
X165579637Y-80365241D01*
X165379759Y-80165363D01*
X165144727Y-80008320D01*
X164883574Y-79900147D01*
X164606335Y-79845000D01*
X164323665Y-79845000D01*
X164046426Y-79900147D01*
X163785273Y-80008320D01*
X163550241Y-80165363D01*
X163350363Y-80365241D01*
X163193320Y-80600273D01*
X163085147Y-80861426D01*
X163030000Y-81138665D01*
X163030000Y-81421335D01*
X163085147Y-81698574D01*
X163193320Y-81959727D01*
X163350363Y-82194759D01*
X163550241Y-82394637D01*
X163785273Y-82551680D01*
X164046426Y-82659853D01*
X164323665Y-82715000D01*
X164606335Y-82715000D01*
X164788886Y-82678688D01*
X165806201Y-83696003D01*
X165829999Y-83725001D01*
X165945724Y-83819974D01*
X166077753Y-83890546D01*
X166221014Y-83934003D01*
X166332667Y-83945000D01*
X166332677Y-83945000D01*
X166370000Y-83948676D01*
X166407323Y-83945000D01*
X173317678Y-83945000D01*
X173355000Y-83948676D01*
X173392322Y-83945000D01*
X173392333Y-83945000D01*
X173503986Y-83934003D01*
X173647247Y-83890546D01*
X173779276Y-83819974D01*
X173895001Y-83725001D01*
X173918804Y-83695997D01*
X175136004Y-82478798D01*
X175165001Y-82455001D01*
X175259974Y-82339276D01*
X175330546Y-82207247D01*
X175374003Y-82063986D01*
X175385000Y-81952333D01*
X175385000Y-81952324D01*
X175388676Y-81915001D01*
X175385000Y-81877678D01*
X175385000Y-81448072D01*
X175425000Y-81448072D01*
X175549482Y-81435812D01*
X175669180Y-81399502D01*
X175779494Y-81340537D01*
X175876185Y-81261185D01*
X175955537Y-81164494D01*
X176014502Y-81054180D01*
X176050812Y-80934482D01*
X176063072Y-80810000D01*
X176063072Y-79210000D01*
X176050812Y-79085518D01*
X176014502Y-78965820D01*
X175955537Y-78855506D01*
X175876185Y-78758815D01*
X175779494Y-78679463D01*
X175669180Y-78620498D01*
X175549482Y-78584188D01*
X175425000Y-78571928D01*
X173825000Y-78571928D01*
X173700518Y-78584188D01*
X173580820Y-78620498D01*
X173470506Y-78679463D01*
X173373815Y-78758815D01*
X173294463Y-78855506D01*
X173235498Y-78965820D01*
X173199188Y-79085518D01*
X173198357Y-79093961D01*
X172999759Y-78895363D01*
X172845000Y-78791957D01*
X172845000Y-76126483D01*
X173108023Y-76446977D01*
X173433119Y-76713777D01*
X173804018Y-76912026D01*
X174206467Y-77034108D01*
X174520118Y-77065000D01*
X176280655Y-77065000D01*
X177570000Y-78354346D01*
X177570001Y-97540653D01*
X176033727Y-99076928D01*
X175915000Y-99076928D01*
X175790518Y-99089188D01*
X175670820Y-99125498D01*
X175560506Y-99184463D01*
X175463815Y-99263815D01*
X175384463Y-99360506D01*
X175325498Y-99470820D01*
X175289188Y-99590518D01*
X175276928Y-99715000D01*
X175276928Y-99968244D01*
X175182975Y-100144018D01*
X175060893Y-100546467D01*
X175019671Y-100965000D01*
X175060893Y-101383533D01*
X175182975Y-101785982D01*
X175276928Y-101961756D01*
X175276928Y-102215000D01*
X175289188Y-102339482D01*
X175325498Y-102459180D01*
X175384463Y-102569494D01*
X175463815Y-102666185D01*
X175560506Y-102745537D01*
X175670820Y-102804502D01*
X175790518Y-102840812D01*
X175915000Y-102853072D01*
X176168244Y-102853072D01*
X176344018Y-102947025D01*
X176746467Y-103069107D01*
X177165000Y-103110329D01*
X177583533Y-103069107D01*
X177985982Y-102947025D01*
X178161756Y-102853072D01*
X178415000Y-102853072D01*
X178539482Y-102840812D01*
X178659180Y-102804502D01*
X178769494Y-102745537D01*
X178866185Y-102666185D01*
X178945537Y-102569494D01*
X178966796Y-102529721D01*
X182890000Y-102529721D01*
X182890000Y-102950279D01*
X182972047Y-103362756D01*
X183132988Y-103751302D01*
X183366637Y-104100983D01*
X183664017Y-104398363D01*
X184013698Y-104632012D01*
X184402244Y-104792953D01*
X184814721Y-104875000D01*
X185235279Y-104875000D01*
X185647756Y-104792953D01*
X186036302Y-104632012D01*
X186385983Y-104398363D01*
X186683363Y-104100983D01*
X186917012Y-103751302D01*
X187077953Y-103362756D01*
X187160000Y-102950279D01*
X187160000Y-102529721D01*
X187077953Y-102117244D01*
X186960741Y-101834268D01*
X188030000Y-101834268D01*
X188030000Y-102195732D01*
X188100518Y-102550250D01*
X188238844Y-102884199D01*
X188439662Y-103184744D01*
X188695256Y-103440338D01*
X188995801Y-103641156D01*
X189329750Y-103779482D01*
X189684268Y-103850000D01*
X190045732Y-103850000D01*
X190400250Y-103779482D01*
X190734199Y-103641156D01*
X191034744Y-103440338D01*
X191290338Y-103184744D01*
X191491156Y-102884199D01*
X191629482Y-102550250D01*
X191700000Y-102195732D01*
X191700000Y-101834268D01*
X191629482Y-101479750D01*
X191491156Y-101145801D01*
X191290338Y-100845256D01*
X191034744Y-100589662D01*
X190734199Y-100388844D01*
X190400250Y-100250518D01*
X190045732Y-100180000D01*
X189684268Y-100180000D01*
X189329750Y-100250518D01*
X188995801Y-100388844D01*
X188695256Y-100589662D01*
X188439662Y-100845256D01*
X188238844Y-101145801D01*
X188100518Y-101479750D01*
X188030000Y-101834268D01*
X186960741Y-101834268D01*
X186917012Y-101728698D01*
X186683363Y-101379017D01*
X186385983Y-101081637D01*
X186036302Y-100847988D01*
X185647756Y-100687047D01*
X185235279Y-100605000D01*
X184814721Y-100605000D01*
X184402244Y-100687047D01*
X184013698Y-100847988D01*
X183664017Y-101081637D01*
X183366637Y-101379017D01*
X183132988Y-101728698D01*
X182972047Y-102117244D01*
X182890000Y-102529721D01*
X178966796Y-102529721D01*
X179004502Y-102459180D01*
X179040812Y-102339482D01*
X179053072Y-102215000D01*
X179053072Y-102096273D01*
X181140513Y-100008833D01*
X181221977Y-99941977D01*
X181360556Y-99773119D01*
X181488776Y-99616882D01*
X181566848Y-99470820D01*
X181687026Y-99245982D01*
X181809108Y-98843533D01*
X181840000Y-98529882D01*
X181840000Y-98529873D01*
X181850329Y-98425001D01*
X181840000Y-98320129D01*
X181840000Y-77574871D01*
X181850329Y-77469999D01*
X181840000Y-77365127D01*
X181840000Y-77365118D01*
X181809108Y-77051467D01*
X181687026Y-76649018D01*
X181488777Y-76278119D01*
X181361625Y-76123184D01*
X181288835Y-76034489D01*
X181288833Y-76034487D01*
X181221977Y-75953023D01*
X181140513Y-75886167D01*
X178748837Y-73494492D01*
X178681977Y-73413023D01*
X178356881Y-73146223D01*
X177985982Y-72947974D01*
X177583533Y-72825892D01*
X177269882Y-72795000D01*
X177269872Y-72795000D01*
X177165000Y-72784671D01*
X177060128Y-72795000D01*
X174520118Y-72795000D01*
X174206467Y-72825892D01*
X173804018Y-72947974D01*
X173433119Y-73146223D01*
X173108023Y-73413023D01*
X172845000Y-73733517D01*
X172845000Y-71755000D01*
X182116324Y-71755000D01*
X182120000Y-71792322D01*
X182120001Y-89497667D01*
X182116324Y-89535000D01*
X182120001Y-89572333D01*
X182130998Y-89683986D01*
X182144180Y-89727442D01*
X182174454Y-89827246D01*
X182245026Y-89959276D01*
X182298142Y-90023997D01*
X182340000Y-90075001D01*
X182368998Y-90098799D01*
X183316201Y-91046003D01*
X183339999Y-91075001D01*
X183368997Y-91098799D01*
X183455724Y-91169974D01*
X183586928Y-91240105D01*
X183586928Y-91335000D01*
X183599188Y-91459482D01*
X183635498Y-91579180D01*
X183694463Y-91689494D01*
X183773815Y-91786185D01*
X183807654Y-91813956D01*
X183753320Y-91895273D01*
X183645147Y-92156426D01*
X183590000Y-92433665D01*
X183590000Y-92716335D01*
X183645147Y-92993574D01*
X183753320Y-93254727D01*
X183910363Y-93489759D01*
X184015604Y-93595000D01*
X183910363Y-93700241D01*
X183753320Y-93935273D01*
X183645147Y-94196426D01*
X183590000Y-94473665D01*
X183590000Y-94756335D01*
X183645147Y-95033574D01*
X183753320Y-95294727D01*
X183910363Y-95529759D01*
X184015604Y-95635000D01*
X183910363Y-95740241D01*
X183753320Y-95975273D01*
X183645147Y-96236426D01*
X183590000Y-96513665D01*
X183590000Y-96796335D01*
X183645147Y-97073574D01*
X183753320Y-97334727D01*
X183910363Y-97569759D01*
X184110241Y-97769637D01*
X184345273Y-97926680D01*
X184606426Y-98034853D01*
X184883665Y-98090000D01*
X185166335Y-98090000D01*
X185443574Y-98034853D01*
X185704727Y-97926680D01*
X185939759Y-97769637D01*
X186130000Y-97579396D01*
X186130000Y-97816335D01*
X186185147Y-98093574D01*
X186293320Y-98354727D01*
X186450363Y-98589759D01*
X186650241Y-98789637D01*
X186885273Y-98946680D01*
X187146426Y-99054853D01*
X187423665Y-99110000D01*
X187706335Y-99110000D01*
X187983574Y-99054853D01*
X188244727Y-98946680D01*
X188479759Y-98789637D01*
X188679637Y-98589759D01*
X188836680Y-98354727D01*
X188944853Y-98093574D01*
X189000000Y-97816335D01*
X189000000Y-97533665D01*
X188944853Y-97256426D01*
X188836680Y-96995273D01*
X188679637Y-96760241D01*
X188574396Y-96655000D01*
X188679637Y-96549759D01*
X188836680Y-96314727D01*
X188944853Y-96053574D01*
X189000000Y-95776335D01*
X189000000Y-95493665D01*
X188944853Y-95216426D01*
X188836680Y-94955273D01*
X188679637Y-94720241D01*
X188574396Y-94615000D01*
X188679637Y-94509759D01*
X188836680Y-94274727D01*
X188944853Y-94013574D01*
X189000000Y-93736335D01*
X189000000Y-93453665D01*
X188944853Y-93176426D01*
X188836680Y-92915273D01*
X188679637Y-92680241D01*
X188574396Y-92575000D01*
X188679637Y-92469759D01*
X188783043Y-92315000D01*
X189712678Y-92315000D01*
X189750000Y-92318676D01*
X189787322Y-92315000D01*
X189787333Y-92315000D01*
X189898986Y-92304003D01*
X190042247Y-92260546D01*
X190174276Y-92189974D01*
X190290001Y-92095001D01*
X190313804Y-92065998D01*
X192281008Y-90098795D01*
X192310001Y-90075001D01*
X192333795Y-90046008D01*
X192333799Y-90046004D01*
X192404973Y-89959277D01*
X192404974Y-89959276D01*
X192475546Y-89827247D01*
X192519003Y-89683986D01*
X192530000Y-89572333D01*
X192530000Y-89572324D01*
X192533676Y-89535001D01*
X192530000Y-89497678D01*
X192530000Y-72427325D01*
X192533676Y-72390000D01*
X192530000Y-72352675D01*
X192530000Y-72352667D01*
X192519003Y-72241014D01*
X192475546Y-72097753D01*
X192404974Y-71965724D01*
X192310001Y-71849999D01*
X192281003Y-71826201D01*
X191178804Y-70724003D01*
X191155001Y-70694999D01*
X191039276Y-70600026D01*
X190907247Y-70529454D01*
X190763986Y-70485997D01*
X190652333Y-70475000D01*
X190652322Y-70475000D01*
X190615000Y-70471324D01*
X190577678Y-70475000D01*
X188783043Y-70475000D01*
X188679637Y-70320241D01*
X188479759Y-70120363D01*
X188244727Y-69963320D01*
X187983574Y-69855147D01*
X187706335Y-69800000D01*
X187423665Y-69800000D01*
X187146426Y-69855147D01*
X186885273Y-69963320D01*
X186650241Y-70120363D01*
X186463072Y-70307532D01*
X186463072Y-69415000D01*
X186450812Y-69290518D01*
X186414502Y-69170820D01*
X186355537Y-69060506D01*
X186276185Y-68963815D01*
X186179494Y-68884463D01*
X186069180Y-68825498D01*
X185949482Y-68789188D01*
X185825000Y-68776928D01*
X184225000Y-68776928D01*
X184100518Y-68789188D01*
X183980820Y-68825498D01*
X183870506Y-68884463D01*
X183773815Y-68963815D01*
X183694463Y-69060506D01*
X183635498Y-69170820D01*
X183599188Y-69290518D01*
X183586928Y-69415000D01*
X183586928Y-69973270D01*
X182369003Y-71191196D01*
X182339999Y-71214999D01*
X182303741Y-71259180D01*
X182245026Y-71330724D01*
X182216557Y-71383986D01*
X182174454Y-71462754D01*
X182130997Y-71606015D01*
X182120000Y-71717668D01*
X182120000Y-71717678D01*
X182116324Y-71755000D01*
X172845000Y-71755000D01*
X172845000Y-67793816D01*
X174995000Y-67793816D01*
X174995000Y-68096184D01*
X175053989Y-68392743D01*
X175169701Y-68672095D01*
X175337688Y-68923505D01*
X175551495Y-69137312D01*
X175802905Y-69305299D01*
X176082257Y-69421011D01*
X176378816Y-69480000D01*
X176681184Y-69480000D01*
X176977743Y-69421011D01*
X177257095Y-69305299D01*
X177508505Y-69137312D01*
X177722312Y-68923505D01*
X177890299Y-68672095D01*
X178006011Y-68392743D01*
X178065000Y-68096184D01*
X178065000Y-67793816D01*
X178006011Y-67497257D01*
X177890299Y-67217905D01*
X177722312Y-66966495D01*
X177508505Y-66752688D01*
X177257095Y-66584701D01*
X176977743Y-66468989D01*
X176681184Y-66410000D01*
X176378816Y-66410000D01*
X176082257Y-66468989D01*
X175802905Y-66584701D01*
X175551495Y-66752688D01*
X175337688Y-66966495D01*
X175169701Y-67217905D01*
X175053989Y-67497257D01*
X174995000Y-67793816D01*
X172845000Y-67793816D01*
X172845000Y-65959721D01*
X182890000Y-65959721D01*
X182890000Y-66380279D01*
X182972047Y-66792756D01*
X183132988Y-67181302D01*
X183366637Y-67530983D01*
X183664017Y-67828363D01*
X184013698Y-68062012D01*
X184402244Y-68222953D01*
X184814721Y-68305000D01*
X185235279Y-68305000D01*
X185647756Y-68222953D01*
X186036302Y-68062012D01*
X186385983Y-67828363D01*
X186683363Y-67530983D01*
X186917012Y-67181302D01*
X187077953Y-66792756D01*
X187093565Y-66714268D01*
X188030000Y-66714268D01*
X188030000Y-67075732D01*
X188100518Y-67430250D01*
X188238844Y-67764199D01*
X188439662Y-68064744D01*
X188695256Y-68320338D01*
X188995801Y-68521156D01*
X189329750Y-68659482D01*
X189684268Y-68730000D01*
X190045732Y-68730000D01*
X190400250Y-68659482D01*
X190734199Y-68521156D01*
X191034744Y-68320338D01*
X191290338Y-68064744D01*
X191491156Y-67764199D01*
X191629482Y-67430250D01*
X191700000Y-67075732D01*
X191700000Y-66714268D01*
X191629482Y-66359750D01*
X191491156Y-66025801D01*
X191290338Y-65725256D01*
X191034744Y-65469662D01*
X190734199Y-65268844D01*
X190400250Y-65130518D01*
X190045732Y-65060000D01*
X189684268Y-65060000D01*
X189329750Y-65130518D01*
X188995801Y-65268844D01*
X188695256Y-65469662D01*
X188439662Y-65725256D01*
X188238844Y-66025801D01*
X188100518Y-66359750D01*
X188030000Y-66714268D01*
X187093565Y-66714268D01*
X187160000Y-66380279D01*
X187160000Y-65959721D01*
X187077953Y-65547244D01*
X186917012Y-65158698D01*
X186683363Y-64809017D01*
X186385983Y-64511637D01*
X186036302Y-64277988D01*
X185647756Y-64117047D01*
X185235279Y-64035000D01*
X184814721Y-64035000D01*
X184402244Y-64117047D01*
X184013698Y-64277988D01*
X183664017Y-64511637D01*
X183366637Y-64809017D01*
X183132988Y-65158698D01*
X182972047Y-65547244D01*
X182890000Y-65959721D01*
X172845000Y-65959721D01*
X172845000Y-60414872D01*
X188415000Y-60414872D01*
X188415000Y-60855128D01*
X188500890Y-61286925D01*
X188669369Y-61693669D01*
X188913962Y-62059729D01*
X189225271Y-62371038D01*
X189591331Y-62615631D01*
X189998075Y-62784110D01*
X190429872Y-62870000D01*
X190870128Y-62870000D01*
X191301925Y-62784110D01*
X191708669Y-62615631D01*
X192074729Y-62371038D01*
X192386038Y-62059729D01*
X192630631Y-61693669D01*
X192799110Y-61286925D01*
X192885000Y-60855128D01*
X192885000Y-60414872D01*
X192799110Y-59983075D01*
X192630631Y-59576331D01*
X192386038Y-59210271D01*
X192074729Y-58898962D01*
X191708669Y-58654369D01*
X191301925Y-58485890D01*
X190870128Y-58400000D01*
X190429872Y-58400000D01*
X189998075Y-58485890D01*
X189591331Y-58654369D01*
X189225271Y-58898962D01*
X188913962Y-59210271D01*
X188669369Y-59576331D01*
X188500890Y-59983075D01*
X188415000Y-60414872D01*
X172845000Y-60414872D01*
X172845000Y-59092333D01*
X172848677Y-59055000D01*
X172834003Y-58906014D01*
X172790546Y-58762753D01*
X172719974Y-58630724D01*
X172648799Y-58543997D01*
X172625001Y-58514999D01*
X172596002Y-58491200D01*
X172013803Y-57909002D01*
X171990001Y-57879999D01*
X171874276Y-57785026D01*
X171742247Y-57714454D01*
X171598986Y-57670997D01*
X171487333Y-57660000D01*
X171487322Y-57660000D01*
X171450000Y-57656324D01*
X171412678Y-57660000D01*
X168977962Y-57660000D01*
X168971184Y-57658778D01*
X168903212Y-57660000D01*
X168872667Y-57660000D01*
X168865847Y-57660672D01*
X168821501Y-57661469D01*
X168791538Y-57667991D01*
X168761014Y-57670997D01*
X168718563Y-57683874D01*
X168675220Y-57693308D01*
X168647104Y-57705551D01*
X168617753Y-57714454D01*
X168578626Y-57735368D01*
X168537961Y-57753075D01*
X168512771Y-57770569D01*
X168485724Y-57785026D01*
X168451440Y-57813162D01*
X168445810Y-57817072D01*
X168422535Y-57836884D01*
X168369999Y-57879999D01*
X168365632Y-57885320D01*
X165618735Y-60223498D01*
X165598574Y-60215147D01*
X165321335Y-60160000D01*
X165038665Y-60160000D01*
X164761426Y-60215147D01*
X164500273Y-60323320D01*
X164265241Y-60480363D01*
X164065363Y-60680241D01*
X163908320Y-60915273D01*
X163800147Y-61176426D01*
X163745000Y-61453665D01*
X163745000Y-61693482D01*
X160369369Y-64130000D01*
X158516388Y-64130000D01*
X158471156Y-64020801D01*
X158270338Y-63720256D01*
X158014744Y-63464662D01*
X157714199Y-63263844D01*
X157380250Y-63125518D01*
X157025732Y-63055000D01*
X156664268Y-63055000D01*
X156309750Y-63125518D01*
X155975801Y-63263844D01*
X155675256Y-63464662D01*
X155419662Y-63720256D01*
X155218844Y-64020801D01*
X155173612Y-64130000D01*
X151682325Y-64130000D01*
X151645000Y-64126324D01*
X151607675Y-64130000D01*
X151607667Y-64130000D01*
X151496014Y-64140997D01*
X151352753Y-64184454D01*
X151220724Y-64255026D01*
X151104999Y-64349999D01*
X151081201Y-64378997D01*
X144981878Y-70478321D01*
X144866034Y-70416401D01*
X144586111Y-70331487D01*
X144367950Y-70310000D01*
X143922050Y-70310000D01*
X143703889Y-70331487D01*
X143423966Y-70416401D01*
X143165986Y-70554294D01*
X142939866Y-70739866D01*
X142754294Y-70965986D01*
X142616401Y-71223966D01*
X142531487Y-71503889D01*
X142502815Y-71795000D01*
X139265000Y-71795000D01*
X139265000Y-60414872D01*
X140155000Y-60414872D01*
X140155000Y-60855128D01*
X140240890Y-61286925D01*
X140409369Y-61693669D01*
X140653962Y-62059729D01*
X140965271Y-62371038D01*
X141331331Y-62615631D01*
X141738075Y-62784110D01*
X142169872Y-62870000D01*
X142610128Y-62870000D01*
X143041925Y-62784110D01*
X143448669Y-62615631D01*
X143814729Y-62371038D01*
X144126038Y-62059729D01*
X144370631Y-61693669D01*
X144539110Y-61286925D01*
X144625000Y-60855128D01*
X144625000Y-60414872D01*
X144539110Y-59983075D01*
X144370631Y-59576331D01*
X144126038Y-59210271D01*
X143814729Y-58898962D01*
X143448669Y-58654369D01*
X143041925Y-58485890D01*
X142610128Y-58400000D01*
X142169872Y-58400000D01*
X141738075Y-58485890D01*
X141331331Y-58654369D01*
X140965271Y-58898962D01*
X140653962Y-59210271D01*
X140409369Y-59576331D01*
X140240890Y-59983075D01*
X140155000Y-60414872D01*
X139265000Y-60414872D01*
X139265000Y-57510000D01*
X193775000Y-57510000D01*
X193775001Y-112020000D01*
G36*
X183645147Y-74713574D02*
G01*
X183753320Y-74974727D01*
X183910363Y-75209759D01*
X184110241Y-75409637D01*
X184345273Y-75566680D01*
X184500640Y-75631035D01*
X185025000Y-76155395D01*
X185039143Y-76141253D01*
X185218748Y-76320858D01*
X185204605Y-76335000D01*
X185218748Y-76349143D01*
X185039143Y-76528748D01*
X185025000Y-76514605D01*
X184211903Y-77327702D01*
X184283486Y-77571671D01*
X184538996Y-77692571D01*
X184813184Y-77761300D01*
X185095512Y-77775217D01*
X185375130Y-77733787D01*
X185390002Y-77728469D01*
X185390002Y-78162669D01*
X185386325Y-78200001D01*
X185390002Y-78237334D01*
X185400873Y-78347702D01*
X185400999Y-78348986D01*
X185444455Y-78492247D01*
X185515027Y-78624277D01*
X185586202Y-78711003D01*
X185610001Y-78740002D01*
X185638999Y-78763800D01*
X187345001Y-80469803D01*
X187345002Y-89035193D01*
X186463072Y-89917124D01*
X186463072Y-89735000D01*
X186450812Y-89610518D01*
X186414502Y-89490820D01*
X186355537Y-89380506D01*
X186276185Y-89283815D01*
X186179494Y-89204463D01*
X186069180Y-89145498D01*
X185949482Y-89109188D01*
X185825000Y-89096928D01*
X184225000Y-89096928D01*
X184100518Y-89109188D01*
X183980820Y-89145498D01*
X183870506Y-89204463D01*
X183773815Y-89283815D01*
X183742173Y-89322371D01*
X183640000Y-89220199D01*
X183640000Y-88124346D01*
X183664017Y-88148363D01*
X184013698Y-88382012D01*
X184402244Y-88542953D01*
X184814721Y-88625000D01*
X185235279Y-88625000D01*
X185647756Y-88542953D01*
X186036302Y-88382012D01*
X186385983Y-88148363D01*
X186683363Y-87850983D01*
X186917012Y-87501302D01*
X187077953Y-87112756D01*
X187160000Y-86700279D01*
X187160000Y-86279721D01*
X187077953Y-85867244D01*
X186917012Y-85478698D01*
X186683363Y-85129017D01*
X186385983Y-84831637D01*
X186036302Y-84597988D01*
X185691098Y-84455000D01*
X186036302Y-84312012D01*
X186385983Y-84078363D01*
X186683363Y-83780983D01*
X186917012Y-83431302D01*
X187077953Y-83042756D01*
X187160000Y-82630279D01*
X187160000Y-82209721D01*
X187077953Y-81797244D01*
X186917012Y-81408698D01*
X186683363Y-81059017D01*
X186385983Y-80761637D01*
X186036302Y-80527988D01*
X185647756Y-80367047D01*
X185235279Y-80285000D01*
X184814721Y-80285000D01*
X184402244Y-80367047D01*
X184013698Y-80527988D01*
X183664017Y-80761637D01*
X183640000Y-80785654D01*
X183640000Y-76723682D01*
X183721397Y-76951292D01*
X183788329Y-77076514D01*
X184032298Y-77148097D01*
X184845395Y-76335000D01*
X184032298Y-75521903D01*
X183788329Y-75593486D01*
X183667429Y-75848996D01*
X183640000Y-75958421D01*
X183640000Y-74687699D01*
X183645147Y-74713574D01*
G37*
X183645147Y-74713574D02*
X183753320Y-74974727D01*
X183910363Y-75209759D01*
X184110241Y-75409637D01*
X184345273Y-75566680D01*
X184500640Y-75631035D01*
X185025000Y-76155395D01*
X185039143Y-76141253D01*
X185218748Y-76320858D01*
X185204605Y-76335000D01*
X185218748Y-76349143D01*
X185039143Y-76528748D01*
X185025000Y-76514605D01*
X184211903Y-77327702D01*
X184283486Y-77571671D01*
X184538996Y-77692571D01*
X184813184Y-77761300D01*
X185095512Y-77775217D01*
X185375130Y-77733787D01*
X185390002Y-77728469D01*
X185390002Y-78162669D01*
X185386325Y-78200001D01*
X185390002Y-78237334D01*
X185400873Y-78347702D01*
X185400999Y-78348986D01*
X185444455Y-78492247D01*
X185515027Y-78624277D01*
X185586202Y-78711003D01*
X185610001Y-78740002D01*
X185638999Y-78763800D01*
X187345001Y-80469803D01*
X187345002Y-89035193D01*
X186463072Y-89917124D01*
X186463072Y-89735000D01*
X186450812Y-89610518D01*
X186414502Y-89490820D01*
X186355537Y-89380506D01*
X186276185Y-89283815D01*
X186179494Y-89204463D01*
X186069180Y-89145498D01*
X185949482Y-89109188D01*
X185825000Y-89096928D01*
X184225000Y-89096928D01*
X184100518Y-89109188D01*
X183980820Y-89145498D01*
X183870506Y-89204463D01*
X183773815Y-89283815D01*
X183742173Y-89322371D01*
X183640000Y-89220199D01*
X183640000Y-88124346D01*
X183664017Y-88148363D01*
X184013698Y-88382012D01*
X184402244Y-88542953D01*
X184814721Y-88625000D01*
X185235279Y-88625000D01*
X185647756Y-88542953D01*
X186036302Y-88382012D01*
X186385983Y-88148363D01*
X186683363Y-87850983D01*
X186917012Y-87501302D01*
X187077953Y-87112756D01*
X187160000Y-86700279D01*
X187160000Y-86279721D01*
X187077953Y-85867244D01*
X186917012Y-85478698D01*
X186683363Y-85129017D01*
X186385983Y-84831637D01*
X186036302Y-84597988D01*
X185691098Y-84455000D01*
X186036302Y-84312012D01*
X186385983Y-84078363D01*
X186683363Y-83780983D01*
X186917012Y-83431302D01*
X187077953Y-83042756D01*
X187160000Y-82630279D01*
X187160000Y-82209721D01*
X187077953Y-81797244D01*
X186917012Y-81408698D01*
X186683363Y-81059017D01*
X186385983Y-80761637D01*
X186036302Y-80527988D01*
X185647756Y-80367047D01*
X185235279Y-80285000D01*
X184814721Y-80285000D01*
X184402244Y-80367047D01*
X184013698Y-80527988D01*
X183664017Y-80761637D01*
X183640000Y-80785654D01*
X183640000Y-76723682D01*
X183721397Y-76951292D01*
X183788329Y-77076514D01*
X184032298Y-77148097D01*
X184845395Y-76335000D01*
X184032298Y-75521903D01*
X183788329Y-75593486D01*
X183667429Y-75848996D01*
X183640000Y-75958421D01*
X183640000Y-74687699D01*
X183645147Y-74713574D01*
G36*
X191010000Y-72704802D02*
G01*
X191010000Y-80253129D01*
X190734199Y-80068844D01*
X190400250Y-79930518D01*
X190045732Y-79860000D01*
X189684268Y-79860000D01*
X189329750Y-79930518D01*
X188995801Y-80068844D01*
X188868566Y-80153860D01*
X188854004Y-80006015D01*
X188810547Y-79862754D01*
X188739975Y-79730725D01*
X188668800Y-79643998D01*
X188645002Y-79615000D01*
X188616005Y-79591203D01*
X187796209Y-78771407D01*
X187915130Y-78753787D01*
X188181292Y-78658603D01*
X188306514Y-78591671D01*
X188378097Y-78347702D01*
X187565000Y-77534605D01*
X187550858Y-77548748D01*
X187371253Y-77369143D01*
X187385395Y-77355000D01*
X187744605Y-77355000D01*
X188557702Y-78168097D01*
X188801671Y-78096514D01*
X188922571Y-77841004D01*
X188991300Y-77566816D01*
X189005217Y-77284488D01*
X188963787Y-77004870D01*
X188868603Y-76738708D01*
X188801671Y-76613486D01*
X188557702Y-76541903D01*
X187744605Y-77355000D01*
X187385395Y-77355000D01*
X187371253Y-77340858D01*
X187550858Y-77161253D01*
X187565000Y-77175395D01*
X188089360Y-76651035D01*
X188244727Y-76586680D01*
X188479759Y-76429637D01*
X188679637Y-76229759D01*
X188836680Y-75994727D01*
X188944853Y-75733574D01*
X189000000Y-75456335D01*
X189000000Y-75173665D01*
X188944853Y-74896426D01*
X188836680Y-74635273D01*
X188679637Y-74400241D01*
X188574396Y-74295000D01*
X188679637Y-74189759D01*
X188836680Y-73954727D01*
X188944853Y-73693574D01*
X189000000Y-73416335D01*
X189000000Y-73133665D01*
X188944853Y-72856426D01*
X188836680Y-72595273D01*
X188679637Y-72360241D01*
X188574396Y-72255000D01*
X188679637Y-72149759D01*
X188783043Y-71995000D01*
X190300199Y-71995000D01*
X191010000Y-72704802D01*
G37*
X191010000Y-72704802D02*
X191010000Y-80253129D01*
X190734199Y-80068844D01*
X190400250Y-79930518D01*
X190045732Y-79860000D01*
X189684268Y-79860000D01*
X189329750Y-79930518D01*
X188995801Y-80068844D01*
X188868566Y-80153860D01*
X188854004Y-80006015D01*
X188810547Y-79862754D01*
X188739975Y-79730725D01*
X188668800Y-79643998D01*
X188645002Y-79615000D01*
X188616005Y-79591203D01*
X187796209Y-78771407D01*
X187915130Y-78753787D01*
X188181292Y-78658603D01*
X188306514Y-78591671D01*
X188378097Y-78347702D01*
X187565000Y-77534605D01*
X187550858Y-77548748D01*
X187371253Y-77369143D01*
X187385395Y-77355000D01*
X187744605Y-77355000D01*
X188557702Y-78168097D01*
X188801671Y-78096514D01*
X188922571Y-77841004D01*
X188991300Y-77566816D01*
X189005217Y-77284488D01*
X188963787Y-77004870D01*
X188868603Y-76738708D01*
X188801671Y-76613486D01*
X188557702Y-76541903D01*
X187744605Y-77355000D01*
X187385395Y-77355000D01*
X187371253Y-77340858D01*
X187550858Y-77161253D01*
X187565000Y-77175395D01*
X188089360Y-76651035D01*
X188244727Y-76586680D01*
X188479759Y-76429637D01*
X188679637Y-76229759D01*
X188836680Y-75994727D01*
X188944853Y-75733574D01*
X189000000Y-75456335D01*
X189000000Y-75173665D01*
X188944853Y-74896426D01*
X188836680Y-74635273D01*
X188679637Y-74400241D01*
X188574396Y-74295000D01*
X188679637Y-74189759D01*
X188836680Y-73954727D01*
X188944853Y-73693574D01*
X189000000Y-73416335D01*
X189000000Y-73133665D01*
X188944853Y-72856426D01*
X188836680Y-72595273D01*
X188679637Y-72360241D01*
X188574396Y-72255000D01*
X188679637Y-72149759D01*
X188783043Y-71995000D01*
X190300199Y-71995000D01*
X191010000Y-72704802D01*
%TD*%
M02*
